SplineFontDB: 3.0
FontName: Jost-HairlineItalic
FullName: Jost* 100 Hairline Italic
FamilyName: Jost* Hairline
Weight: Hairline
Copyright: This typeface is licensed under the SIL open font license.
UComments: "2018-6-8: Created with FontForge (http://fontforge.org)"
Version: 003.400
ItalicAngle: -10
UnderlinePosition: -100
UnderlineWidth: 50
Ascent: 800
Descent: 200
InvalidEm: 0
LayerCount: 2
Layer: 0 0 "Back" 1
Layer: 1 0 "Fore" 0
XUID: [1021 69 1495626776 760146]
FSType: 0
OS2Version: 0
OS2_WeightWidthSlopeOnly: 0
OS2_UseTypoMetrics: 0
CreationTime: 1528480336
ModificationTime: 1577666808
PfmFamily: 17
TTFWeight: 100
TTFWidth: 5
LineGap: 100
VLineGap: 0
OS2TypoAscent: 825
OS2TypoAOffset: 0
OS2TypoDescent: -225
OS2TypoDOffset: 0
OS2TypoLinegap: 100
OS2WinAscent: 900
OS2WinAOffset: 0
OS2WinDescent: 300
OS2WinDOffset: 0
HheadAscent: 1030
HheadAOffset: 0
HheadDescent: -350
HheadDOffset: 0
OS2CapHeight: 700
OS2XHeight: 460
OS2Vendor: 'PfEd'
Lookup: 1 0 0 "alt a" { "alt a"  } ['ss01' ('DFLT' <'dflt' > 'latn' <'dflt' > ) ]
Lookup: 1 0 0 "Tabular Numbers lookup" { "Tabular Numbers lookup"  } ['tnum' ('DFLT' <'dflt' > 'grek' <'dflt' > 'latn' <'dflt' > ) ]
Lookup: 258 0 0 "Jost-Hairline-Lets get our kern on" { "Jost-Hairline-kernin like nobodys business" [150,0,4] } ['kern' ('DFLT' <'dflt' > 'latn' <'dflt' > ) ]
MarkAttachClasses: 1
DEI: 91125
KernClass2: 16 14 "Jost-Hairline-kernin like nobodys business"
 43 slash seven V W Wcircumflex uni040E uni0423
 175 quotedbl quotesingle asterisk grave dieresis ordfeminine macron degree acute ordmasculine circumflex breve dotaccent ring tilde quoteleft quoteright quotedblleft quotedblright
 25 nine question F P uni0420
 131 A L backslash Agrave Aacute Acircumflex Atilde Adieresis Aring Amacron Abreve Aogonek Lacute uni013B Lslash uni0410 uni0414 uni041C
 58 three eight B C germandbls uni0411 uni0412 uni0417 uni0421
 29 K X Z uni0416 uni041A uni0425

StartChar: H
Encoding: 72 72 0
Width: 627
VWidth: 0
Flags: HMW
LayerCount: 2
Fore
SplineSet
128 377 m 1
 129 387 l 1
 576 387 l 1
 574 377 l 1
 128 377 l 1
622 700 m 1
 634 700 l 1
 513 0 l 1
 502 0 l 1
 622 700 l 1
180 700 m 1
 191 700 l 1
 70 0 l 1
 60 0 l 1
 180 700 l 1
EndSplineSet
EndChar

StartChar: O
Encoding: 79 79 1
Width: 751
VWidth: 0
Flags: HMW
LayerCount: 2
Fore
SplineSet
92 350 m 0
 66 172 156 3 348 3 c 0
 542 3 694 162 724 350 c 0
 750 528 660 697 468 697 c 0
 274 697 122 538 92 350 c 0
81 350 m 0
 111 546 270 708 468 708 c 0
 664 708 763 536 736 350 c 0
 706 154 546 -8 348 -8 c 0
 152 -8 54 164 81 350 c 0
EndSplineSet
EndChar

StartChar: I
Encoding: 73 73 2
Width: 174
VWidth: 0
Flags: HMW
LayerCount: 2
Fore
SplineSet
176 700 m 1
 186 700 l 1
 64 0 l 1
 54 0 l 1
 176 700 l 1
EndSplineSet
EndChar

StartChar: C
Encoding: 67 67 3
Width: 664
VWidth: 0
Flags: HMW
LayerCount: 2
Fore
SplineSet
93 350 m 0
 67 174 153 6 342 4 c 0
 436 4 510 35 576 87 c 1
 572 72 l 1
 506 24 435 -8 341 -8 c 0
 145 -7 54 166 81 350 c 0
 111 546 264 707 462 708 c 0
 550 708 613 681 668 628 c 1
 665 614 l 1
 613 671 545 696 461 696 c 0
 270 695 123 539 93 350 c 0
EndSplineSet
EndChar

StartChar: E
Encoding: 69 69 4
Width: 494
VWidth: 0
Flags: HMW
LayerCount: 2
Fore
SplineSet
62 0 m 1
 64 10 l 1
 392 10 l 1
 390 0 l 1
 62 0 l 1
180 690 m 1
 182 700 l 1
 510 700 l 1
 508 690 l 1
 180 690 l 1
128 384 m 1
 130 394 l 1
 438 394 l 1
 436 384 l 1
 128 384 l 1
180 700 m 1
 191 700 l 1
 70 0 l 1
 60 0 l 1
 180 700 l 1
EndSplineSet
EndChar

StartChar: F
Encoding: 70 70 6
Width: 436
VWidth: 0
Flags: HMW
LayerCount: 2
Fore
SplineSet
180 689 m 1
 182 700 l 1
 471 700 l 1
 469 689 l 1
 180 689 l 1
126 373 m 1
 128 383 l 1
 407 383 l 1
 406 373 l 1
 126 373 l 1
180 700 m 1
 191 700 l 1
 70 0 l 1
 60 0 l 1
 180 700 l 1
EndSplineSet
EndChar

StartChar: G
Encoding: 71 71 7
Width: 742
VWidth: 0
Flags: HMW
LayerCount: 2
Fore
SplineSet
437 330 m 1
 438 340 l 1
 720 340 l 1
 685 163 547 -8 350 -8 c 0
 154 -8 54 164 81 350 c 0
 111 546 274 708 472 708 c 0
 588 708 667 646 716 556 c 1
 706 550 l 1
 666 638 581 697 471 697 c 0
 277 697 122 540 92 350 c 0
 66 172 160 4 352 4 c 0
 540 4 670 162 708 330 c 1
 437 330 l 1
EndSplineSet
EndChar

StartChar: T
Encoding: 84 84 8
Width: 418
VWidth: 0
Flags: HMW
LayerCount: 2
Fore
SplineSet
110 689 m 1
 112 700 l 1
 492 700 l 1
 490 689 l 1
 305 689 l 1
 187 0 l 1
 176 0 l 1
 294 689 l 1
 110 689 l 1
EndSplineSet
EndChar

StartChar: L
Encoding: 76 76 9
Width: 417
VWidth: 0
Flags: HMW
LayerCount: 2
Fore
SplineSet
180 700 m 1
 190 700 l 1
 72 10 l 1
 372 10 l 1
 371 0 l 1
 60 0 l 1
 180 700 l 1
EndSplineSet
EndChar

StartChar: D
Encoding: 68 68 10
Width: 616
VWidth: 0
Flags: HMW
LayerCount: 2
Fore
SplineSet
180 700 m 1
 191 700 l 1
 70 0 l 1
 60 0 l 1
 180 700 l 1
216 0 m 2
 65 0 l 1
 67 11 l 1
 217 11 l 2
 416 11 559 157 590 350 c 0
 618 533 530 689 334 689 c 2
 182 689 l 1
 184 700 l 1
 334 700 l 2
 535 700 628 538 600 350 c 0
 568 152 420 0 216 0 c 2
EndSplineSet
EndChar

StartChar: Q
Encoding: 81 81 11
Width: 748
VWidth: 0
Flags: HMW
LayerCount: 2
Fore
SplineSet
92 350 m 0
 66 172 156 3 348 3 c 0
 542 3 694 162 724 350 c 0
 750 528 660 697 468 697 c 0
 274 697 122 538 92 350 c 0
81 350 m 0
 111 546 270 708 468 708 c 0
 664 708 763 536 736 350 c 0
 706 154 546 -8 348 -8 c 0
 152 -8 54 164 81 350 c 0
412 300 m 1
 427 300 l 1
 688 0 l 1
 672 0 l 1
 412 300 l 1
EndSplineSet
EndChar

StartChar: A
Encoding: 65 65 12
Width: 582
VWidth: 0
Flags: HMW
LayerCount: 2
Fore
SplineSet
144 272 m 1
 146 282 l 1
 479 282 l 1
 478 272 l 1
 144 272 l 1
382 688 m 1
 152 277 l 1
 151 273 l 1
 -2 0 l 1
 -14 0 l 1
 386 715 l 1
 540 0 l 1
 528 0 l 1
 472 273 l 1
 472 276 l 1
 382 688 l 1
EndSplineSet
EndChar

StartChar: R
Encoding: 82 82 13
Width: 454
VWidth: 0
Flags: HMW
LayerCount: 2
Fore
SplineSet
220 317 m 1
 232 317 l 1
 393 0 l 1
 380 0 l 1
 220 317 l 1
180 700 m 1
 191 700 l 1
 70 0 l 1
 60 0 l 1
 180 700 l 1
180 689 m 1
 182 700 l 1
 291 700 l 2
 415 700 508 631 488 507 c 0
 468 381 356 316 226 314 c 1
 116 314 l 1
 118 324 l 1
 226 324 l 1
 351 326 457 387 477 507 c 0
 497 625 410 687 290 689 c 1
 180 689 l 1
EndSplineSet
EndChar

StartChar: V
Encoding: 86 86 14
Width: 582
VWidth: 0
Flags: HMW
LayerCount: 2
Fore
SplineSet
276 15 m 1
 646 700 l 1
 659 700 l 1
 271 -15 l 1
 106 700 l 1
 118 700 l 1
 276 15 l 1
EndSplineSet
EndChar

StartChar: M
Encoding: 77 77 15
Width: 805
VWidth: 0
Flags: HMW
LayerCount: 2
Fore
SplineSet
226 674 m 1
 41 0 l 1
 30 0 l 1
 226 715 l 1
 398 132 l 1
 770 716 l 1
 720 0 l 1
 709 0 l 1
 756 674 l 1
 394 104 l 1
 226 674 l 1
EndSplineSet
EndChar

StartChar: W
Encoding: 87 87 16
Width: 921
VWidth: 0
Flags: HMW
LayerCount: 2
Fore
SplineSet
660 26 m 1
 983 700 l 1
 994 700 l 1
 654 -16 l 1
 548 676 l 1
 228 -16 l 1
 110 700 l 1
 121 700 l 1
 234 26 l 1
 554 716 l 1
 660 26 l 1
EndSplineSet
EndChar

StartChar: N
Encoding: 78 78 17
Width: 675
VWidth: 0
Flags: HMW
LayerCount: 2
Fore
SplineSet
680 700 m 1
 690 700 l 1
 568 -15 l 1
 168 678 l 1
 52 0 l 1
 40 0 l 1
 164 715 l 1
 562 17 l 1
 680 700 l 1
EndSplineSet
EndChar

StartChar: a
Encoding: 97 97 18
Width: 525
VWidth: 0
Flags: HMW
LayerCount: 2
Fore
SplineSet
490 460 m 1
 500 460 l 1
 420 0 l 1
 410 0 l 1
 490 460 l 1
56 230 m 0
 76 362 177 472 303 470 c 0
 427 468 471 336 455 230 c 0
 437 116 347 -10 222 -10 c 0
 96 -10 39 106 56 230 c 0
66 230 m 0
 50 111 104 -1 226 0 c 0
 340 1 432 120 450 230 c 0
 465 332 419 458 305 460 c 0
 183 462 85 356 66 230 c 0
EndSplineSet
Substitution2: "alt a" a.alt
EndChar

StartChar: X
Encoding: 88 88 19
Width: 485
VWidth: 0
Flags: HMW
LayerCount: 2
Fore
SplineSet
528 699 m 1
 542 699 l 1
 290 366 l 1
 449 0 l 1
 436 0 l 1
 283 356 l 1
 16 0 l 1
 2 0 l 1
 278 368 l 1
 134 700 l 1
 148 700 l 1
 286 378 l 1
 528 699 l 1
EndSplineSet
EndChar

StartChar: K
Encoding: 75 75 20
Width: 440
VWidth: 0
Flags: HMW
LayerCount: 2
Fore
SplineSet
176 700 m 1
 186 700 l 1
 66 0 l 1
 54 0 l 1
 176 700 l 1
488 699 m 1
 504 699 l 1
 141 372 l 1
 398 0 l 1
 383 0 l 1
 128 372 l 1
 488 699 l 1
EndSplineSet
EndChar

StartChar: Y
Encoding: 89 89 21
Width: 492
VWidth: 0
Flags: HMW
LayerCount: 2
Fore
SplineSet
558 699 m 1
 570 699 l 1
 265 266 l 1
 219 0 l 1
 208 0 l 1
 254 266 l 1
 107 700 l 1
 120 700 l 1
 261 282 l 1
 558 699 l 1
EndSplineSet
EndChar

StartChar: B
Encoding: 66 66 22
Width: 480
VWidth: 0
Flags: HMW
LayerCount: 2
Fore
SplineSet
133 386 m 1
 134 394 l 1
 234 394 l 1
 332 396 424 439 440 540 c 0
 456 634 389 689 285 689 c 2
 188 689 l 1
 72 11 l 1
 178 11 l 2
 302 11 399 76 418 200 c 0
 434 309 342 384 242 384 c 2
 132 384 l 1
 134 392 l 1
 252 392 l 2
 346 392 446 316 430 200 c 0
 411 69 307 0 177 0 c 2
 60 0 l 1
 180 700 l 1
 286 700 l 2
 396 700 469 640 452 540 c 0
 436 436 345 388 243 386 c 1
 133 386 l 1
EndSplineSet
EndChar

StartChar: Z
Encoding: 90 90 23
Width: 519
VWidth: 0
Flags: HMW
LayerCount: 2
Fore
SplineSet
129 689 m 1
 131 700 l 1
 598 700 l 1
 16 12 l 1
 470 12 l 1
 468 0 l 1
 -8 0 l 1
 574 689 l 1
 129 689 l 1
EndSplineSet
EndChar

StartChar: o
Encoding: 111 111 24
Width: 539
VWidth: 0
Flags: HMW
LayerCount: 2
Fore
SplineSet
62 230 m 0
 80 362 190 470 324 470 c 0
 456 470 531 356 514 230 c 0
 496 98 386 -10 252 -10 c 0
 120 -10 45 104 62 230 c 0
72 230 m 0
 56 110 126 0 252 0 c 0
 379 0 486 104 504 230 c 0
 520 350 450 460 324 460 c 0
 197 460 90 356 72 230 c 0
EndSplineSet
EndChar

StartChar: J
Encoding: 74 74 25
Width: 191
VWidth: 0
Flags: HMW
LayerCount: 2
Fore
SplineSet
-178 -158 m 1
 -154 -184 -122 -208 -80 -208 c 0
 10 -210 44 -145 58 -50 c 2
 186 700 l 1
 197 700 l 1
 67 -60 l 2
 53 -153 14 -222 -80 -220 c 0
 -128 -220 -166 -191 -186 -165 c 1
 -178 -158 l 1
EndSplineSet
EndChar

StartChar: t
Encoding: 116 116 26
Width: 184
VWidth: 0
Flags: HMW
LayerCount: 2
Fore
SplineSet
68 460 m 1
 224 460 l 1
 222 450 l 1
 66 450 l 1
 68 460 l 1
166 620 m 1
 176 620 l 1
 70 0 l 1
 60 0 l 1
 166 620 l 1
EndSplineSet
EndChar

StartChar: d
Encoding: 100 100 27
Width: 525
VWidth: 0
Flags: HMW
LayerCount: 2
Fore
SplineSet
544 780 m 1
 554 780 l 1
 420 0 l 1
 410 0 l 1
 544 780 l 1
56 230 m 0
 76 362 177 472 303 470 c 0
 427 468 471 336 455 230 c 0
 437 116 347 -10 222 -10 c 0
 96 -10 39 106 56 230 c 0
66 230 m 0
 50 111 104 -1 226 0 c 0
 340 1 432 120 450 230 c 0
 465 332 419 458 305 460 c 0
 183 462 85 356 66 230 c 0
EndSplineSet
EndChar

StartChar: l
Encoding: 108 108 28
Width: 174
VWidth: 0
Flags: HMW
LayerCount: 2
Fore
SplineSet
189 780 m 1
 199 780 l 1
 64 0 l 1
 54 0 l 1
 189 780 l 1
EndSplineSet
EndChar

StartChar: i
Encoding: 105 105 29
Width: 184
VWidth: 0
Flags: HMW
LayerCount: 2
Fore
SplineSet
174 695 m 0
 174 701 178 705 184 705 c 0
 190 705 194 701 194 695 c 0
 194 689 190 685 184 685 c 0
 178 685 174 689 174 695 c 0
140 460 m 1
 150 460 l 1
 70 0 l 1
 60 0 l 1
 140 460 l 1
EndSplineSet
EndChar

StartChar: r
Encoding: 114 114 30
Width: 281
VWidth: 0
Flags: HMW
LayerCount: 2
Fore
SplineSet
144 460 m 1
 64 0 l 1
 54 0 l 1
 134 460 l 1
 144 460 l 1
310 440 m 1
 294 450 277 460 258 460 c 0
 172 462 127 362 112 280 c 1
 107 280 l 1
 123 371 167 474 258 470 c 0
 280 470 299 459 316 448 c 1
 310 440 l 1
EndSplineSet
EndChar

StartChar: c
Encoding: 99 99 31
Width: 473
VWidth: 0
Flags: HMW
LayerCount: 2
Fore
SplineSet
66 230 m 0
 50 110 122 0 248 0 c 0
 316 0 372 32 408 60 c 1
 406 48 l 1
 370 20 313 -10 247 -10 c 0
 115 -10 40 104 57 230 c 0
 75 362 186 470 320 470 c 0
 382 470 434 442 462 412 c 1
 460 400 l 1
 433 432 382 460 319 460 c 0
 192 460 84 356 66 230 c 0
EndSplineSet
EndChar

StartChar: b
Encoding: 98 98 32
Width: 525
VWidth: 0
Flags: HMW
LayerCount: 2
Fore
SplineSet
194 780 m 1
 60 0 l 1
 50 0 l 1
 184 780 l 1
 194 780 l 1
494 230 m 0
 474 98 372 -12 246 -10 c 0
 122 -8 78 124 94 230 c 0
 112 344 202 470 327 470 c 0
 453 470 511 354 494 230 c 0
484 230 m 0
 500 349 446 461 324 460 c 0
 210 459 118 340 100 230 c 0
 85 128 130 2 244 0 c 0
 366 -2 465 104 484 230 c 0
EndSplineSet
EndChar

StartChar: p
Encoding: 112 112 33
Width: 525
VWidth: 0
Flags: HMW
LayerCount: 2
Fore
SplineSet
22 -220 m 1
 12 -220 l 1
 130 460 l 1
 140 460 l 1
 22 -220 l 1
494 230 m 0
 474 98 372 -12 246 -10 c 0
 122 -8 78 124 94 230 c 0
 112 344 202 470 327 470 c 0
 453 470 511 354 494 230 c 0
484 230 m 0
 500 349 446 461 324 460 c 0
 210 459 118 340 100 230 c 0
 85 128 130 2 244 0 c 0
 366 -2 465 104 484 230 c 0
EndSplineSet
EndChar

StartChar: q
Encoding: 113 113 34
Width: 525
VWidth: 0
Flags: HMW
LayerCount: 2
Fore
SplineSet
372 -220 m 1
 490 460 l 1
 500 460 l 1
 382 -220 l 1
 372 -220 l 1
56 230 m 0
 76 362 177 472 303 470 c 0
 427 468 471 336 455 230 c 0
 437 116 347 -10 222 -10 c 0
 96 -10 39 106 56 230 c 0
66 230 m 0
 50 111 104 -1 226 0 c 0
 340 1 432 120 450 230 c 0
 465 332 419 458 305 460 c 0
 183 462 85 356 66 230 c 0
EndSplineSet
EndChar

StartChar: h
Encoding: 104 104 35
Width: 460
VWidth: 0
Flags: HMW
LayerCount: 2
Fore
SplineSet
199 780 m 1
 64 0 l 1
 54 0 l 1
 189 780 l 1
 199 780 l 1
396 320 m 2
 406 392 388 459 302 460 c 0
 206 461 132 369 112 281 c 1
 107 281 l 1
 127 379 200 470 302 470 c 0
 394 470 416 399 406 320 c 2
 350 0 l 1
 341 0 l 1
 396 320 l 2
EndSplineSet
EndChar

StartChar: n
Encoding: 110 110 36
Width: 460
VWidth: 0
Flags: HMW
LayerCount: 2
Fore
SplineSet
396 320 m 2
 406 392 388 459 302 460 c 0
 210 461 131 379 117 290 c 2
 64 0 l 1
 54 0 l 1
 134 460 l 1
 144 460 l 1
 124 336 l 1
 150 412 218 470 302 470 c 0
 394 470 416 399 406 320 c 2
 350 0 l 1
 341 0 l 1
 396 320 l 2
EndSplineSet
EndChar

StartChar: m
Encoding: 109 109 37
Width: 669
VWidth: 0
Flags: HMW
LayerCount: 2
Fore
SplineSet
615 320 m 2
 560 0 l 1
 550 0 l 1
 605 320 l 2
 613 386 603 458 530 460 c 0
 451 462 377 376 364 290 c 2
 312 0 l 1
 302 0 l 1
 358 320 l 2
 366 386 355 458 282 460 c 0
 204 462 131 376 117 290 c 2
 64 0 l 1
 54 0 l 1
 134 460 l 1
 144 460 l 1
 124 336 l 1
 148 408 212 472 283 470 c 0
 357 468 376 403 370 339 c 1
 402 417 459 472 530 470 c 0
 609 468 624 394 615 320 c 2
EndSplineSet
EndChar

StartChar: k
Encoding: 107 107 38
Width: 361
VWidth: 0
Flags: HMW
LayerCount: 2
Fore
SplineSet
184 780 m 1
 194 780 l 1
 60 0 l 1
 50 0 l 1
 184 780 l 1
370 459 m 1
 386 459 l 1
 117 270 l 1
 324 0 l 1
 312 0 l 1
 104 270 l 1
 370 459 l 1
EndSplineSet
EndChar

StartChar: u
Encoding: 117 117 39
Width: 460
VWidth: 0
Flags: HMW
LayerCount: 2
Fore
SplineSet
90 150 m 2
 80 72 95 1 184 1 c 0
 278 0 357 87 370 172 c 2
 420 460 l 1
 430 460 l 1
 351 0 l 1
 341 0 l 1
 360 120 l 1
 329 46 267 -11 183 -10 c 0
 88 -10 69 66 80 150 c 2
 134 460 l 1
 144 460 l 1
 90 150 l 2
EndSplineSet
EndChar

StartChar: e
Encoding: 101 101 40
Width: 502
VWidth: 0
Flags: HMW
LayerCount: 2
Fore
SplineSet
225 -10 m 0
 124 -10 55 74 55 197 c 0
 55 333 174 470 304 470 c 0
 400 470 470 382 470 279 c 0
 470 263 466 244 460 228 c 1
 68 228 l 1
 68 238 l 1
 454 238 l 1
 448 229 l 1
 453 240 460 258 460 280 c 0
 460 378 395 460 304 460 c 0
 180 460 65 327 65 197 c 0
 65 81 130 0 225 0 c 0
 307 0 372 38 426 113 c 1
 434 107 l 1
 377 29 309 -10 225 -10 c 0
EndSplineSet
EndChar

StartChar: g
Encoding: 103 103 41
Width: 525
VWidth: 0
Flags: HMW
LayerCount: 2
Fore
SplineSet
26 -30 m 1
 36 -30 l 1
 24 -133 70 -219 180 -220 c 0
 298 -221 393 -123 412 10 c 2
 490 460 l 1
 500 460 l 1
 422 10 l 2
 402 -128 305 -230 179 -230 c 0
 63 -230 14 -137 26 -30 c 1
56 230 m 0
 76 362 177 472 303 470 c 0
 427 468 471 336 455 230 c 0
 437 116 347 -10 222 -10 c 0
 96 -10 39 106 56 230 c 0
66 230 m 0
 49 110 104 0 226 0 c 0
 342 0 432 121 450 235 c 0
 464 331 417 458 305 460 c 0
 183 462 85 356 66 230 c 0
EndSplineSet
EndChar

StartChar: f
Encoding: 102 102 42
Width: 269
VWidth: 0
Flags: HMW
LayerCount: 2
Fore
SplineSet
100 460 m 1
 289 460 l 1
 288 450 l 1
 98 450 l 1
 100 460 l 1
372 733 m 1
 357 754 337 777 304 778 c 0
 229 780 197 706 186 650 c 2
 74 0 l 1
 64 0 l 1
 176 650 l 2
 188 715 224 790 304 788 c 0
 342 787 363 762 379 740 c 1
 372 733 l 1
EndSplineSet
EndChar

StartChar: s
Encoding: 115 115 43
Width: 391
VWidth: 0
Flags: HMW
LayerCount: 2
Fore
SplineSet
56 132 m 1
 58 68 84 0 174 0 c 0
 244 0 305 47 314 117 c 0
 323 181 270 211 210 231 c 0
 144 253 91 279 103 359 c 0
 113 427 174 468 240 468 c 0
 314 468 347 422 361 368 c 1
 351 365 l 1
 338 415 310 458 240 458 c 0
 179 459 123 421 113 359 c 0
 101 283 154 261 216 240 c 0
 276 220 333 186 324 117 c 0
 314 43 250 -10 174 -10 c 0
 78 -10 48 61 46 130 c 1
 56 132 l 1
EndSplineSet
EndChar

StartChar: y
Encoding: 121 121 44
Width: 412
VWidth: 0
Flags: HMW
LayerCount: 2
Fore
SplineSet
455 460 m 1
 46 -220 l 1
 36 -219 l 1
 180 20 l 1
 61 460 l 1
 72 460 l 1
 191 20 l 1
 180 20 l 1
 444 460 l 1
 455 460 l 1
EndSplineSet
EndChar

StartChar: w
Encoding: 119 119 45
Width: 601
VWidth: 0
Flags: HMW
LayerCount: 2
Fore
SplineSet
66 460 m 1
 76 460 l 1
 132 19 l 1
 350 476 l 1
 420 18 l 1
 630 460 l 1
 640 460 l 1
 414 -16 l 1
 345 440 l 1
 126 -16 l 1
 66 460 l 1
EndSplineSet
EndChar

StartChar: v
Encoding: 118 118 46
Width: 407
VWidth: 0
Flags: HMW
LayerCount: 2
Fore
SplineSet
64 460 m 1
 75 460 l 1
 188 10 l 1
 440 460 l 1
 452 460 l 1
 184 -15 l 1
 64 460 l 1
EndSplineSet
EndChar

StartChar: x
Encoding: 120 120 47
Width: 368
VWidth: 0
Flags: HMW
LayerCount: 2
Fore
SplineSet
389 459 m 1
 403 459 l 1
 210 236 l 1
 342 0 l 1
 328 0 l 1
 203 229 l 1
 7 0 l 1
 -8 0 l 1
 198 238 l 1
 73 460 l 1
 86 460 l 1
 205 245 l 1
 389 459 l 1
EndSplineSet
EndChar

StartChar: z
Encoding: 122 122 48
Width: 417
VWidth: 0
Flags: HMW
LayerCount: 2
Fore
SplineSet
417 450 m 1
 88 450 l 1
 90 460 l 1
 440 460 l 1
 14 10 l 1
 372 10 l 1
 371 0 l 1
 -8 0 l 1
 417 450 l 1
EndSplineSet
EndChar

StartChar: j
Encoding: 106 106 49
Width: 174
VWidth: 0
Flags: HMW
LayerCount: 2
Fore
SplineSet
164 695 m 0
 164 701 168 705 174 705 c 0
 180 705 184 701 184 695 c 0
 184 689 180 685 174 685 c 0
 168 685 164 689 164 695 c 0
-149 -165 m 1
 -135 -185 -114 -210 -82 -210 c 0
 -6 -210 26 -136 36 -82 c 2
 130 460 l 1
 140 460 l 1
 46 -82 l 2
 34 -147 -2 -220 -82 -220 c 0
 -120 -220 -141 -194 -157 -172 c 1
 -149 -165 l 1
EndSplineSet
EndChar

StartChar: P
Encoding: 80 80 50
Width: 465
VWidth: 0
Flags: HMW
LayerCount: 2
Fore
SplineSet
180 700 m 1
 191 700 l 1
 70 0 l 1
 60 0 l 1
 180 700 l 1
184 690 m 1
 186 700 l 1
 300 700 l 2
 420 700 494 616 476 497 c 0
 456 374 356 294 232 294 c 2
 117 294 l 1
 118 304 l 1
 233 304 l 2
 351 304 445 380 464 497 c 0
 482 611 416 690 300 690 c 2
 184 690 l 1
EndSplineSet
EndChar

StartChar: U
Encoding: 85 85 51
Width: 558
VWidth: 0
Flags: HMW
LayerCount: 2
Fore
SplineSet
176 700 m 1
 186 700 l 1
 104 220 l 2
 89 104 129 2 252 2 c 0
 375 2 456 98 476 220 c 2
 558 700 l 1
 570 700 l 1
 488 220 l 2
 467 92 386 -10 252 -10 c 0
 118 -10 77 98 93 220 c 2
 176 700 l 1
EndSplineSet
EndChar

StartChar: S
Encoding: 83 83 52
Width: 473
VWidth: 0
Flags: HMW
LayerCount: 2
Fore
SplineSet
62 192 m 1
 67 102 103 5 221 4 c 0
 329 3 406 76 422 172 c 0
 436 270 370 324 294 359 c 0
 208 398 128 450 144 552 c 0
 158 644 241 708 335 708 c 0
 435 708 479 634 488 564 c 1
 478 561 l 1
 468 626 430 696 334 696 c 0
 246 696 169 638 155 552 c 0
 139 455 215 406 300 368 c 0
 380 332 447 275 433 172 c 0
 417 70 334 -9 220 -8 c 0
 98 -7 59 91 52 189 c 1
 62 192 l 1
EndSplineSet
EndChar

StartChar: at
Encoding: 64 64 53
Width: 747
VWidth: 0
Flags: HMW
LayerCount: 2
Fore
SplineSet
237 320 m 0
 227 248 256 176 330 174 c 0
 422 172 498 276 512 370 c 0
 521 435 500 513 428 516 c 0
 336 520 251 429 237 320 c 0
226 320 m 0
 241 436 332 531 430 528 c 0
 510 526 531 441 521 367 c 0
 507 269 425 164 331 164 c 0
 250 164 216 238 226 320 c 0
61 320 m 0
 95 530 273 710 496 708 c 0
 686 707 779 546 753 390 c 0
 737 262 634 146 538 152 c 0
 469 156 474 224 490 290 c 1
 488 290 l 1
 567 520 l 1
 579 520 l 1
 498 289 l 2
 495 280 492 264 490 254 c 0
 484 219 486 168 540 164 c 0
 632 155 727 274 742 390 c 0
 768 540 679 695 495 697 c 0
 277 699 106 526 72 320 c 0
 46 146 128 6 318 4 c 0
 416 3 495 30 562 60 c 1
 567 50 l 1
 497 20 416 -8 316 -8 c 0
 119 -6 33 140 61 320 c 0
EndSplineSet
EndChar

StartChar: period
Encoding: 46 46 54
Width: 252
VWidth: 0
Flags: HMW
LayerCount: 2
Fore
SplineSet
88 1 m 0
 88 7 93 12 99 12 c 0
 105 12 110 7 110 1 c 0
 110 -5 105 -10 99 -10 c 0
 93 -10 88 -5 88 1 c 0
EndSplineSet
EndChar

StartChar: comma
Encoding: 44 44 55
Width: 267
VWidth: 0
Flags: HMW
LayerCount: 2
Fore
SplineSet
160 93 m 1
 170 88 l 1
 18 -160 l 1
 12 -158 l 1
 160 93 l 1
EndSplineSet
EndChar

StartChar: colon
Encoding: 58 58 56
Width: 291
VWidth: 0
Flags: HMW
LayerCount: 2
Fore
SplineSet
88 1 m 0
 88 7 93 12 99 12 c 0
 105 12 110 7 110 1 c 0
 110 -5 105 -10 99 -10 c 0
 93 -10 88 -5 88 1 c 0
148 349 m 0
 148 355 152 360 158 360 c 0
 164 360 170 355 170 349 c 0
 170 343 164 338 158 338 c 0
 152 338 148 343 148 349 c 0
EndSplineSet
EndChar

StartChar: semicolon
Encoding: 59 59 57
Width: 267
VWidth: 0
Flags: HMW
LayerCount: 2
Fore
SplineSet
176 349 m 0
 176 355 182 360 188 360 c 0
 194 360 198 355 198 349 c 0
 198 343 194 338 188 338 c 0
 182 338 176 343 176 349 c 0
160 93 m 1
 170 88 l 1
 18 -160 l 1
 12 -158 l 1
 160 93 l 1
EndSplineSet
EndChar

StartChar: quotedbl
Encoding: 34 34 58
Width: 391
VWidth: 0
Flags: HMW
LayerCount: 2
Fore
SplineSet
227 700 m 1
 240 700 l 1
 141 420 l 1
 134 420 l 1
 227 700 l 1
402 700 m 1
 415 700 l 1
 316 420 l 1
 308 420 l 1
 402 700 l 1
EndSplineSet
EndChar

StartChar: exclam
Encoding: 33 33 59
Width: 254
VWidth: 0
Flags: HMW
LayerCount: 2
Fore
SplineSet
213 700 m 1
 227 700 l 1
 137 200 l 1
 131 200 l 1
 213 700 l 1
88 1 m 0
 88 8 94 12 100 12 c 0
 106 12 110 8 110 1 c 0
 110 -6 106 -10 100 -10 c 0
 94 -10 88 -6 88 1 c 0
EndSplineSet
EndChar

StartChar: quotesingle
Encoding: 39 39 60
Width: 216
VWidth: 0
Flags: HMW
LayerCount: 2
Fore
SplineSet
227 700 m 1
 240 700 l 1
 141 420 l 1
 134 420 l 1
 227 700 l 1
EndSplineSet
EndChar

StartChar: numbersign
Encoding: 35 35 61
Width: 554
VWidth: 0
Flags: HMW
LayerCount: 2
Fore
SplineSet
123 454 m 1
 125 465 l 1
 572 465 l 1
 570 454 l 1
 458 454 l 1
 454 454 l 1
 253 454 l 1
 250 454 l 1
 123 454 l 1
48 240 m 1
 50 251 l 1
 166 251 l 1
 170 251 l 1
 368 251 l 1
 374 251 l 1
 497 251 l 1
 496 240 l 1
 48 240 l 1
549 700 m 1
 560 700 l 1
 274 0 l 1
 263 0 l 1
 362 244 l 1
 364 246 l 1
 450 458 l 1
 451 462 l 1
 549 700 l 1
345 700 m 1
 356 700 l 1
 258 462 l 1
 257 458 l 1
 170 244 l 1
 170 243 l 1
 70 0 l 1
 60 0 l 1
 345 700 l 1
EndSplineSet
EndChar

StartChar: hyphen
Encoding: 45 45 62
Width: 203
VWidth: 0
Flags: HMW
LayerCount: 2
Fore
SplineSet
23 265 m 1
 24 275 l 1
 219 275 l 1
 217 265 l 1
 23 265 l 1
EndSplineSet
EndChar

StartChar: dollar
Encoding: 36 36 63
Width: 562
VWidth: 0
Flags: HMW
LayerCount: 2
Fore
SplineSet
350 818 m 1
 360 818 l 1
 340 700 l 1
 330 700 l 1
 350 818 l 1
226 -2 m 1
 236 -2 l 1
 218 -112 l 1
 208 -112 l 1
 226 -2 l 1
484 548 m 1
 473 620 432 696 336 696 c 0
 248 696 169 634 156 550 c 0
 142 454 226 402 304 368 c 0
 385 333 453 275 440 175 c 0
 426 75 354 -9 230 -8 c 0
 111 -7 68 97 52 193 c 1
 62 197 l 1
 76 105 116 5 230 4 c 0
 346 3 416 77 430 175 c 0
 442 270 372 326 298 359 c 0
 220 393 130 448 144 550 c 0
 157 642 244 708 337 708 c 0
 440 708 484 626 494 550 c 1
 484 548 l 1
EndSplineSet
EndChar

StartChar: bar
Encoding: 124 124 64
Width: 203
VWidth: 0
Flags: HMW
LayerCount: 2
Fore
SplineSet
201 785 m 1
 211 785 l 1
 56 -215 l 1
 46 -215 l 1
 201 785 l 1
EndSplineSet
EndChar

StartChar: zero
Encoding: 48 48 65
Width: 533
VWidth: 0
Flags: HMW
LayerCount: 2
Fore
SplineSet
97 350 m 0
 81 208 89 1 239 0 c 0
 389 -1 480 190 502 350 c 0
 518 492 510 699 360 700 c 0
 210 701 119 510 97 350 c 0
86 350 m 0
 110 519 204 711 360 710 c 0
 518 709 531 502 513 350 c 0
 489 181 394 -11 238 -10 c 0
 80 -9 68 198 86 350 c 0
EndSplineSet
Substitution2: "Tabular Numbers lookup" uniFF10
EndChar

StartChar: one
Encoding: 49 49 66
Width: 397
VWidth: 0
Flags: HMW
LayerCount: 2
Fore
SplineSet
176 654 m 1
 178 666 l 1
 360 705 l 1
 239 0 l 1
 230 0 l 1
 348 690 l 1
 176 654 l 1
EndSplineSet
Substitution2: "Tabular Numbers lookup" uniFF11
EndChar

StartChar: two
Encoding: 50 50 67
Width: 498
VWidth: 0
Flags: HMW
LayerCount: 2
Fore
SplineSet
7 0 m 1
 368 334 l 2
 422 385 478 438 490 519 c 0
 504 602 462 700 346 700 c 0
 219 701 138 585 116 460 c 1
 106 460 l 1
 129 592 214 711 346 710 c 0
 466 709 514 607 500 519 c 0
 488 439 434 380 378 328 c 2
 34 10 l 1
 450 10 l 1
 448 0 l 1
 7 0 l 1
EndSplineSet
Substitution2: "Tabular Numbers lookup" uniFF12
EndChar

StartChar: four
Encoding: 52 52 68
Width: 536
VWidth: 0
Flags: HMW
LayerCount: 2
Fore
SplineSet
21 140 m 1
 488 700 l 1
 490 700 l 1
 369 0 l 1
 358 0 l 1
 384 142 l 1
 384 147 l 1
 473 664 l 1
 42 150 l 1
 388 150 l 1
 391 150 l 1
 501 150 l 1
 500 140 l 1
 21 140 l 1
EndSplineSet
Substitution2: "Tabular Numbers lookup" uniFF14
EndChar

StartChar: slash
Encoding: 47 47 69
Width: 460
VWidth: 0
Flags: HMW
LayerCount: 2
Fore
SplineSet
528 700 m 1
 540 699 l 1
 -27 -150 l 1
 -39 -149 l 1
 528 700 l 1
EndSplineSet
EndChar

StartChar: backslash
Encoding: 92 92 70
Width: 422
VWidth: 0
Flags: HMW
LayerCount: 2
Fore
SplineSet
107 700 m 1
 120 700 l 1
 380 0 l 1
 368 0 l 1
 107 700 l 1
EndSplineSet
EndChar

StartChar: eight
Encoding: 56 56 71
Width: 500
VWidth: 0
Flags: HMW
LayerCount: 2
Fore
SplineSet
148 541 m 0
 162 629 246 710 344 710 c 0
 440 710 498 625 484 540 c 0
 470 447 376 368 286 368 c 0
 198 368 135 451 148 541 c 0
157 541 m 0
 145 457 208 377 286 376 c 0
 366 375 460 453 474 541 c 0
 488 622 435 700 344 700 c 0
 252 700 171 625 157 541 c 0
67 185 m 0
 84 288 183 372 286 372 c 0
 387 372 456 285 442 185 c 0
 426 79 340 -10 222 -10 c 0
 104 -10 51 83 67 185 c 0
77 185 m 0
 61 87 112 0 222 0 c 0
 332 0 416 83 432 185 c 0
 446 280 380 364 286 364 c 0
 190 364 93 284 77 185 c 0
EndSplineSet
Substitution2: "Tabular Numbers lookup" uniFF18
EndChar

StartChar: nine
Encoding: 57 57 72
Width: 520
VWidth: 0
Flags: HMW
LayerCount: 2
Fore
SplineSet
519 480 m 0
 535 594 474 700 351 700 c 0
 227 700 132 600 115 480 c 0
 101 376 166 276 274 274 c 0
 404 272 501 372 519 480 c 0
182 0 m 1
 170 0 l 1
 458 345 l 1
 460 344 l 1
 411 296 348 262 274 263 c 0
 159 265 91 370 105 480 c 0
 122 606 220 710 352 710 c 0
 484 710 545 602 528 480 c 0
 518 422 485 363 450 321 c 2
 182 0 l 1
EndSplineSet
Substitution2: "Tabular Numbers lookup" uniFF19
EndChar

StartChar: three
Encoding: 51 51 73
Width: 534
VWidth: 0
Flags: HMW
LayerCount: 2
Fore
SplineSet
279 362 m 1
 280 370 l 1
 375 376 491 429 508 533 c 0
 522 617 467 699 365 700 c 0
 257 701 186 621 165 526 c 1
 155 526 l 1
 176 628 252 710 366 710 c 0
 474 710 532 624 518 534 c 0
 500 424 385 367 279 362 c 1
252 -10 m 0
 126 -10 65 77 75 185 c 1
 84 185 l 1
 74 81 130 0 252 0 c 0
 364 0 457 74 472 175 c 0
 488 294 372 354 278 360 c 1
 280 368 l 1
 385 362 500 299 482 175 c 0
 466 67 370 -10 252 -10 c 0
EndSplineSet
Substitution2: "Tabular Numbers lookup" uniFF13
EndChar

StartChar: five
Encoding: 53 53 74
Width: 540
VWidth: 0
Flags: HMW
LayerCount: 2
Fore
SplineSet
493 230 m 0
 475 88 368 -10 238 -10 c 0
 137 -10 83 49 58 137 c 1
 66 142 l 1
 91 57 140 0 238 0 c 0
 363 0 466 95 484 230 c 0
 498 336 440 434 332 436 c 0
 244 437 173 390 115 328 c 1
 262 700 l 1
 582 700 l 1
 581 690 l 1
 268 690 l 1
 137 360 l 1
 181 406 249 447 332 446 c 0
 446 444 507 344 493 230 c 0
EndSplineSet
Substitution2: "Tabular Numbers lookup" uniFF15
EndChar

StartChar: six
Encoding: 54 54 75
Width: 520
VWidth: 0
Flags: HMW
LayerCount: 2
Fore
SplineSet
75 220 m 0
 59 106 119 0 242 0 c 0
 366 0 462 100 479 220 c 0
 493 324 428 424 320 426 c 0
 190 428 93 328 75 220 c 0
411 699 m 1
 424 699 l 1
 134 354 l 1
 134 356 l 1
 183 404 246 438 320 437 c 0
 435 435 502 330 488 220 c 0
 471 94 374 -10 242 -10 c 0
 110 -10 48 98 65 220 c 0
 75 278 109 337 144 379 c 2
 411 699 l 1
EndSplineSet
Substitution2: "Tabular Numbers lookup" uniFF16
EndChar

StartChar: seven
Encoding: 55 55 76
Width: 499
VWidth: 0
Flags: HMW
LayerCount: 2
Fore
SplineSet
123 690 m 1
 124 700 l 1
 582 700 l 1
 114 0 l 1
 102 0 l 1
 564 690 l 1
 123 690 l 1
EndSplineSet
Substitution2: "Tabular Numbers lookup" uniFF17
EndChar

StartChar: plus
Encoding: 43 43 77
Width: 533
VWidth: 0
Flags: HMW
LayerCount: 2
Fore
SplineSet
78 250 m 1
 80 260 l 1
 478 260 l 1
 476 250 l 1
 78 250 l 1
312 480 m 1
 322 480 l 1
 244 30 l 1
 234 30 l 1
 312 480 l 1
EndSplineSet
EndChar

StartChar: equal
Encoding: 61 61 78
Width: 596
VWidth: 0
Flags: HMW
LayerCount: 2
Fore
SplineSet
68 185 m 1
 69 195 l 1
 540 195 l 1
 538 185 l 1
 68 185 l 1
89 310 m 1
 90 320 l 1
 562 320 l 1
 560 310 l 1
 89 310 l 1
EndSplineSet
EndChar

StartChar: percent
Encoding: 37 37 79
Width: 680
VWidth: 0
Flags: HMW
LayerCount: 2
Fore
SplineSet
102 560 m 0
 115 640 183 710 271 710 c 0
 358 710 402 638 390 560 c 0
 377 480 309 410 221 410 c 0
 134 410 90 482 102 560 c 0
112 560 m 0
 100 490 140 420 222 420 c 0
 304 420 368 486 380 560 c 0
 392 631 351 700 270 700 c 0
 188 700 124 634 112 560 c 0
356 140 m 0
 369 220 436 290 524 290 c 0
 611 290 656 218 644 140 c 0
 631 60 562 -10 474 -10 c 0
 387 -10 344 62 356 140 c 0
366 140 m 0
 354 70 392 0 474 -0 c 0
 556 -0 622 66 634 140 c 0
 646 211 605 280 524 280 c 0
 442 280 378 214 366 140 c 0
648 699 m 1
 660 699 l 1
 97 0 l 1
 84 0 l 1
 648 699 l 1
EndSplineSet
EndChar

StartChar: ampersand
Encoding: 38 38 80
Width: 655
VWidth: 0
Flags: HMW
LayerCount: 2
Fore
SplineSet
226 427 m 2
 198 469 176 514 184 576 c 0
 196 651 261 712 352 710 c 0
 437 709 476 640 466 574 c 0
 453 498 381 448 298 400 c 0
 210 350 77 305 58 173 c 0
 43 68 115 0 220 0 c 0
 398 -1 507 188 617 316 c 1
 624 310 l 1
 512 180 404 -10 220 -10 c 0
 110 -10 32 62 48 173 c 0
 67 309 205 359 292 407 c 0
 372 452 443 503 456 574 c 0
 466 634 432 698 352 700 c 0
 267 702 206 644 194 576 c 0
 186 516 208 475 234 435 c 2
 538 0 l 1
 525 0 l 1
 226 427 l 2
EndSplineSet
EndChar

StartChar: question
Encoding: 63 63 81
Width: 525
VWidth: 0
Flags: HMW
LayerCount: 2
Fore
SplineSet
500 520 m 0
 516 616 460 700 349 700 c 0
 259 700 196 650 144 588 c 1
 136 594 l 1
 190 658 256 710 350 710 c 0
 466 709 527 624 510 520 c 0
 490 414 378 345 258 337 c 1
 230 170 l 1
 222 170 l 1
 247 345 l 1
 248 345 l 1
 369 351 480 415 500 520 c 0
180 1 m 0
 180 7 186 12 192 12 c 0
 198 12 202 7 202 1 c 0
 202 -6 197 -10 191 -10 c 0
 185 -10 180 -6 180 1 c 0
EndSplineSet
EndChar

StartChar: parenleft
Encoding: 40 40 82
Width: 232
VWidth: 0
Flags: HMW
LayerCount: 2
Fore
SplineSet
302 780 m 1
 308 780 l 1
 214 626 151 464 124 290 c 0
 100 126 110 -37 156 -200 c 1
 151 -200 l 1
 98 -42 90 126 114 290 c 0
 141 464 203 633 302 780 c 1
EndSplineSet
EndChar

StartChar: parenright
Encoding: 41 41 83
Width: 232
VWidth: 0
Flags: HMW
LayerCount: 2
Fore
SplineSet
-14 -200 m 1
 -20 -200 l 1
 74 -46 136 116 163 290 c 0
 187 454 178 617 132 780 c 1
 137 780 l 1
 190 622 198 454 174 290 c 0
 147 116 85 -53 -14 -200 c 1
EndSplineSet
EndChar

StartChar: asterisk
Encoding: 42 42 84
Width: 574
VWidth: 0
Flags: HMW
LayerCount: 2
Fore
SplineSet
520 584 m 1
 521 572 l 1
 350 522 l 1
 348 528 l 1
 520 584 l 1
431 387 m 1
 420 380 l 1
 347 522 l 1
 352 527 l 1
 431 387 l 1
230 381 m 1
 220 388 l 1
 348 527 l 1
 351 522 l 1
 230 381 l 1
194 573 m 1
 200 584 l 1
 352 528 l 1
 349 522 l 1
 194 573 l 1
374 700 m 1
 386 700 l 1
 352 526 l 1
 346 526 l 1
 374 700 l 1
EndSplineSet
EndChar

StartChar: less
Encoding: 60 60 85
Width: 621
VWidth: 0
Flags: HMW
LayerCount: 2
Fore
SplineSet
96 256 m 1
 540 55 l 1
 539 46 l 1
 79 254 l 1
 80 260 l 1
 611 470 l 1
 610 460 l 1
 96 256 l 1
EndSplineSet
EndChar

StartChar: greater
Encoding: 62 62 86
Width: 621
VWidth: 0
Flags: HMW
LayerCount: 2
Fore
SplineSet
558 258 m 1
 114 460 l 1
 116 470 l 1
 576 261 l 1
 574 255 l 1
 44 46 l 1
 45 56 l 1
 558 258 l 1
EndSplineSet
EndChar

StartChar: bracketleft
Encoding: 91 91 87
Width: 252
VWidth: 0
Flags: HMW
LayerCount: 2
Fore
SplineSet
210 769 m 1
 58 -209 l 1
 184 -209 l 1
 182 -220 l 1
 46 -220 l 1
 200 780 l 1
 336 780 l 1
 334 769 l 1
 210 769 l 1
EndSplineSet
EndChar

StartChar: bracketright
Encoding: 93 93 88
Width: 252
VWidth: 0
Flags: HMW
LayerCount: 2
Fore
SplineSet
95 -209 m 1
 246 769 l 1
 120 769 l 1
 122 780 l 1
 258 780 l 1
 104 -220 l 1
 -32 -220 l 1
 -30 -209 l 1
 95 -209 l 1
EndSplineSet
EndChar

StartChar: asciicircum
Encoding: 94 94 89
Width: 494
VWidth: 0
Flags: HMW
LayerCount: 2
Fore
SplineSet
338 692 m 1
 128 461 l 1
 114 461 l 1
 341 709 l 1
 340 709 l 1
 484 460 l 1
 470 460 l 1
 338 692 l 1
EndSplineSet
EndChar

StartChar: underscore
Encoding: 95 95 90
Width: 485
VWidth: 0
Flags: HMW
LayerCount: 2
Fore
SplineSet
-46 -109 m 1
 -44 -98 l 1
 442 -98 l 1
 440 -109 l 1
 -46 -109 l 1
EndSplineSet
EndChar

StartChar: grave
Encoding: 96 96 91
Width: 342
VWidth: 0
Flags: HMW
LayerCount: 2
Fore
SplineSet
186 692 m 1
 194 700 l 1
 336 540 l 1
 331 536 l 1
 186 692 l 1
EndSplineSet
EndChar

StartChar: braceleft
Encoding: 123 123 92
Width: 272
VWidth: 0
Flags: HMW
LayerCount: 2
Fore
SplineSet
225 640 m 2
 193 430 l 2
 183 356 148 302 104 288 c 1
 106 292 l 1
 144 274 158 220 150 150 c 2
 117 -60 l 2
 109 -134 109 -190 178 -190 c 2
 198 -190 l 1
 196 -200 l 1
 176 -200 l 2
 99 -200 100 -138 108 -60 c 2
 140 150 l 2
 147 212 136 259 104 285 c 1
 106 295 l 1
 146 317 173 364 183 430 c 2
 215 640 l 2
 226 723 251 780 327 780 c 2
 347 780 l 1
 346 770 l 1
 326 770 l 2
 258 770 235 718 225 640 c 2
EndSplineSet
EndChar

StartChar: braceright
Encoding: 125 125 93
Width: 272
VWidth: 0
Flags: HMW
LayerCount: 2
Fore
SplineSet
102 -60 m 2
 134 150 l 2
 144 224 179 278 223 292 c 1
 222 288 l 1
 184 306 170 360 178 430 c 2
 210 640 l 2
 218 714 219 770 150 770 c 2
 130 770 l 1
 132 780 l 1
 151 780 l 2
 228 780 228 718 220 640 c 2
 188 430 l 2
 181 368 192 321 224 295 c 1
 222 285 l 1
 182 263 155 216 145 150 c 2
 113 -60 l 2
 102 -143 76 -200 0 -200 c 2
 -19 -200 l 1
 -18 -190 l 1
 2 -190 l 2
 70 -190 92 -138 102 -60 c 2
EndSplineSet
EndChar

StartChar: asciitilde
Encoding: 126 126 94
Width: 558
VWidth: 0
Flags: HMW
LayerCount: 2
Fore
SplineSet
96 178 m 1
 86 182 l 1
 86 190 85 198 86 206 c 0
 91 238 105 268 126 290 c 0
 147 312 178 326 212 326 c 0
 265 326 291 284 314 250 c 0
 334 220 358 182 402 182 c 0
 460 181 496 234 504 290 c 0
 506 299 506 310 504 320 c 1
 514 318 l 1
 514 310 516 300 514 290 c 0
 510 260 498 228 479 207 c 0
 461 187 432 172 402 172 c 0
 354 172 329 210 306 243 c 0
 284 274 261 316 211 316 c 0
 145 316 103 261 95 200 c 0
 94 193 95 186 96 178 c 1
EndSplineSet
EndChar

StartChar: exclamdown
Encoding: 161 161 95
Width: 291
VWidth: 0
Flags: HMW
LayerCount: 2
Fore
SplineSet
102 -244 m 1
 88 -244 l 1
 178 254 l 1
 184 254 l 1
 102 -244 l 1
225 454 m 0
 225 448 218 443 212 443 c 0
 206 443 204 448 204 454 c 0
 204 460 210 465 216 465 c 0
 222 465 225 460 225 454 c 0
EndSplineSet
EndChar

StartChar: cent
Encoding: 162 162 96
Width: 562
VWidth: 0
Flags: HMW
LayerCount: 2
Fore
SplineSet
280 -4 m 1
 284 -4 l 1
 268 -112 l 1
 255 -112 l 1
 280 -4 l 1
105 230 m 0
 87 112 156 0 282 0 c 0
 350 0 408 32 444 60 c 1
 442 48 l 1
 406 20 348 -10 282 -10 c 0
 150 -10 78 105 96 230 c 0
 117 362 228 470 362 470 c 0
 424 470 476 443 504 412 c 1
 502 400 l 1
 476 432 424 460 362 460 c 0
 234 460 125 354 105 230 c 0
374 578 m 1
 388 578 l 1
 362 464 l 1
 358 464 l 1
 374 578 l 1
EndSplineSet
EndChar

StartChar: sterling
Encoding: 163 163 97
Width: 562
VWidth: 0
Flags: HMW
LayerCount: 2
Fore
SplineSet
109 305 m 1
 410 305 l 1
 408 295 l 1
 108 295 l 1
 109 305 l 1
524 498 m 1
 532 578 511 699 395 700 c 0
 297 701 220 620 206 538 c 0
 190 429 293 365 278 264 c 0
 260 154 131 64 78 0 c 1
 76 10 l 1
 457 10 l 1
 456 0 l 1
 64 0 l 1
 145 90 250 162 268 264 c 0
 283 362 180 428 196 538 c 0
 211 628 292 710 396 710 c 0
 522 710 542 581 534 498 c 1
 524 498 l 1
EndSplineSet
EndChar

StartChar: currency
Encoding: 164 164 98
Width: 543
VWidth: 0
Flags: HMW
LayerCount: 2
Fore
SplineSet
117 523 m 1
 128 533 l 1
 180 469 l 1
 169 460 l 1
 117 523 l 1
49 68 m 1
 41 78 l 1
 114 140 l 1
 122 130 l 1
 49 68 l 1
487 460 m 1
 478 470 l 1
 552 532 l 1
 560 522 l 1
 487 460 l 1
421 131 m 1
 432 140 l 1
 483 77 l 1
 473 67 l 1
 421 131 l 1
74 300 m 0
 94 430 206 540 336 540 c 0
 464 540 536 424 518 300 c 0
 498 170 386 60 256 60 c 0
 128 60 56 176 74 300 c 0
84 300 m 0
 66 184 134 70 256 70 c 0
 380 70 488 177 508 300 c 0
 526 416 458 530 336 530 c 0
 212 530 104 423 84 300 c 0
EndSplineSet
EndChar

StartChar: yen
Encoding: 165 165 99
Width: 548
VWidth: 0
Flags: HMW
LayerCount: 2
Fore
SplineSet
48 270 m 1
 50 280 l 1
 512 280 l 1
 511 270 l 1
 48 270 l 1
26 145 m 1
 28 155 l 1
 492 155 l 1
 490 145 l 1
 26 145 l 1
572 699 m 1
 585 699 l 1
 279 264 l 1
 234 0 l 1
 222 0 l 1
 270 268 l 1
 122 700 l 1
 134 700 l 1
 276 282 l 1
 572 699 l 1
EndSplineSet
EndChar

StartChar: brokenbar
Encoding: 166 166 100
Width: 203
VWidth: 0
Flags: HMW
LayerCount: 2
Fore
SplineSet
190 694 m 1
 200 694 l 1
 156 456 l 1
 146 456 l 1
 190 694 l 1
122 244 m 1
 80 6 l 1
 70 6 l 1
 112 244 l 1
 122 244 l 1
EndSplineSet
EndChar

StartChar: section
Encoding: 167 167 101
Width: 386
VWidth: 0
Flags: HMW
LayerCount: 2
Fore
SplineSet
425 616 m 1
 406 668 351 700 290 700 c 0
 230 700 152 667 142 599 c 0
 132 531 223 505 272 483 c 0
 330 457 402 427 392 360 c 0
 380 276 301 244 213 240 c 1
 212 240 l 1
 292 260 372 286 382 360 c 0
 390 420 313 454 264 475 c 0
 206 499 120 524 132 599 c 0
 143 672 218 710 290 710 c 0
 358 710 414 675 432 620 c 1
 425 616 l 1
32 127 m 1
 40 57 99 1 181 0 c 0
 244 -1 326 26 338 100 c 0
 350 176 274 206 216 233 c 0
 160 259 81 292 91 360 c 0
 104 432 177 476 271 480 c 1
 272 480 l 1
 188 463 111 422 101 358 c 0
 93 294 176 263 224 241 c 0
 285 213 360 181 348 100 c 0
 336 24 256 -10 180 -10 c 0
 97 -10 31 47 23 123 c 1
 32 127 l 1
EndSplineSet
EndChar

StartChar: dieresis
Encoding: 168 168 102
Width: 409
VWidth: 0
Flags: HMW
LayerCount: 2
Fore
SplineSet
380 689 m 0
 380 695 386 700 392 700 c 0
 398 700 402 695 402 689 c 0
 402 683 395 678 389 678 c 0
 383 678 380 683 380 689 c 0
186 689 m 0
 186 695 192 700 198 700 c 0
 204 700 208 695 208 689 c 0
 208 683 201 678 195 678 c 0
 189 678 186 683 186 689 c 0
EndSplineSet
EndChar

StartChar: copyright
Encoding: 169 169 103
Width: 776
VWidth: 0
Flags: HMW
LayerCount: 2
Fore
SplineSet
229 350 m 0
 215 244 269 143 382 142 c 0
 438 142 482 162 522 192 c 1
 520 182 l 1
 480 154 438 136 382 136 c 0
 265 137 207 238 222 350 c 0
 238 467 329 564 447 564 c 0
 501 564 538 548 572 518 c 1
 570 508 l 1
 538 541 498 558 447 558 c 0
 333 558 245 464 229 350 c 0
86 350 m 0
 60 165 178 0 370 0 c 0
 566 0 736 157 764 350 c 0
 790 535 672 700 480 700 c 0
 284 700 114 543 86 350 c 0
76 350 m 0
 105 550 275 710 480 710 c 0
 682 710 800 542 774 350 c 0
 745 150 575 -10 370 -10 c 0
 168 -10 50 158 76 350 c 0
EndSplineSet
EndChar

StartChar: registered
Encoding: 174 174 104
Width: 776
VWidth: 0
Flags: HMW
LayerCount: 2
Fore
SplineSet
389 340 m 1
 397 340 l 1
 498 150 l 1
 488 150 l 1
 389 340 l 1
362 570 m 1
 370 570 l 1
 304 150 l 1
 296 150 l 1
 362 570 l 1
362 563 m 1
 362 570 l 1
 428 570 l 1
 502 568 560 529 549 454 c 0
 538 378 469 340 393 338 c 1
 327 338 l 1
 328 344 l 1
 394 344 l 1
 468 346 532 382 542 454 c 0
 552 526 499 560 428 562 c 1
 362 563 l 1
86 350 m 0
 60 165 178 0 370 0 c 0
 566 0 736 157 764 350 c 0
 790 535 672 700 480 700 c 0
 284 700 114 543 86 350 c 0
76 350 m 0
 105 550 275 710 480 710 c 0
 682 710 800 542 774 350 c 0
 745 150 575 -10 370 -10 c 0
 168 -10 50 158 76 350 c 0
EndSplineSet
EndChar

StartChar: ordfeminine
Encoding: 170 170 105
Width: 230
VWidth: 0
Flags: HMW
LayerCount: 2
Fore
SplineSet
92 528 m 0
 86 486 114 461 150 460 c 0
 196 459 231 501 243 540 c 1
 246 539 l 1
 234 498 201 455 150 456 c 0
 111 457 82 484 88 528 c 0
 95 573 144 600 188 600 c 0
 218 600 236 588 250 578 c 1
 250 572 l 1
 235 584 216 596 188 596 c 0
 147 597 98 571 92 528 c 0
132 662 m 1
 129 666 l 1
 149 681 177 702 210 700 c 0
 253 698 266 664 262 625 c 1
 233 460 l 1
 228 460 l 1
 258 625 l 1
 262 662 250 692 210 694 c 0
 179 696 152 678 132 662 c 1
EndSplineSet
EndChar

StartChar: ordmasculine
Encoding: 186 186 106
Width: 269
VWidth: 0
Flags: HMW
LayerCount: 2
Fore
SplineSet
91 580 m 0
 101 646 159 700 227 700 c 0
 294 700 332 644 322 580 c 0
 312 514 254 460 186 460 c 0
 119 460 81 516 91 580 c 0
100 580 m 0
 91 522 127 471 187 470 c 0
 247 469 303 520 313 580 c 0
 322 638 286 689 226 690 c 0
 166 691 110 640 100 580 c 0
EndSplineSet
EndChar

StartChar: guillemotleft
Encoding: 171 171 107
Width: 470
VWidth: 0
Flags: HMW
LayerCount: 2
Fore
SplineSet
220 255 m 1
 380 27 l 1
 372 20 l 1
 210 256 l 1
 452 489 l 1
 458 482 l 1
 220 255 l 1
64 255 m 1
 225 27 l 1
 218 20 l 1
 55 256 l 1
 298 489 l 1
 304 482 l 1
 64 255 l 1
EndSplineSet
EndChar

StartChar: guillemotright
Encoding: 187 187 108
Width: 470
VWidth: 0
Flags: HMW
LayerCount: 2
Fore
SplineSet
284 255 m 1
 123 483 l 1
 130 490 l 1
 294 254 l 1
 50 21 l 1
 45 28 l 1
 284 255 l 1
439 255 m 1
 278 483 l 1
 286 490 l 1
 448 254 l 1
 206 21 l 1
 200 28 l 1
 439 255 l 1
EndSplineSet
EndChar

StartChar: uni00AD
Encoding: 173 173 109
Width: 203
VWidth: 0
Flags: HMW
LayerCount: 2
Fore
SplineSet
23 265 m 1
 24 275 l 1
 219 275 l 1
 217 265 l 1
 23 265 l 1
EndSplineSet
EndChar

StartChar: logicalnot
Encoding: 172 172 110
Width: 601
VWidth: 0
Flags: HMW
LayerCount: 2
Fore
SplineSet
98 365 m 1
 100 375 l 1
 576 375 l 1
 540 176 l 1
 530 176 l 1
 564 365 l 1
 98 365 l 1
EndSplineSet
EndChar

StartChar: macron
Encoding: 175 175 111
Width: 494
VWidth: 0
Flags: HMW
LayerCount: 2
Fore
SplineSet
163 665 m 1
 164 675 l 1
 504 675 l 1
 502 665 l 1
 163 665 l 1
EndSplineSet
EndChar

StartChar: degree
Encoding: 176 176 112
Width: 269
VWidth: 0
Flags: HMW
LayerCount: 2
Fore
SplineSet
94 600 m 0
 104 666 162 720 230 720 c 0
 297 720 336 664 326 600 c 0
 316 534 258 480 190 480 c 0
 123 480 84 536 94 600 c 0
104 600 m 0
 95 542 130 491 190 490 c 0
 250 489 306 540 316 600 c 0
 325 658 290 709 230 710 c 0
 170 711 114 660 104 600 c 0
EndSplineSet
EndChar

StartChar: plusminus
Encoding: 177 177 113
Width: 591
VWidth: 0
Flags: HMW
LayerCount: 2
Fore
SplineSet
46 0 m 1
 48 10 l 1
 514 10 l 1
 512 0 l 1
 46 0 l 1
104 380 m 1
 106 390 l 1
 572 390 l 1
 570 380 l 1
 104 380 l 1
370 620 m 1
 380 620 l 1
 306 150 l 1
 296 150 l 1
 370 620 l 1
EndSplineSet
EndChar

StartChar: uni00B2
Encoding: 178 178 114
Width: 322
VWidth: 0
Flags: HMW
LayerCount: 2
Fore
SplineSet
50 282 m 1
 270 483 l 2
 302 513 337 546 345 594 c 0
 354 643 329 701 260 702 c 0
 184 704 136 633 120 559 c 1
 114 559 l 1
 130 637 180 710 260 708 c 0
 332 707 360 646 351 594 c 0
 343 546 310 510 276 479 c 2
 66 288 l 1
 315 288 l 1
 314 282 l 1
 50 282 l 1
EndSplineSet
EndChar

StartChar: uni00B3
Encoding: 179 179 115
Width: 298
VWidth: 0
Flags: HMW
LayerCount: 2
Fore
SplineSet
193 498 m 1
 194 502 l 1
 251 507 320 538 332 600 c 0
 341 650 310 699 250 700 c 0
 185 701 141 653 126 597 c 1
 120 597 l 1
 136 657 181 707 250 706 c 0
 315 705 348 653 338 600 c 0
 326 534 257 502 193 498 c 1
174 274 m 0
 97 274 64 327 69 391 c 1
 75 391 l 1
 71 329 100 280 174 280 c 0
 241 280 298 325 308 385 c 0
 319 457 250 490 194 496 c 1
 194 500 l 1
 256 494 326 459 314 384 c 0
 304 320 244 274 174 274 c 0
EndSplineSet
EndChar

StartChar: acute
Encoding: 180 180 116
Width: 342
VWidth: 0
Flags: HMW
LayerCount: 2
Fore
SplineSet
336 691 m 1
 142 536 l 1
 138 541 l 1
 328 699 l 1
 336 691 l 1
EndSplineSet
EndChar

StartChar: mu
Encoding: 181 181 117
Width: 460
VWidth: 0
Flags: HMW
LayerCount: 2
Fore
SplineSet
144 460 m 1
 88 141 l 1
 80 65 99 0 184 0 c 0
 278 -1 355 82 369 172 c 2
 420 460 l 1
 430 460 l 1
 351 0 l 1
 341 0 l 1
 361 122 l 1
 332 48 268 -11 183 -10 c 0
 116 -10 87 27 79 78 c 1
 10 -320 l 1
 0 -320 l 1
 134 460 l 1
 144 460 l 1
EndSplineSet
EndChar

StartChar: paragraph
Encoding: 182 182 118
Width: 434
VWidth: 0
Flags: HMW
LayerCount: 2
Fore
SplineSet
298 270 m 1
 176 277 94 356 114 485 c 0
 136 619 244 700 372 700 c 2
 470 700 l 1
 312 -220 l 1
 302 -220 l 1
 458 690 l 1
 381 690 l 1
 224 -220 l 1
 214 -220 l 1
 298 270 l 1
EndSplineSet
EndChar

StartChar: periodcentered
Encoding: 183 183 119
Width: 234
VWidth: 0
Flags: HMW
LayerCount: 2
Fore
SplineSet
117 221 m 0
 117 227 124 232 130 232 c 0
 136 232 139 227 139 221 c 0
 139 215 132 210 126 210 c 0
 120 210 117 215 117 221 c 0
EndSplineSet
EndChar

StartChar: uni00B9
Encoding: 185 185 120
Width: 456
VWidth: 0
Flags: HMW
LayerCount: 2
Fore
SplineSet
226 666 m 1
 226 674 l 1
 336 697 l 1
 262 274 l 1
 256 274 l 1
 328 688 l 1
 226 666 l 1
EndSplineSet
EndChar

StartChar: cedilla
Encoding: 184 184 121
Width: 339
VWidth: 0
Flags: HMW
LayerCount: 2
Fore
SplineSet
144 0 m 1
 156 0 l 1
 88 -76 l 1
 112 -63 131 -50 160 -52 c 0
 196 -54 223 -84 218 -126 c 0
 211 -183 152 -220 98 -220 c 0
 64 -220 42 -206 18 -182 c 1
 26 -176 l 1
 50 -197 70 -210 100 -210 c 0
 148 -210 202 -178 209 -126 c 0
 213 -89 189 -64 158 -62 c 0
 128 -60 99 -74 75 -88 c 1
 144 0 l 1
EndSplineSet
EndChar

StartChar: questiondown
Encoding: 191 191 122
Width: 525
VWidth: 0
Flags: HMW
LayerCount: 2
Fore
SplineSet
91 180 m 0
 72 84 133 0 242 0 c 0
 332 0 394 50 446 112 c 1
 455 106 l 1
 401 42 336 -10 242 -10 c 0
 126 -9 64 76 81 180 c 0
 101 286 212 355 332 363 c 1
 362 530 l 1
 369 530 l 1
 345 355 l 1
 345 356 l 1
 187 345 104 259 91 180 c 0
410 699 m 0
 410 693 404 688 398 688 c 0
 392 688 389 693 389 699 c 0
 389 705 396 710 402 710 c 0
 408 710 410 705 410 699 c 0
EndSplineSet
EndChar

StartChar: multiply
Encoding: 215 215 123
Width: 560
VWidth: 0
Flags: HMW
LayerCount: 2
Fore
SplineSet
66 47 m 1
 60 54 l 1
 292 254 l 1
 128 456 l 1
 136 463 l 1
 297 260 l 1
 528 462 l 1
 534 455 l 1
 302 254 l 1
 464 53 l 1
 457 46 l 1
 296 248 l 1
 66 47 l 1
EndSplineSet
EndChar

StartChar: Oslash
Encoding: 216 216 124
Width: 766
VWidth: 0
Flags: HMW
LayerCount: 2
Fore
SplineSet
92 350 m 0
 66 172 156 3 348 3 c 0
 542 3 694 162 724 350 c 0
 750 528 660 697 468 697 c 0
 274 697 122 538 92 350 c 0
81 350 m 0
 111 546 270 708 468 708 c 0
 664 708 763 536 736 350 c 0
 706 154 546 -8 348 -8 c 0
 152 -8 54 164 81 350 c 0
789 732 m 1
 799 726 l 1
 39 -32 l 1
 30 -26 l 1
 789 732 l 1
EndSplineSet
EndChar

StartChar: Thorn
Encoding: 222 222 125
Width: 504
VWidth: 0
Flags: HMW
LayerCount: 2
Fore
SplineSet
170 700 m 1
 180 700 l 1
 60 0 l 1
 50 0 l 1
 170 700 l 1
148 550 m 1
 150 560 l 1
 301 560 l 1
 428 558 517 474 497 350 c 0
 476 224 362 142 230 140 c 1
 78 140 l 1
 80 150 l 1
 231 150 l 1
 353 153 466 234 486 350 c 0
 506 469 419 547 300 550 c 1
 148 550 l 1
EndSplineSet
EndChar

StartChar: divide
Encoding: 247 247 126
Width: 604
VWidth: 0
Flags: HMW
LayerCount: 2
Fore
SplineSet
340 451 m 0
 340 457 346 462 352 462 c 0
 358 462 362 457 362 451 c 0
 362 445 355 440 349 440 c 0
 343 440 340 445 340 451 c 0
268 31 m 0
 268 37 274 42 280 42 c 0
 286 42 290 37 290 31 c 0
 290 25 284 20 278 20 c 0
 272 20 268 25 268 31 c 0
71 235 m 1
 73 245 l 1
 558 245 l 1
 556 235 l 1
 71 235 l 1
EndSplineSet
EndChar

StartChar: oslash
Encoding: 248 248 127
Width: 529
VWidth: 0
Flags: HMW
LayerCount: 2
Fore
SplineSet
56 230 m 0
 76 361 188 470 322 470 c 0
 454 470 526 355 508 230 c 0
 488 99 376 -10 242 -10 c 0
 110 -10 38 105 56 230 c 0
66 230 m 0
 48 110 116 0 242 0 c 0
 370 0 478 104 498 230 c 0
 516 350 448 460 322 460 c 0
 194 460 86 356 66 230 c 0
502 492 m 1
 510 486 l 1
 41 -36 l 1
 33 -30 l 1
 502 492 l 1
EndSplineSet
EndChar

StartChar: circumflex
Encoding: 710 710 128
Width: 465
VWidth: 0
Flags: HMW
LayerCount: 2
Fore
SplineSet
329 718 m 1
 156 584 l 1
 150 591 l 1
 330 730 l 1
 462 590 l 1
 454 583 l 1
 329 718 l 1
EndSplineSet
EndChar

StartChar: ogonek
Encoding: 731 731 129
Width: 242
VWidth: 0
Flags: HMW
LayerCount: 2
Fore
SplineSet
160 -174 m 1
 166 -180 l 1
 142 -200 106 -220 65 -220 c 0
 9 -220 -30 -190 -24 -140 c 0
 -14 -66 80 -22 148 10 c 1
 154 0 l 1
 90 -31 -5 -74 -14 -140 c 0
 -19 -185 21 -210 66 -210 c 0
 104 -210 138 -192 160 -174 c 1
EndSplineSet
EndChar

StartChar: tilde
Encoding: 732 732 130
Width: 514
VWidth: 0
Flags: HMW
LayerCount: 2
Fore
SplineSet
220 650 m 1
 229 678 248 706 289 706 c 0
 337 706 354 659 402 660 c 0
 431 660 448 682 464 708 c 1
 474 704 l 1
 456 674 433 652 401 652 c 0
 354 652 333 698 291 698 c 0
 254 698 237 672 229 648 c 1
 220 650 l 1
EndSplineSet
EndChar

StartChar: ring
Encoding: 730 730 131
Width: 269
VWidth: 0
Flags: HMW
LayerCount: 2
Fore
SplineSet
142 786 m 0
 150 842 204 884 258 884 c 0
 311 884 349 838 341 784 c 0
 333 728 279 686 225 686 c 0
 172 686 134 732 142 786 c 0
152 785 m 0
 145 737 178 697 226 696 c 0
 274 695 324 736 332 785 c 0
 339 833 306 873 258 874 c 0
 210 875 160 834 152 785 c 0
EndSplineSet
EndChar

StartChar: dotaccent
Encoding: 729 729 132
Width: 234
VWidth: 0
Flags: HMW
LayerCount: 2
Fore
SplineSet
208 751 m 0
 208 757 214 762 220 762 c 0
 226 762 229 757 229 751 c 0
 229 745 223 740 217 740 c 0
 211 740 208 745 208 751 c 0
EndSplineSet
EndChar

StartChar: uni2010
Encoding: 8208 8208 133
Width: 203
VWidth: 0
Flags: HMW
LayerCount: 2
Fore
SplineSet
23 265 m 1
 24 275 l 1
 219 275 l 1
 217 265 l 1
 23 265 l 1
EndSplineSet
EndChar

StartChar: endash
Encoding: 8211 8211 134
Width: 718
VWidth: 0
Flags: HMW
LayerCount: 2
Fore
SplineSet
86 265 m 1
 88 275 l 1
 670 275 l 1
 668 265 l 1
 86 265 l 1
EndSplineSet
EndChar

StartChar: figuredash
Encoding: 8210 8210 135
Width: 572
VWidth: 0
Flags: HMW
LayerCount: 2
Fore
SplineSet
86 265 m 1
 88 275 l 1
 524 275 l 1
 523 265 l 1
 86 265 l 1
EndSplineSet
EndChar

StartChar: emdash
Encoding: 8212 8212 136
Width: 863
VWidth: 0
Flags: HMW
LayerCount: 2
Fore
SplineSet
86 265 m 1
 88 275 l 1
 816 275 l 1
 814 265 l 1
 86 265 l 1
EndSplineSet
EndChar

StartChar: minus
Encoding: 8722 8722 137
Width: 572
VWidth: 0
Flags: HMW
LayerCount: 2
Fore
SplineSet
86 265 m 1
 88 275 l 1
 524 275 l 1
 523 265 l 1
 86 265 l 1
EndSplineSet
EndChar

StartChar: quoteright
Encoding: 8217 8217 138
Width: 237
VWidth: 0
Flags: HMW
LayerCount: 2
Fore
SplineSet
261 699 m 1
 273 699 l 1
 140 471 l 1
 130 471 l 1
 261 699 l 1
EndSplineSet
EndChar

StartChar: quoteleft
Encoding: 8216 8216 139
Width: 218
VWidth: 0
Flags: HMW
LayerCount: 2
Fore
SplineSet
122 471 m 1
 110 471 l 1
 244 699 l 1
 254 699 l 1
 122 471 l 1
EndSplineSet
EndChar

StartChar: quotesinglbase
Encoding: 8218 8218 140
Width: 237
VWidth: 0
Flags: HMW
LayerCount: 2
Fore
SplineSet
136 79 m 1
 148 79 l 1
 14 -149 l 1
 4 -149 l 1
 136 79 l 1
EndSplineSet
EndChar

StartChar: quotedblleft
Encoding: 8220 8220 141
Width: 373
VWidth: 0
Flags: HMW
LayerCount: 2
Fore
SplineSet
142 471 m 1
 130 471 l 1
 263 699 l 1
 273 699 l 1
 142 471 l 1
278 471 m 1
 266 471 l 1
 398 699 l 1
 409 699 l 1
 278 471 l 1
EndSplineSet
EndChar

StartChar: quotedblright
Encoding: 8221 8221 142
Width: 373
VWidth: 0
Flags: HMW
LayerCount: 2
Fore
SplineSet
242 699 m 1
 254 699 l 1
 120 471 l 1
 110 471 l 1
 242 699 l 1
378 699 m 1
 390 699 l 1
 256 471 l 1
 246 471 l 1
 378 699 l 1
EndSplineSet
EndChar

StartChar: perthousand
Encoding: 8240 8240 143
Width: 1039
VWidth: 0
Flags: HMW
LayerCount: 2
Fore
SplineSet
714 140 m 0
 727 220 796 290 884 290 c 0
 971 290 1014 218 1002 140 c 0
 989 60 922 -10 834 -10 c 0
 747 -10 702 62 714 140 c 0
724 140 m 0
 712 70 752 0 834 -0 c 0
 916 -0 980 66 992 140 c 0
 1004 211 964 280 883 280 c 0
 801 280 736 214 724 140 c 0
102 560 m 0
 115 640 183 710 271 710 c 0
 358 710 402 638 390 560 c 0
 377 480 309 410 221 410 c 0
 134 410 90 482 102 560 c 0
112 560 m 0
 100 490 140 420 222 420 c 0
 304 420 368 486 380 560 c 0
 392 631 351 700 270 700 c 0
 188 700 124 634 112 560 c 0
356 140 m 0
 369 220 436 290 524 290 c 0
 611 290 656 218 644 140 c 0
 631 60 562 -10 474 -10 c 0
 387 -10 344 62 356 140 c 0
366 140 m 0
 354 70 392 0 474 -0 c 0
 556 -0 622 66 634 140 c 0
 646 211 605 280 524 280 c 0
 442 280 378 214 366 140 c 0
648 699 m 1
 660 699 l 1
 97 0 l 1
 84 0 l 1
 648 699 l 1
EndSplineSet
EndChar

StartChar: guilsinglleft
Encoding: 8249 8249 144
Width: 315
VWidth: 0
Flags: HMW
LayerCount: 2
Fore
SplineSet
64 255 m 1
 225 27 l 1
 218 20 l 1
 55 256 l 1
 298 489 l 1
 304 482 l 1
 64 255 l 1
EndSplineSet
EndChar

StartChar: guilsinglright
Encoding: 8250 8250 145
Width: 339
VWidth: 0
Flags: HMW
LayerCount: 2
Fore
SplineSet
308 255 m 1
 147 483 l 1
 155 490 l 1
 318 254 l 1
 75 21 l 1
 69 28 l 1
 308 255 l 1
EndSplineSet
EndChar

StartChar: uni2031
Encoding: 8241 8241 146
Width: 1398
VWidth: 0
Flags: HMW
LayerCount: 2
Fore
SplineSet
1074 140 m 0
 1087 220 1155 290 1243 290 c 0
 1330 290 1374 218 1362 140 c 0
 1349 60 1280 -10 1192 -10 c 0
 1105 -10 1062 62 1074 140 c 0
1084 140 m 0
 1072 70 1111 0 1193 -0 c 0
 1275 -0 1340 66 1352 140 c 0
 1364 211 1323 280 1242 280 c 0
 1160 280 1096 214 1084 140 c 0
714 140 m 0
 727 220 796 290 884 290 c 0
 971 290 1014 218 1002 140 c 0
 989 60 922 -10 834 -10 c 0
 747 -10 702 62 714 140 c 0
724 140 m 0
 712 70 752 0 834 -0 c 0
 916 -0 980 66 992 140 c 0
 1004 211 964 280 883 280 c 0
 801 280 736 214 724 140 c 0
102 560 m 0
 115 640 183 710 271 710 c 0
 358 710 402 638 390 560 c 0
 377 480 309 410 221 410 c 0
 134 410 90 482 102 560 c 0
112 560 m 0
 100 490 140 420 222 420 c 0
 304 420 368 486 380 560 c 0
 392 631 351 700 270 700 c 0
 188 700 124 634 112 560 c 0
356 140 m 0
 369 220 436 290 524 290 c 0
 611 290 656 218 644 140 c 0
 631 60 562 -10 474 -10 c 0
 387 -10 344 62 356 140 c 0
366 140 m 0
 354 70 392 0 474 -0 c 0
 556 -0 622 66 634 140 c 0
 646 211 605 280 524 280 c 0
 442 280 378 214 366 140 c 0
648 699 m 1
 660 699 l 1
 97 0 l 1
 84 0 l 1
 648 699 l 1
EndSplineSet
EndChar

StartChar: uni203D
Encoding: 8253 8253 147
Width: 540
VWidth: 0
Flags: HMW
LayerCount: 2
Fore
SplineSet
500 520 m 0
 516 616 460 700 349 700 c 0
 259 700 196 650 144 588 c 1
 136 594 l 1
 190 658 256 710 350 710 c 0
 466 709 527 624 510 520 c 0
 491 416 392 345 283 338 c 1
 276 346 l 1
 384 352 481 420 500 520 c 0
302 510 m 1
 314 510 l 1
 252 170 l 1
 246 170 l 1
 302 510 l 1
210 1 m 0
 210 7 216 12 222 12 c 0
 228 12 232 7 232 1 c 0
 232 -5 225 -10 219 -10 c 0
 213 -10 210 -5 210 1 c 0
EndSplineSet
EndChar

StartChar: Euro
Encoding: 8364 8364 148
Width: 679
VWidth: 0
Flags: HMW
LayerCount: 2
Fore
SplineSet
122 445 m 1
 123 455 l 1
 610 455 l 1
 608 445 l 1
 122 445 l 1
101 325 m 1
 102 335 l 1
 564 335 l 1
 562 325 l 1
 101 325 l 1
188 350 m 0
 166 183 216 2 390 0 c 0
 446 0 498 19 544 46 c 1
 541 30 l 1
 494 6 443 -10 389 -10 c 0
 205 -9 155 178 178 350 c 0
 206 537 327 710 511 710 c 0
 562 710 608 695 650 670 c 1
 648 654 l 1
 608 684 562 700 510 700 c 0
 331 700 215 532 188 350 c 0
EndSplineSet
EndChar

StartChar: fraction
Encoding: 8260 8260 149
Width: 684
VWidth: 0
Flags: HMW
LayerCount: 2
Fore
SplineSet
706 699 m 1
 719 699 l 1
 42 0 l 1
 30 0 l 1
 706 699 l 1
EndSplineSet
EndChar

StartChar: onequarter
Encoding: 188 188 150
Width: 731
VWidth: 0
Flags: HMW
LayerCount: 2
Fore
SplineSet
744 699 m 1
 756 699 l 1
 80 0 l 1
 68 0 l 1
 744 699 l 1
107 666 m 1
 108 674 l 1
 218 697 l 1
 144 274 l 1
 138 274 l 1
 210 688 l 1
 107 666 l 1
376 84 m 1
 383 90 l 1
 596 90 l 1
 598 90 l 1
 664 90 l 1
 664 84 l 1
 376 84 l 1
382 85 m 1
 376 85 l 1
 657 418 l 1
 656 420 l 1
 585 0 l 1
 579 0 l 1
 594 85 l 1
 594 88 l 1
 648 398 l 1
 382 85 l 1
EndSplineSet
EndChar

StartChar: onehalf
Encoding: 189 189 151
Width: 794
VWidth: 0
Flags: HMW
LayerCount: 2
Fore
SplineSet
744 699 m 1
 756 699 l 1
 80 0 l 1
 68 0 l 1
 744 699 l 1
107 666 m 1
 108 674 l 1
 218 697 l 1
 144 274 l 1
 138 274 l 1
 210 688 l 1
 107 666 l 1
454 2 m 1
 674 202 l 2
 706 232 742 265 750 313 c 0
 759 362 734 420 665 422 c 0
 589 424 540 353 524 279 c 1
 518 279 l 1
 534 357 585 430 665 428 c 0
 737 426 765 365 756 313 c 0
 748 265 714 230 680 199 c 2
 470 8 l 1
 720 8 l 1
 718 2 l 1
 454 2 l 1
EndSplineSet
EndChar

StartChar: threequarters
Encoding: 190 190 152
Width: 795
VWidth: 0
Flags: HMW
LayerCount: 2
Fore
SplineSet
808 699 m 1
 821 699 l 1
 144 0 l 1
 132 0 l 1
 808 699 l 1
198 498 m 1
 199 502 l 1
 256 507 326 538 338 600 c 0
 347 650 314 699 254 700 c 0
 189 701 146 653 131 597 c 1
 125 597 l 1
 141 657 185 707 254 706 c 0
 319 705 354 653 344 600 c 0
 332 534 262 502 198 498 c 1
178 274 m 0
 101 274 69 327 74 391 c 1
 80 391 l 1
 76 329 104 280 178 280 c 0
 245 280 302 325 312 385 c 0
 323 457 254 490 198 496 c 1
 199 500 l 1
 261 494 330 459 318 384 c 0
 308 320 248 274 178 274 c 0
442 84 m 1
 448 90 l 1
 662 90 l 1
 664 90 l 1
 730 90 l 1
 729 84 l 1
 442 84 l 1
448 85 m 1
 440 85 l 1
 722 418 l 1
 722 420 l 1
 650 0 l 1
 644 0 l 1
 659 85 l 1
 660 88 l 1
 713 398 l 1
 448 85 l 1
EndSplineSet
EndChar

StartChar: uni2150
Encoding: 8528 8528 153
Width: 817
VWidth: 0
Flags: HMW
LayerCount: 2
Fore
SplineSet
695 699 m 1
 707 699 l 1
 31 0 l 1
 19 0 l 1
 695 699 l 1
107 666 m 1
 108 674 l 1
 218 697 l 1
 144 274 l 1
 138 274 l 1
 210 688 l 1
 107 666 l 1
551 414 m 1
 552 420 l 1
 826 420 l 1
 538 0 l 1
 531 0 l 1
 815 414 l 1
 551 414 l 1
EndSplineSet
EndChar

StartChar: uni2151
Encoding: 8529 8529 154
Width: 760
VWidth: 0
Flags: HMW
LayerCount: 2
Fore
SplineSet
695 699 m 1
 707 699 l 1
 31 0 l 1
 19 0 l 1
 695 699 l 1
107 666 m 1
 108 674 l 1
 218 697 l 1
 144 274 l 1
 138 274 l 1
 210 688 l 1
 107 666 l 1
725 290 m 0
 735 358 701 422 627 422 c 0
 553 422 493 361 482 290 c 0
 473 228 512 168 576 166 c 0
 654 164 713 226 725 290 c 0
518 3 m 1
 510 4 l 1
 688 208 l 1
 689 208 l 1
 659 180 620 159 576 160 c 0
 507 161 466 225 476 290 c 0
 487 365 549 429 627 428 c 0
 706 427 742 362 731 290 c 0
 725 255 703 219 682 195 c 2
 518 3 l 1
EndSplineSet
EndChar

StartChar: uni2152
Encoding: 8530 8530 155
Width: 1048
VWidth: 0
Flags: HMW
LayerCount: 2
Fore
SplineSet
695 699 m 1
 707 699 l 1
 31 0 l 1
 19 0 l 1
 695 699 l 1
107 666 m 1
 108 674 l 1
 218 697 l 1
 144 274 l 1
 138 274 l 1
 210 688 l 1
 107 666 l 1
460 394 m 1
 462 400 l 1
 571 424 l 1
 498 2 l 1
 492 2 l 1
 563 416 l 1
 460 394 l 1
736 210 m 0
 726 125 732 1 822 0 c 0
 911 -1 965 115 979 210 c 0
 989 295 984 419 894 420 c 0
 805 421 750 305 736 210 c 0
730 210 m 0
 744 310 800 426 894 426 c 0
 988 425 996 300 986 210 c 0
 972 110 916 -6 822 -6 c 0
 728 -5 720 120 730 210 c 0
EndSplineSet
EndChar

StartChar: onethird
Encoding: 8531 8531 156
Width: 732
VWidth: 0
Flags: HMW
LayerCount: 2
Fore
SplineSet
695 699 m 1
 707 699 l 1
 31 0 l 1
 19 0 l 1
 695 699 l 1
107 666 m 1
 108 674 l 1
 218 697 l 1
 144 274 l 1
 138 274 l 1
 210 688 l 1
 107 666 l 1
570 218 m 1
 572 222 l 1
 629 227 698 258 710 320 c 0
 719 370 686 419 626 420 c 0
 561 421 519 373 504 317 c 1
 498 317 l 1
 514 377 557 427 626 426 c 0
 691 425 726 373 716 320 c 0
 704 254 634 222 570 218 c 1
550 -6 m 0
 473 -6 441 47 446 111 c 1
 452 111 l 1
 448 49 476 0 550 0 c 0
 617 0 675 45 685 105 c 0
 696 177 626 210 570 216 c 1
 572 220 l 1
 634 214 703 179 691 104 c 0
 681 40 620 -6 550 -6 c 0
EndSplineSet
EndChar

StartChar: twothirds
Encoding: 8532 8532 157
Width: 855
VWidth: 0
Flags: HMW
LayerCount: 2
Fore
SplineSet
818 699 m 1
 830 699 l 1
 154 0 l 1
 142 0 l 1
 818 699 l 1
53 282 m 1
 273 483 l 2
 305 513 340 546 348 594 c 0
 357 643 333 701 264 702 c 0
 188 704 138 633 122 559 c 1
 116 559 l 1
 132 637 184 710 264 708 c 0
 336 707 363 646 354 594 c 0
 346 546 312 510 278 479 c 2
 69 288 l 1
 318 288 l 1
 317 282 l 1
 53 282 l 1
694 218 m 1
 694 222 l 1
 751 227 821 258 833 320 c 0
 842 370 810 419 750 420 c 0
 685 421 642 373 627 317 c 1
 621 317 l 1
 637 377 681 427 750 426 c 0
 815 425 849 373 839 320 c 0
 827 254 758 222 694 218 c 1
674 -6 m 0
 597 -6 565 47 570 111 c 1
 576 111 l 1
 572 49 600 0 674 0 c 0
 741 0 798 45 808 105 c 0
 819 177 750 210 694 216 c 1
 694 220 l 1
 756 214 826 179 814 104 c 0
 804 40 744 -6 674 -6 c 0
EndSplineSet
EndChar

StartChar: uni2155
Encoding: 8533 8533 158
Width: 722
VWidth: 0
Flags: HMW
LayerCount: 2
Fore
SplineSet
695 699 m 1
 707 699 l 1
 31 0 l 1
 19 0 l 1
 695 699 l 1
107 666 m 1
 108 674 l 1
 218 697 l 1
 144 274 l 1
 138 274 l 1
 210 688 l 1
 107 666 l 1
660 136 m 0
 648 52 582 -8 504 -8 c 0
 443 -8 413 28 397 80 c 1
 402 83 l 1
 418 33 446 -2 504 -2 c 0
 579 -2 642 56 654 136 c 0
 663 200 630 258 565 260 c 0
 513 262 470 231 434 195 c 1
 446 214 l 1
 470 242 517 267 565 266 c 0
 633 264 670 204 660 136 c 0
530 412 m 1
 446 214 l 1
 433 195 l 1
 526 418 l 1
 718 418 l 1
 717 412 l 1
 530 412 l 1
EndSplineSet
EndChar

StartChar: uni2156
Encoding: 8534 8534 159
Width: 845
VWidth: 0
Flags: HMW
LayerCount: 2
Fore
SplineSet
818 699 m 1
 830 699 l 1
 154 0 l 1
 142 0 l 1
 818 699 l 1
53 282 m 1
 273 483 l 2
 305 513 340 546 348 594 c 0
 357 643 333 701 264 702 c 0
 188 704 138 633 122 559 c 1
 116 559 l 1
 132 637 184 710 264 708 c 0
 336 707 363 646 354 594 c 0
 346 546 312 510 278 479 c 2
 69 288 l 1
 318 288 l 1
 317 282 l 1
 53 282 l 1
782 136 m 0
 770 52 705 -8 627 -8 c 0
 566 -8 536 28 520 80 c 1
 526 83 l 1
 542 33 569 -2 627 -2 c 0
 702 -2 764 56 776 136 c 0
 785 200 753 258 688 260 c 0
 636 262 593 231 557 195 c 1
 570 214 l 1
 594 242 640 267 688 266 c 0
 756 264 792 204 782 136 c 0
652 412 m 1
 570 214 l 1
 556 195 l 1
 649 418 l 1
 841 418 l 1
 840 412 l 1
 652 412 l 1
EndSplineSet
EndChar

StartChar: uni2157
Encoding: 8535 8535 160
Width: 806
VWidth: 0
Flags: HMW
LayerCount: 2
Fore
SplineSet
780 699 m 1
 792 699 l 1
 116 0 l 1
 103 0 l 1
 780 699 l 1
198 498 m 1
 199 502 l 1
 256 507 326 538 338 600 c 0
 347 650 314 699 254 700 c 0
 189 701 146 653 131 597 c 1
 125 597 l 1
 141 657 185 707 254 706 c 0
 319 705 354 653 344 600 c 0
 332 534 262 502 198 498 c 1
178 274 m 0
 101 274 69 327 74 391 c 1
 80 391 l 1
 76 329 104 280 178 280 c 0
 245 280 302 325 312 385 c 0
 323 457 254 490 198 496 c 1
 199 500 l 1
 261 494 330 459 318 384 c 0
 308 320 248 274 178 274 c 0
744 136 m 0
 732 52 666 -8 588 -8 c 0
 527 -8 498 28 482 80 c 1
 486 83 l 1
 502 33 530 -2 588 -2 c 0
 663 -2 726 56 738 136 c 0
 747 200 715 258 650 260 c 0
 598 262 554 231 518 195 c 1
 531 214 l 1
 555 242 602 267 650 266 c 0
 718 264 754 204 744 136 c 0
614 412 m 1
 530 214 l 1
 518 195 l 1
 610 418 l 1
 802 418 l 1
 802 412 l 1
 614 412 l 1
EndSplineSet
EndChar

StartChar: uni2158
Encoding: 8536 8536 161
Width: 840
VWidth: 0
Flags: HMW
LayerCount: 2
Fore
SplineSet
814 699 m 1
 826 699 l 1
 150 0 l 1
 137 0 l 1
 814 699 l 1
69 364 m 1
 76 370 l 1
 289 370 l 1
 291 370 l 1
 358 370 l 1
 356 364 l 1
 69 364 l 1
76 365 m 1
 68 365 l 1
 350 700 l 1
 351 700 l 1
 278 280 l 1
 271 280 l 1
 286 365 l 1
 286 368 l 1
 340 678 l 1
 76 365 l 1
778 136 m 0
 766 52 700 -8 622 -8 c 0
 561 -8 532 28 516 80 c 1
 520 83 l 1
 536 33 564 -2 622 -2 c 0
 697 -2 760 56 772 136 c 0
 781 200 749 258 684 260 c 0
 632 262 588 231 552 195 c 1
 564 214 l 1
 588 242 636 267 684 266 c 0
 752 264 788 204 778 136 c 0
648 412 m 1
 564 214 l 1
 552 195 l 1
 644 418 l 1
 836 418 l 1
 836 412 l 1
 648 412 l 1
EndSplineSet
EndChar

StartChar: uni2159
Encoding: 8537 8537 162
Width: 712
VWidth: 0
Flags: HMW
LayerCount: 2
Fore
SplineSet
695 699 m 1
 707 699 l 1
 31 0 l 1
 19 0 l 1
 695 699 l 1
107 666 m 1
 108 674 l 1
 218 697 l 1
 144 274 l 1
 138 274 l 1
 210 688 l 1
 107 666 l 1
416 130 m 0
 406 62 440 -2 514 -2 c 0
 588 -2 648 59 659 130 c 0
 668 192 630 252 566 254 c 0
 488 256 428 194 416 130 c 0
623 417 m 1
 632 416 l 1
 453 212 l 1
 452 212 l 1
 482 240 521 261 566 260 c 0
 635 259 675 195 665 130 c 0
 654 55 593 -9 514 -8 c 0
 435 -7 399 58 410 130 c 0
 416 165 439 201 460 225 c 2
 623 417 l 1
EndSplineSet
EndChar

StartChar: uni215A
Encoding: 8538 8538 163
Width: 830
VWidth: 0
Flags: HMW
LayerCount: 2
Fore
SplineSet
814 699 m 1
 826 699 l 1
 150 0 l 1
 137 0 l 1
 814 699 l 1
330 416 m 0
 318 332 253 272 175 272 c 0
 114 272 84 308 68 360 c 1
 74 363 l 1
 90 313 117 278 175 278 c 0
 250 278 312 336 324 416 c 0
 333 480 301 538 236 540 c 0
 184 542 141 511 105 475 c 1
 118 494 l 1
 142 522 188 547 236 546 c 0
 304 544 340 484 330 416 c 0
200 692 m 1
 118 494 l 1
 104 475 l 1
 197 698 l 1
 389 698 l 1
 388 692 l 1
 200 692 l 1
534 130 m 0
 524 62 558 -2 632 -2 c 0
 706 -2 767 59 778 130 c 0
 787 192 748 252 684 254 c 0
 606 256 546 194 534 130 c 0
742 417 m 1
 750 416 l 1
 571 212 l 1
 570 212 l 1
 600 240 639 261 684 260 c 0
 753 259 794 195 784 130 c 0
 773 55 711 -9 632 -8 c 0
 553 -7 517 58 528 130 c 0
 534 165 557 201 578 225 c 2
 742 417 l 1
EndSplineSet
EndChar

StartChar: oneeighth
Encoding: 8539 8539 164
Width: 737
VWidth: 0
Flags: HMW
LayerCount: 2
Fore
SplineSet
695 699 m 1
 707 699 l 1
 31 0 l 1
 19 0 l 1
 695 699 l 1
107 666 m 1
 108 674 l 1
 218 697 l 1
 144 274 l 1
 138 274 l 1
 210 688 l 1
 107 666 l 1
498 326 m 0
 506 378 559 426 617 426 c 0
 674 426 710 374 702 324 c 0
 694 269 635 221 582 222 c 0
 530 222 490 273 498 326 c 0
504 326 m 0
 496 276 536 227 582 226 c 0
 628 225 688 272 696 324 c 0
 704 373 671 419 617 420 c 0
 563 421 512 376 504 326 c 0
450 112 m 0
 460 173 521 222 582 222 c 0
 642 222 684 170 676 110 c 0
 667 47 614 -7 544 -6 c 0
 474 -5 440 51 450 112 c 0
456 111 m 0
 446 53 478 1 544 0 c 0
 610 -1 661 50 670 111 c 0
 678 168 638 217 582 218 c 0
 525 219 466 170 456 111 c 0
EndSplineSet
EndChar

StartChar: threeeighths
Encoding: 8540 8540 165
Width: 821
VWidth: 0
Flags: HMW
LayerCount: 2
Fore
SplineSet
780 699 m 1
 792 699 l 1
 116 0 l 1
 103 0 l 1
 780 699 l 1
198 498 m 1
 199 502 l 1
 256 507 326 538 338 600 c 0
 347 650 314 699 254 700 c 0
 189 701 146 653 131 597 c 1
 125 597 l 1
 141 657 185 707 254 706 c 0
 319 705 354 653 344 600 c 0
 332 534 262 502 198 498 c 1
178 274 m 0
 101 274 69 327 74 391 c 1
 80 391 l 1
 76 329 104 280 178 280 c 0
 245 280 302 325 312 385 c 0
 323 457 254 490 198 496 c 1
 199 500 l 1
 261 494 330 459 318 384 c 0
 308 320 248 274 178 274 c 0
583 326 m 0
 591 378 644 426 702 426 c 0
 759 426 794 374 786 324 c 0
 778 269 720 221 667 222 c 0
 615 222 575 273 583 326 c 0
589 326 m 0
 581 276 620 227 666 226 c 0
 712 225 772 272 780 324 c 0
 788 373 756 419 702 420 c 0
 648 421 597 376 589 326 c 0
535 112 m 0
 545 173 606 222 667 222 c 0
 727 222 769 170 761 110 c 0
 752 47 698 -7 628 -6 c 0
 558 -5 525 51 535 112 c 0
541 111 m 0
 531 53 562 0 628 0 c 0
 694 -1 746 50 755 111 c 0
 763 168 723 217 667 218 c 0
 610 219 551 170 541 111 c 0
EndSplineSet
EndChar

StartChar: fiveeighths
Encoding: 8541 8541 166
Width: 855
VWidth: 0
Flags: HMW
LayerCount: 2
Fore
SplineSet
814 699 m 1
 826 699 l 1
 150 0 l 1
 137 0 l 1
 814 699 l 1
330 416 m 0
 318 332 253 272 175 272 c 0
 114 272 84 308 68 360 c 1
 74 363 l 1
 90 313 117 278 175 278 c 0
 250 278 312 336 324 416 c 0
 333 480 301 538 236 540 c 0
 184 542 141 511 105 475 c 1
 118 494 l 1
 142 522 188 547 236 546 c 0
 304 544 340 484 330 416 c 0
200 692 m 1
 118 494 l 1
 104 475 l 1
 197 698 l 1
 389 698 l 1
 388 692 l 1
 200 692 l 1
617 326 m 0
 625 378 678 426 736 426 c 0
 793 426 828 374 820 324 c 0
 812 269 753 221 700 222 c 0
 648 222 609 273 617 326 c 0
623 326 m 0
 615 276 654 227 700 226 c 0
 746 225 806 272 814 324 c 0
 822 373 790 419 736 420 c 0
 682 421 631 376 623 326 c 0
569 112 m 0
 579 173 639 222 700 222 c 0
 760 222 803 170 795 110 c 0
 786 47 732 -7 662 -6 c 0
 592 -5 559 51 569 112 c 0
575 111 m 0
 565 53 596 0 662 0 c 0
 728 -1 780 50 789 111 c 0
 797 168 757 217 701 218 c 0
 644 219 585 170 575 111 c 0
EndSplineSet
EndChar

StartChar: seveneighths
Encoding: 8542 8542 167
Width: 749
VWidth: 0
Flags: HMW
LayerCount: 2
Fore
SplineSet
706 699 m 1
 719 699 l 1
 42 0 l 1
 30 0 l 1
 706 699 l 1
126 694 m 1
 126 700 l 1
 400 700 l 1
 112 281 l 1
 106 281 l 1
 389 694 l 1
 126 694 l 1
510 326 m 0
 518 378 570 426 628 426 c 0
 685 426 721 374 713 324 c 0
 705 269 647 221 594 222 c 0
 542 222 502 273 510 326 c 0
516 326 m 0
 508 276 548 227 594 226 c 0
 640 225 699 272 707 324 c 0
 715 373 682 419 628 420 c 0
 574 421 524 376 516 326 c 0
462 112 m 0
 472 173 533 222 594 222 c 0
 654 222 696 170 688 110 c 0
 679 47 626 -7 556 -6 c 0
 486 -5 452 51 462 112 c 0
468 111 m 0
 458 53 490 1 556 0 c 0
 622 -1 673 50 682 111 c 0
 690 168 650 217 594 218 c 0
 537 219 478 170 468 111 c 0
EndSplineSet
EndChar

StartChar: uni2074
Encoding: 8308 8308 168
Width: 360
VWidth: 0
Flags: HMW
LayerCount: 2
Fore
SplineSet
69 364 m 1
 76 370 l 1
 289 370 l 1
 291 370 l 1
 358 370 l 1
 356 364 l 1
 69 364 l 1
76 365 m 1
 68 365 l 1
 350 700 l 1
 351 700 l 1
 278 280 l 1
 271 280 l 1
 286 365 l 1
 286 368 l 1
 340 678 l 1
 76 365 l 1
EndSplineSet
EndChar

StartChar: uni2075
Encoding: 8309 8309 169
Width: 330
VWidth: 0
Flags: HMW
LayerCount: 2
Fore
SplineSet
330 416 m 0
 318 332 253 272 175 272 c 0
 114 272 84 308 68 360 c 1
 74 363 l 1
 90 313 117 278 175 278 c 0
 250 278 312 336 324 416 c 0
 333 480 301 538 236 540 c 0
 184 542 141 511 105 475 c 1
 118 494 l 1
 142 522 188 547 236 546 c 0
 304 544 340 484 330 416 c 0
200 692 m 1
 118 494 l 1
 104 475 l 1
 197 698 l 1
 389 698 l 1
 388 692 l 1
 200 692 l 1
EndSplineSet
EndChar

StartChar: uni2076
Encoding: 8310 8310 170
Width: 322
VWidth: 0
Flags: HMW
LayerCount: 2
Fore
SplineSet
88 410 m 0
 78 342 112 278 186 278 c 0
 260 278 319 339 330 410 c 0
 339 472 302 532 238 534 c 0
 160 536 100 474 88 410 c 0
294 697 m 1
 302 696 l 1
 124 492 l 1
 124 492 l 1
 154 520 192 541 237 540 c 0
 306 539 346 475 336 410 c 0
 325 335 265 271 186 272 c 0
 107 273 71 338 82 410 c 0
 88 445 109 481 130 505 c 2
 294 697 l 1
EndSplineSet
EndChar

StartChar: uni2077
Encoding: 8311 8311 171
Width: 341
VWidth: 0
Flags: HMW
LayerCount: 2
Fore
SplineSet
126 694 m 1
 126 700 l 1
 400 700 l 1
 112 281 l 1
 106 281 l 1
 389 694 l 1
 126 694 l 1
EndSplineSet
EndChar

StartChar: uni2078
Encoding: 8312 8312 172
Width: 293
VWidth: 0
Flags: HMW
LayerCount: 2
Fore
SplineSet
122 606 m 0
 130 658 182 706 240 706 c 0
 297 706 332 654 324 604 c 0
 316 549 258 501 205 502 c 0
 153 502 114 553 122 606 c 0
127 606 m 0
 119 556 159 507 205 506 c 0
 251 505 310 552 318 604 c 0
 326 653 294 699 240 700 c 0
 186 701 135 656 127 606 c 0
73 392 m 0
 83 453 144 502 205 502 c 0
 265 502 307 450 299 390 c 0
 290 327 236 273 166 274 c 0
 96 275 63 331 73 392 c 0
79 391 m 0
 69 333 100 280 166 280 c 0
 232 279 284 330 293 391 c 0
 301 448 262 497 206 498 c 0
 149 499 89 450 79 391 c 0
EndSplineSet
EndChar

StartChar: uni2079
Encoding: 8313 8313 173
Width: 322
VWidth: 0
Flags: HMW
LayerCount: 2
Fore
SplineSet
348 570 m 0
 358 638 324 702 250 702 c 0
 176 702 116 641 105 570 c 0
 96 508 134 448 198 446 c 0
 276 444 336 506 348 570 c 0
141 283 m 1
 134 284 l 1
 311 488 l 1
 312 488 l 1
 282 460 243 439 199 440 c 0
 130 441 89 505 99 570 c 0
 110 645 172 709 250 708 c 0
 329 707 365 642 354 570 c 0
 348 535 325 499 304 475 c 2
 141 283 l 1
EndSplineSet
EndChar

StartChar: uni2070
Encoding: 8304 8304 174
Width: 314
VWidth: 0
Flags: HMW
LayerCount: 2
Fore
SplineSet
97 490 m 0
 87 405 92 281 182 280 c 0
 271 279 326 395 340 490 c 0
 350 575 345 699 255 700 c 0
 166 701 111 585 97 490 c 0
90 490 m 0
 104 590 161 706 255 706 c 0
 349 705 357 580 347 490 c 0
 333 390 276 274 182 274 c 0
 88 275 80 400 90 490 c 0
EndSplineSet
EndChar

StartChar: uni2080
Encoding: 8320 8320 175
Width: 324
VWidth: 0
Flags: HMW
LayerCount: 2
Fore
SplineSet
50 210 m 0
 40 125 44 1 134 0 c 0
 223 -1 278 115 292 210 c 0
 302 295 298 419 208 420 c 0
 119 421 64 305 50 210 c 0
42 210 m 0
 56 310 113 426 207 426 c 0
 301 425 309 300 299 210 c 0
 285 110 228 -6 134 -6 c 0
 40 -5 32 120 42 210 c 0
EndSplineSet
EndChar

StartChar: uni2084
Encoding: 8324 8324 176
Width: 360
VWidth: 0
Flags: HMW
LayerCount: 2
Fore
SplineSet
21 84 m 1
 28 90 l 1
 241 90 l 1
 243 90 l 1
 310 90 l 1
 308 84 l 1
 21 84 l 1
28 85 m 1
 20 85 l 1
 302 420 l 1
 304 420 l 1
 230 0 l 1
 224 0 l 1
 238 85 l 1
 239 88 l 1
 293 398 l 1
 28 85 l 1
EndSplineSet
EndChar

StartChar: uni2085
Encoding: 8325 8325 177
Width: 330
VWidth: 0
Flags: HMW
LayerCount: 2
Fore
SplineSet
283 136 m 0
 271 52 205 -8 127 -8 c 0
 66 -8 36 28 20 80 c 1
 26 83 l 1
 42 33 69 -2 127 -2 c 0
 202 -2 265 56 277 136 c 0
 286 200 253 258 188 260 c 0
 136 262 93 231 57 195 c 1
 70 214 l 1
 94 242 140 267 188 266 c 0
 256 264 293 204 283 136 c 0
152 412 m 1
 70 214 l 1
 56 195 l 1
 150 418 l 1
 342 418 l 1
 340 412 l 1
 152 412 l 1
EndSplineSet
EndChar

StartChar: uni2086
Encoding: 8326 8326 178
Width: 322
VWidth: 0
Flags: HMW
LayerCount: 2
Fore
SplineSet
40 130 m 0
 30 62 64 -2 138 -2 c 0
 212 -2 271 59 282 130 c 0
 291 192 254 252 190 254 c 0
 112 256 52 194 40 130 c 0
246 417 m 1
 255 416 l 1
 76 212 l 1
 76 212 l 1
 106 240 145 261 190 260 c 0
 259 259 298 195 288 130 c 0
 277 55 217 -9 138 -8 c 0
 59 -7 23 58 34 130 c 0
 40 165 62 201 83 225 c 2
 246 417 l 1
EndSplineSet
EndChar

StartChar: uni2087
Encoding: 8327 8327 179
Width: 341
VWidth: 0
Flags: HMW
LayerCount: 2
Fore
SplineSet
78 414 m 1
 78 420 l 1
 353 420 l 1
 64 0 l 1
 58 0 l 1
 341 414 l 1
 78 414 l 1
EndSplineSet
EndChar

StartChar: uni2088
Encoding: 8328 8328 180
Width: 293
VWidth: 0
Flags: HMW
LayerCount: 2
Fore
SplineSet
74 326 m 0
 82 378 134 426 192 426 c 0
 249 426 284 374 276 324 c 0
 268 269 211 221 158 222 c 0
 106 222 66 273 74 326 c 0
80 326 m 0
 72 276 111 227 157 226 c 0
 203 225 262 272 270 324 c 0
 278 373 246 419 192 420 c 0
 138 421 88 376 80 326 c 0
26 112 m 0
 36 173 97 222 158 222 c 0
 218 222 260 170 252 110 c 0
 243 47 188 -7 118 -6 c 0
 48 -5 16 51 26 112 c 0
32 111 m 0
 22 53 52 0 118 0 c 0
 184 -1 237 50 246 111 c 0
 254 168 214 217 158 218 c 0
 101 219 42 170 32 111 c 0
EndSplineSet
EndChar

StartChar: uni2089
Encoding: 8329 8329 181
Width: 322
VWidth: 0
Flags: HMW
LayerCount: 2
Fore
SplineSet
300 290 m 0
 310 358 276 422 202 422 c 0
 128 422 68 361 57 290 c 0
 48 228 87 168 151 166 c 0
 229 164 288 226 300 290 c 0
93 3 m 1
 86 4 l 1
 264 208 l 1
 264 208 l 1
 234 180 195 159 151 160 c 0
 82 161 41 225 51 290 c 0
 62 365 124 429 202 428 c 0
 281 427 317 362 306 290 c 0
 300 255 278 219 257 195 c 2
 93 3 l 1
EndSplineSet
EndChar

StartChar: uni2081
Encoding: 8321 8321 182
Width: 279
VWidth: 0
Flags: HMW
LayerCount: 2
Fore
SplineSet
132 394 m 1
 134 400 l 1
 243 424 l 1
 170 2 l 1
 164 2 l 1
 235 416 l 1
 132 394 l 1
EndSplineSet
EndChar

StartChar: uni2082
Encoding: 8322 8322 183
Width: 322
VWidth: 0
Flags: HMW
LayerCount: 2
Fore
SplineSet
2 2 m 1
 222 203 l 2
 254 233 290 266 298 314 c 0
 307 363 281 421 212 422 c 0
 136 424 88 353 72 279 c 1
 66 279 l 1
 82 357 132 430 212 428 c 0
 284 427 313 366 304 314 c 0
 296 266 262 230 228 199 c 2
 18 8 l 1
 268 8 l 1
 266 2 l 1
 2 2 l 1
EndSplineSet
EndChar

StartChar: uni2083
Encoding: 8323 8323 184
Width: 308
VWidth: 0
Flags: HMW
LayerCount: 2
Fore
SplineSet
146 218 m 1
 146 222 l 1
 203 227 273 258 285 320 c 0
 294 370 262 419 202 420 c 0
 137 421 93 373 78 317 c 1
 72 317 l 1
 88 377 133 427 202 426 c 0
 267 425 301 373 291 320 c 0
 279 254 210 222 146 218 c 1
126 -6 m 0
 49 -6 16 47 21 111 c 1
 27 111 l 1
 23 49 52 0 126 0 c 0
 193 0 250 45 260 105 c 0
 271 177 202 210 146 216 c 1
 146 220 l 1
 208 214 278 179 266 104 c 0
 256 40 196 -6 126 -6 c 0
EndSplineSet
EndChar

StartChar: Agrave
Encoding: 192 192 185
Width: 582
VWidth: 0
Flags: HMW
LayerCount: 2
Fore
SplineSet
142 272 m 1
 144 282 l 1
 479 282 l 1
 478 272 l 1
 142 272 l 1
382 688 m 1
 152 277 l 1
 151 273 l 1
 -2 0 l 1
 -14 0 l 1
 386 715 l 1
 540 0 l 1
 528 0 l 1
 472 273 l 1
 472 276 l 1
 382 688 l 1
290 932 m 1
 300 940 l 1
 438 780 l 1
 434 776 l 1
 290 932 l 1
EndSplineSet
EndChar

StartChar: Aacute
Encoding: 193 193 186
Width: 582
VWidth: 0
Flags: HMW
LayerCount: 2
Fore
SplineSet
142 272 m 1
 144 282 l 1
 479 282 l 1
 478 272 l 1
 142 272 l 1
382 688 m 1
 152 277 l 1
 151 273 l 1
 -2 0 l 1
 -14 0 l 1
 386 715 l 1
 540 0 l 1
 528 0 l 1
 472 273 l 1
 472 276 l 1
 382 688 l 1
556 931 m 1
 359 776 l 1
 356 781 l 1
 549 939 l 1
 556 931 l 1
EndSplineSet
EndChar

StartChar: Acircumflex
Encoding: 194 194 187
Width: 582
VWidth: 0
Flags: HMW
LayerCount: 2
Fore
SplineSet
142 272 m 1
 144 282 l 1
 479 282 l 1
 478 272 l 1
 142 272 l 1
382 688 m 1
 152 277 l 1
 151 273 l 1
 -2 0 l 1
 -14 0 l 1
 386 715 l 1
 540 0 l 1
 528 0 l 1
 472 273 l 1
 472 276 l 1
 382 688 l 1
420 910 m 1
 248 776 l 1
 242 783 l 1
 421 922 l 1
 553 782 l 1
 546 775 l 1
 420 910 l 1
EndSplineSet
EndChar

StartChar: Atilde
Encoding: 195 195 188
Width: 582
VWidth: 0
Flags: HMW
LayerCount: 2
Fore
SplineSet
142 272 m 1
 144 282 l 1
 479 282 l 1
 478 272 l 1
 142 272 l 1
382 688 m 1
 152 277 l 1
 151 273 l 1
 -2 0 l 1
 -14 0 l 1
 386 715 l 1
 540 0 l 1
 528 0 l 1
 472 273 l 1
 472 276 l 1
 382 688 l 1
277 796 m 1
 287 824 306 854 347 854 c 0
 399 854 413 807 460 808 c 0
 489 808 505 828 522 854 c 1
 532 852 l 1
 514 822 491 800 459 800 c 0
 407 800 390 846 348 846 c 0
 312 846 296 820 287 796 c 1
 277 796 l 1
EndSplineSet
EndChar

StartChar: Adieresis
Encoding: 196 196 189
Width: 582
VWidth: 0
Flags: HMW
LayerCount: 2
Fore
SplineSet
142 272 m 1
 144 282 l 1
 479 282 l 1
 478 272 l 1
 142 272 l 1
382 688 m 1
 152 277 l 1
 151 273 l 1
 -2 0 l 1
 -14 0 l 1
 386 715 l 1
 540 0 l 1
 528 0 l 1
 472 273 l 1
 472 276 l 1
 382 688 l 1
488 806 m 0
 488 812 494 817 500 817 c 0
 506 817 510 812 510 806 c 0
 510 800 503 795 497 795 c 0
 491 795 488 800 488 806 c 0
294 806 m 0
 294 812 300 817 306 817 c 0
 312 817 316 812 316 806 c 0
 316 800 309 795 303 795 c 0
 297 795 294 800 294 806 c 0
EndSplineSet
EndChar

StartChar: Aring
Encoding: 197 197 190
Width: 582
VWidth: 0
Flags: HMW
LayerCount: 2
Fore
SplineSet
142 272 m 1
 144 282 l 1
 479 282 l 1
 478 272 l 1
 142 272 l 1
382 688 m 1
 152 277 l 1
 151 273 l 1
 -2 0 l 1
 -14 0 l 1
 386 715 l 1
 540 0 l 1
 528 0 l 1
 472 273 l 1
 472 276 l 1
 382 688 l 1
302 808 m 0
 310 864 365 908 419 908 c 0
 472 908 510 862 502 808 c 0
 494 752 439 708 385 708 c 0
 332 708 294 754 302 808 c 0
312 808 m 0
 305 760 338 719 386 718 c 0
 434 717 484 759 492 808 c 0
 499 856 466 897 418 898 c 0
 370 899 320 857 312 808 c 0
EndSplineSet
EndChar

StartChar: AE
Encoding: 198 198 191
Width: 869
VWidth: 0
Flags: HMW
LayerCount: 2
Fore
SplineSet
222 280 m 1
 223 290 l 1
 505 290 l 1
 503 280 l 1
 222 280 l 1
563 700 m 1
 576 699 l 1
 -10 0 l 1
 -23 0 l 1
 563 700 l 1
455 0 m 1
 457 10 l 1
 766 10 l 1
 765 0 l 1
 455 0 l 1
576 690 m 1
 563 700 l 1
 884 700 l 1
 882 690 l 1
 576 690 l 1
520 384 m 1
 522 394 l 1
 812 394 l 1
 811 384 l 1
 520 384 l 1
568 700 m 1
 580 700 l 1
 458 0 l 1
 448 0 l 1
 568 700 l 1
EndSplineSet
EndChar

StartChar: Ccedilla
Encoding: 199 199 192
Width: 664
VWidth: 0
Flags: HMW
LayerCount: 2
Fore
SplineSet
93 350 m 0
 67 174 153 6 342 4 c 0
 436 4 510 35 576 87 c 1
 572 72 l 1
 506 24 435 -8 341 -8 c 0
 145 -7 54 166 81 350 c 0
 111 546 264 707 462 708 c 0
 550 708 613 681 668 628 c 1
 665 614 l 1
 613 671 545 696 461 696 c 0
 270 695 123 539 93 350 c 0
336 -2 m 1
 348 -2 l 1
 280 -76 l 1
 304 -63 323 -52 352 -54 c 0
 388 -56 415 -86 410 -128 c 0
 403 -185 344 -220 290 -220 c 0
 256 -220 234 -207 210 -183 c 1
 218 -177 l 1
 242 -198 262 -210 292 -210 c 0
 340 -210 393 -179 400 -127 c 0
 404 -90 381 -66 350 -64 c 0
 320 -62 291 -74 267 -88 c 1
 336 -2 l 1
EndSplineSet
EndChar

StartChar: Egrave
Encoding: 200 200 193
Width: 494
VWidth: 0
Flags: HMW
LayerCount: 2
Fore
SplineSet
62 0 m 1
 64 10 l 1
 392 10 l 1
 390 0 l 1
 62 0 l 1
180 690 m 1
 182 700 l 1
 510 700 l 1
 508 690 l 1
 180 690 l 1
128 384 m 1
 130 394 l 1
 438 394 l 1
 436 384 l 1
 128 384 l 1
180 700 m 1
 191 700 l 1
 70 0 l 1
 60 0 l 1
 180 700 l 1
232 925 m 1
 240 932 l 1
 379 773 l 1
 374 768 l 1
 232 925 l 1
EndSplineSet
EndChar

StartChar: Eacute
Encoding: 201 201 194
Width: 494
VWidth: 0
Flags: HMW
LayerCount: 2
Fore
SplineSet
62 0 m 1
 64 10 l 1
 392 10 l 1
 390 0 l 1
 62 0 l 1
180 690 m 1
 182 700 l 1
 510 700 l 1
 508 690 l 1
 180 690 l 1
128 384 m 1
 130 394 l 1
 438 394 l 1
 436 384 l 1
 128 384 l 1
180 700 m 1
 191 700 l 1
 70 0 l 1
 60 0 l 1
 180 700 l 1
535 924 m 1
 338 769 l 1
 335 774 l 1
 528 932 l 1
 535 924 l 1
EndSplineSet
EndChar

StartChar: Ecircumflex
Encoding: 202 202 195
Width: 494
VWidth: 0
Flags: HMW
LayerCount: 2
Fore
SplineSet
62 0 m 1
 64 10 l 1
 392 10 l 1
 390 0 l 1
 62 0 l 1
180 690 m 1
 182 700 l 1
 510 700 l 1
 508 690 l 1
 180 690 l 1
128 384 m 1
 130 394 l 1
 438 394 l 1
 436 384 l 1
 128 384 l 1
180 700 m 1
 191 700 l 1
 70 0 l 1
 60 0 l 1
 180 700 l 1
380 902 m 1
 208 769 l 1
 202 776 l 1
 381 914 l 1
 513 775 l 1
 506 768 l 1
 380 902 l 1
EndSplineSet
EndChar

StartChar: Edieresis
Encoding: 203 203 196
Width: 494
VWidth: 0
Flags: HMW
LayerCount: 2
Fore
SplineSet
62 0 m 1
 64 10 l 1
 392 10 l 1
 390 0 l 1
 62 0 l 1
180 690 m 1
 182 700 l 1
 510 700 l 1
 508 690 l 1
 180 690 l 1
128 384 m 1
 130 394 l 1
 438 394 l 1
 436 384 l 1
 128 384 l 1
180 700 m 1
 191 700 l 1
 70 0 l 1
 60 0 l 1
 180 700 l 1
448 799 m 0
 448 805 454 810 460 810 c 0
 466 810 470 805 470 799 c 0
 470 793 463 788 457 788 c 0
 451 788 448 793 448 799 c 0
254 799 m 0
 254 805 260 810 266 810 c 0
 272 810 276 805 276 799 c 0
 276 793 269 788 263 788 c 0
 257 788 254 793 254 799 c 0
EndSplineSet
EndChar

StartChar: Igrave
Encoding: 204 204 197
Width: 174
VWidth: 0
Flags: HMW
LayerCount: 2
Fore
SplineSet
176 700 m 1
 186 700 l 1
 64 0 l 1
 54 0 l 1
 176 700 l 1
66 925 m 1
 75 932 l 1
 214 773 l 1
 210 768 l 1
 66 925 l 1
EndSplineSet
EndChar

StartChar: Iacute
Encoding: 205 205 198
Width: 174
VWidth: 0
Flags: HMW
LayerCount: 2
Fore
SplineSet
176 700 m 1
 186 700 l 1
 64 0 l 1
 54 0 l 1
 176 700 l 1
370 924 m 1
 174 769 l 1
 170 774 l 1
 364 932 l 1
 370 924 l 1
EndSplineSet
EndChar

StartChar: Icircumflex
Encoding: 206 206 199
Width: 174
VWidth: 0
Flags: HMW
LayerCount: 2
Fore
SplineSet
176 700 m 1
 186 700 l 1
 64 0 l 1
 54 0 l 1
 176 700 l 1
215 902 m 1
 42 769 l 1
 36 776 l 1
 216 914 l 1
 348 775 l 1
 340 768 l 1
 215 902 l 1
EndSplineSet
EndChar

StartChar: Idieresis
Encoding: 207 207 200
Width: 174
VWidth: 0
Flags: HMW
LayerCount: 2
Fore
SplineSet
176 700 m 1
 186 700 l 1
 64 0 l 1
 54 0 l 1
 176 700 l 1
254 799 m 0
 254 805 260 810 266 810 c 0
 272 810 276 805 276 799 c 0
 276 793 269 788 263 788 c 0
 257 788 254 793 254 799 c 0
118 799 m 0
 118 805 124 810 130 810 c 0
 136 810 140 805 140 799 c 0
 140 793 133 788 127 788 c 0
 121 788 118 793 118 799 c 0
EndSplineSet
EndChar

StartChar: Ntilde
Encoding: 209 209 201
Width: 645
VWidth: 0
Flags: HMW
LayerCount: 2
Fore
SplineSet
660 700 m 1
 670 700 l 1
 548 -15 l 1
 148 678 l 1
 32 0 l 1
 20 0 l 1
 144 715 l 1
 542 17 l 1
 660 700 l 1
300 756 m 1
 310 784 329 814 370 814 c 0
 418 814 435 767 482 768 c 0
 511 768 528 788 545 814 c 1
 554 812 l 1
 536 782 513 760 481 760 c 0
 434 760 413 806 371 806 c 0
 334 806 317 780 309 756 c 1
 300 756 l 1
EndSplineSet
EndChar

StartChar: Eth
Encoding: 208 208 202
Width: 659
VWidth: 0
Flags: HMW
LayerCount: 2
Fore
SplineSet
36 345 m 1
 38 355 l 1
 330 355 l 1
 328 345 l 1
 36 345 l 1
180 700 m 1
 191 700 l 1
 70 0 l 1
 60 0 l 1
 180 700 l 1
216 0 m 1
 65 0 l 1
 67 11 l 1
 217 11 l 1
 415 15 559 158 590 350 c 0
 618 532 529 685 334 689 c 1
 182 689 l 1
 184 700 l 1
 334 700 l 1
 535 696 628 538 600 350 c 0
 568 152 420 3 216 0 c 1
EndSplineSet
EndChar

StartChar: Ograve
Encoding: 210 210 203
Width: 751
VWidth: 0
Flags: HMW
LayerCount: 2
Fore
SplineSet
92 350 m 0
 66 172 156 3 348 3 c 0
 542 3 694 162 724 350 c 0
 750 528 660 697 468 697 c 0
 274 697 122 538 92 350 c 0
81 350 m 0
 111 546 270 708 468 708 c 0
 664 708 763 536 736 350 c 0
 706 154 546 -8 348 -8 c 0
 152 -8 54 164 81 350 c 0
375 925 m 1
 384 932 l 1
 522 773 l 1
 516 768 l 1
 375 925 l 1
EndSplineSet
EndChar

StartChar: Oacute
Encoding: 211 211 204
Width: 751
VWidth: 0
Flags: HMW
LayerCount: 2
Fore
SplineSet
92 350 m 0
 66 172 156 3 348 3 c 0
 542 3 694 162 724 350 c 0
 750 528 660 697 468 697 c 0
 274 697 122 538 92 350 c 0
81 350 m 0
 111 546 270 708 468 708 c 0
 664 708 763 536 736 350 c 0
 706 154 546 -8 348 -8 c 0
 152 -8 54 164 81 350 c 0
638 924 m 1
 444 769 l 1
 438 774 l 1
 631 932 l 1
 638 924 l 1
EndSplineSet
EndChar

StartChar: Ocircumflex
Encoding: 212 212 205
Width: 751
VWidth: 0
Flags: HMW
LayerCount: 2
Fore
SplineSet
92 350 m 0
 66 172 156 3 348 3 c 0
 542 3 694 162 724 350 c 0
 750 528 660 697 468 697 c 0
 274 697 122 538 92 350 c 0
81 350 m 0
 111 546 270 708 468 708 c 0
 664 708 763 536 736 350 c 0
 706 154 546 -8 348 -8 c 0
 152 -8 54 164 81 350 c 0
503 902 m 1
 331 769 l 1
 325 776 l 1
 504 914 l 1
 636 775 l 1
 628 768 l 1
 503 902 l 1
EndSplineSet
EndChar

StartChar: Otilde
Encoding: 213 213 206
Width: 751
VWidth: 0
Flags: HMW
LayerCount: 2
Fore
SplineSet
92 350 m 0
 66 172 156 3 348 3 c 0
 542 3 694 162 724 350 c 0
 750 528 660 697 468 697 c 0
 274 697 122 538 92 350 c 0
81 350 m 0
 111 546 270 708 468 708 c 0
 664 708 763 536 736 350 c 0
 706 154 546 -8 348 -8 c 0
 152 -8 54 164 81 350 c 0
361 790 m 1
 370 818 390 846 432 846 c 0
 480 846 497 799 544 800 c 0
 573 800 590 822 607 848 c 1
 614 844 l 1
 596 814 574 792 542 792 c 0
 495 792 475 838 433 838 c 0
 395 838 378 812 369 788 c 1
 361 790 l 1
EndSplineSet
EndChar

StartChar: Odieresis
Encoding: 214 214 207
Width: 751
VWidth: 0
Flags: HMW
LayerCount: 2
Fore
SplineSet
92 350 m 0
 66 172 156 3 348 3 c 0
 542 3 694 162 724 350 c 0
 750 528 660 697 468 697 c 0
 274 697 122 538 92 350 c 0
81 350 m 0
 111 546 270 708 468 708 c 0
 664 708 763 536 736 350 c 0
 706 154 546 -8 348 -8 c 0
 152 -8 54 164 81 350 c 0
582 809 m 0
 582 815 589 820 595 820 c 0
 601 820 604 815 604 809 c 0
 604 803 598 798 592 798 c 0
 586 798 582 803 582 809 c 0
369 809 m 0
 369 815 376 820 382 820 c 0
 388 820 390 815 390 809 c 0
 390 803 384 798 378 798 c 0
 372 798 369 803 369 809 c 0
EndSplineSet
EndChar

StartChar: Ugrave
Encoding: 217 217 208
Width: 558
VWidth: 0
Flags: HMW
LayerCount: 2
Fore
SplineSet
176 700 m 1
 186 700 l 1
 104 220 l 2
 89 104 129 2 252 2 c 0
 375 2 456 98 476 220 c 2
 558 700 l 1
 570 700 l 1
 488 220 l 2
 467 92 386 -10 252 -10 c 0
 118 -10 77 98 93 220 c 2
 176 700 l 1
278 925 m 1
 286 932 l 1
 426 773 l 1
 421 768 l 1
 278 925 l 1
EndSplineSet
EndChar

StartChar: Uacute
Encoding: 218 218 209
Width: 558
VWidth: 0
Flags: HMW
LayerCount: 2
Fore
SplineSet
176 700 m 1
 186 700 l 1
 104 220 l 2
 89 104 129 2 252 2 c 0
 375 2 456 98 476 220 c 2
 558 700 l 1
 570 700 l 1
 488 220 l 2
 467 92 386 -10 252 -10 c 0
 118 -10 77 98 93 220 c 2
 176 700 l 1
543 924 m 1
 346 769 l 1
 343 774 l 1
 536 932 l 1
 543 924 l 1
EndSplineSet
EndChar

StartChar: Ucircumflex
Encoding: 219 219 210
Width: 558
VWidth: 0
Flags: HMW
LayerCount: 2
Fore
SplineSet
176 700 m 1
 186 700 l 1
 104 220 l 2
 89 104 129 2 252 2 c 0
 375 2 456 98 476 220 c 2
 558 700 l 1
 570 700 l 1
 488 220 l 2
 467 92 386 -10 252 -10 c 0
 118 -10 77 98 93 220 c 2
 176 700 l 1
407 902 m 1
 234 769 l 1
 229 776 l 1
 408 914 l 1
 540 775 l 1
 532 768 l 1
 407 902 l 1
EndSplineSet
EndChar

StartChar: Udieresis
Encoding: 220 220 211
Width: 558
VWidth: 0
Flags: HMW
LayerCount: 2
Fore
SplineSet
176 700 m 1
 186 700 l 1
 104 220 l 2
 89 104 129 2 252 2 c 0
 375 2 456 98 476 220 c 2
 558 700 l 1
 570 700 l 1
 488 220 l 2
 467 92 386 -10 252 -10 c 0
 118 -10 77 98 93 220 c 2
 176 700 l 1
462 779 m 0
 462 785 468 790 474 790 c 0
 480 790 484 785 484 779 c 0
 484 773 477 768 471 768 c 0
 465 768 462 773 462 779 c 0
287 779 m 0
 287 785 294 790 300 790 c 0
 306 790 309 785 309 779 c 0
 309 773 302 768 296 768 c 0
 290 768 287 773 287 779 c 0
EndSplineSet
EndChar

StartChar: Yacute
Encoding: 221 221 212
Width: 492
VWidth: 0
Flags: HMW
LayerCount: 2
Fore
SplineSet
528 924 m 1
 332 769 l 1
 328 774 l 1
 522 932 l 1
 528 924 l 1
558 699 m 1
 570 699 l 1
 265 266 l 1
 219 0 l 1
 208 0 l 1
 254 266 l 1
 107 700 l 1
 120 700 l 1
 261 282 l 1
 558 699 l 1
EndSplineSet
EndChar

StartChar: agrave
Encoding: 224 224 213
Width: 525
VWidth: 0
Flags: HMW
LayerCount: 2
Fore
SplineSet
490 460 m 1
 500 460 l 1
 420 0 l 1
 410 0 l 1
 490 460 l 1
56 230 m 0
 76 362 177 472 303 470 c 0
 427 468 471 336 455 230 c 0
 437 116 347 -10 222 -10 c 0
 96 -10 39 106 56 230 c 0
66 230 m 0
 50 111 104 -1 226 0 c 0
 340 1 432 120 450 230 c 0
 465 332 419 458 305 460 c 0
 183 462 85 356 66 230 c 0
248 697 m 1
 258 704 l 1
 396 545 l 1
 392 540 l 1
 248 697 l 1
EndSplineSet
Substitution2: "alt a" agrave.alt
EndChar

StartChar: aacute
Encoding: 225 225 214
Width: 525
VWidth: 0
Flags: HMW
LayerCount: 2
Fore
SplineSet
490 460 m 1
 500 460 l 1
 420 0 l 1
 410 0 l 1
 490 460 l 1
56 230 m 0
 76 362 177 472 303 470 c 0
 427 468 471 336 455 230 c 0
 437 116 347 -10 222 -10 c 0
 96 -10 39 106 56 230 c 0
66 230 m 0
 50 111 104 -1 226 0 c 0
 340 1 432 120 450 230 c 0
 465 332 419 458 305 460 c 0
 183 462 85 356 66 230 c 0
436 696 m 1
 240 541 l 1
 236 546 l 1
 429 704 l 1
 436 696 l 1
EndSplineSet
Substitution2: "alt a" aacute.alt
EndChar

StartChar: acircumflex
Encoding: 226 226 215
Width: 525
VWidth: 0
Flags: HMW
LayerCount: 2
Fore
SplineSet
490 460 m 1
 500 460 l 1
 420 0 l 1
 410 0 l 1
 490 460 l 1
56 230 m 0
 76 362 177 472 303 470 c 0
 427 468 471 336 455 230 c 0
 437 116 347 -10 222 -10 c 0
 96 -10 39 106 56 230 c 0
66 230 m 0
 50 111 104 -1 226 0 c 0
 340 1 432 120 450 230 c 0
 465 332 419 458 305 460 c 0
 183 462 85 356 66 230 c 0
340 684 m 1
 168 551 l 1
 162 558 l 1
 342 696 l 1
 474 557 l 1
 466 550 l 1
 340 684 l 1
EndSplineSet
Substitution2: "alt a" acircumflex.alt
EndChar

StartChar: atilde
Encoding: 227 227 216
Width: 525
VWidth: 0
Flags: HMW
LayerCount: 2
Fore
SplineSet
490 460 m 1
 500 460 l 1
 420 0 l 1
 410 0 l 1
 490 460 l 1
56 230 m 0
 76 362 177 472 303 470 c 0
 427 468 471 336 455 230 c 0
 437 116 347 -10 222 -10 c 0
 96 -10 39 106 56 230 c 0
66 230 m 0
 50 111 104 -1 226 0 c 0
 340 1 432 120 450 230 c 0
 465 332 419 458 305 460 c 0
 183 462 85 356 66 230 c 0
194 552 m 1
 187 578 234 608 264 608 c 0
 312 608 330 561 377 562 c 0
 406 562 423 584 440 610 c 1
 450 606 l 1
 432 576 408 554 376 554 c 0
 329 554 308 600 266 600 c 0
 230 600 213 574 204 550 c 1
 194 552 l 1
EndSplineSet
Substitution2: "alt a" atilde.alt
EndChar

StartChar: adieresis
Encoding: 228 228 217
Width: 525
VWidth: 0
Flags: HMW
LayerCount: 2
Fore
SplineSet
490 460 m 1
 500 460 l 1
 420 0 l 1
 410 0 l 1
 490 460 l 1
56 230 m 0
 76 362 177 472 303 470 c 0
 427 468 471 336 455 230 c 0
 437 116 347 -10 222 -10 c 0
 96 -10 39 106 56 230 c 0
66 230 m 0
 50 111 104 -1 226 0 c 0
 340 1 432 120 450 230 c 0
 465 332 419 458 305 460 c 0
 183 462 85 356 66 230 c 0
420 591 m 0
 420 597 426 602 432 602 c 0
 438 602 442 597 442 591 c 0
 442 585 435 580 429 580 c 0
 423 580 420 585 420 591 c 0
226 591 m 0
 226 597 232 602 238 602 c 0
 244 602 248 597 248 591 c 0
 248 585 241 580 235 580 c 0
 229 580 226 585 226 591 c 0
EndSplineSet
Substitution2: "alt a" adieresis.alt
EndChar

StartChar: aring
Encoding: 229 229 218
Width: 525
VWidth: 0
Flags: HMW
LayerCount: 2
Fore
SplineSet
490 460 m 1
 500 460 l 1
 420 0 l 1
 410 0 l 1
 490 460 l 1
56 230 m 0
 76 362 177 472 303 470 c 0
 427 468 471 336 455 230 c 0
 437 116 347 -10 222 -10 c 0
 96 -10 39 106 56 230 c 0
66 230 m 0
 50 111 104 -1 226 0 c 0
 340 1 432 120 450 230 c 0
 465 332 419 458 305 460 c 0
 183 462 85 356 66 230 c 0
232 630 m 0
 240 686 294 730 348 730 c 0
 401 730 438 684 430 630 c 0
 422 574 368 530 314 530 c 0
 261 530 224 576 232 630 c 0
241 630 m 0
 234 582 266 541 314 540 c 0
 362 539 412 581 420 630 c 0
 427 678 395 719 347 720 c 0
 299 721 249 679 241 630 c 0
EndSplineSet
Substitution2: "alt a" aring.alt
EndChar

StartChar: germandbls
Encoding: 223 223 219
Width: 530
VWidth: 0
Flags: HMW
LayerCount: 2
Fore
SplineSet
285 -10 m 0
 229 -10 167 12 135 46 c 1
 142 52 l 1
 174 20 231 0 285 0 c 0
 396 0 481 106 481 230 c 0
 481 394 325 342 325 430 c 0
 325 499 486 513 486 653 c 0
 486 730 429 784 353 784 c 0
 257 784 178 690 160 580 c 2
 60 0 l 1
 50 0 l 1
 149 578 l 2
 168 696 251 794 353 794 c 0
 434 794 496 738 496 653 c 0
 496 506 335 494 335 429 c 0
 335 353 491 400 491 232 c 0
 491 98 401 -10 285 -10 c 0
EndSplineSet
EndChar

StartChar: ae
Encoding: 230 230 220
Width: 825
VWidth: 0
Flags: HMW
LayerCount: 2
Fore
SplineSet
158 -10 m 0
 68 -10 13 50 27 132 c 0
 42 222 126 281 237 281 c 0
 294 281 341 263 364 234 c 1
 359 233 l 1
 374 320 l 2
 389 411 358 460 280 460 c 0
 226 460 164 437 115 395 c 1
 110 403 l 1
 161 445 224 470 282 470 c 0
 374 470 404 408 376 282 c 1
 372 282 l 1
 410 391 515 470 624 470 c 0
 738 470 814 374 794 253 c 0
 792 243 791 241 787 228 c 1
 364 228 l 1
 370 230 l 1
 346 90 408 0 528 0 c 0
 612 0 696 41 755 113 c 1
 762 107 l 1
 704 33 619 -10 529 -10 c 0
 417 -10 353 58 356 178 c 1
 361 178 l 1
 329 59 254 -10 158 -10 c 0
158 0 m 0
 252 0 327 73 358 198 c 1
 354 179 l 1
 358 230 l 1
 360 224 l 1
 338 253 292 271 236 271 c 0
 132 271 51 214 37 132 c 0
 25 56 75 0 158 0 c 0
370 236 m 1
 366 238 l 1
 786 238 l 1
 778 234 l 1
 780 238 781 244 783 252 c 0
 803 368 731 460 621 460 c 0
 503 460 390 360 370 236 c 1
EndSplineSet
EndChar

StartChar: ccedilla
Encoding: 231 231 221
Width: 473
VWidth: 0
Flags: HMW
LayerCount: 2
Fore
SplineSet
60 230 m 0
 42 110 112 0 238 0 c 0
 306 0 363 32 399 60 c 1
 397 48 l 1
 361 20 302 -10 236 -10 c 0
 104 -10 32 105 50 230 c 0
 70 362 184 470 318 470 c 0
 380 470 431 443 459 412 c 1
 457 400 l 1
 431 432 379 460 317 460 c 0
 189 460 80 356 60 230 c 0
232 -4 m 1
 244 -4 l 1
 176 -78 l 1
 200 -65 219 -54 248 -56 c 0
 284 -58 311 -88 306 -130 c 0
 299 -187 240 -222 186 -222 c 0
 152 -222 130 -209 106 -185 c 1
 114 -179 l 1
 138 -200 158 -212 188 -212 c 0
 236 -212 289 -181 296 -129 c 0
 300 -92 277 -68 246 -66 c 0
 216 -64 187 -76 163 -90 c 1
 232 -4 l 1
EndSplineSet
EndChar

StartChar: egrave
Encoding: 232 232 222
Width: 487
VWidth: 0
Flags: HMW
LayerCount: 2
Fore
SplineSet
68 228 m 1
 70 238 l 1
 452 238 l 1
 474 344 416 458 302 459 c 0
 187 460 90 357 72 233 c 1
 72 232 l 1
 60 118 109 1 225 0 c 0
 325 -1 384 58 428 112 c 1
 436 106 l 1
 390 52 332 -10 224 -10 c 0
 102 -10 48 112 62 232 c 0
 66 258 74 284 84 308 c 0
 122 396 202 470 302 470 c 0
 412 469 480 364 466 254 c 0
 464 246 462 236 460 228 c 1
 68 228 l 1
175 686 m 1
 183 694 l 1
 325 534 l 1
 319 530 l 1
 175 686 l 1
EndSplineSet
EndChar

StartChar: eacute
Encoding: 233 233 223
Width: 487
VWidth: 0
Flags: HMW
LayerCount: 2
Fore
SplineSet
68 228 m 1
 70 238 l 1
 452 238 l 1
 474 344 416 458 302 459 c 0
 187 460 90 357 72 233 c 1
 72 232 l 1
 60 118 109 1 225 0 c 0
 325 -1 384 58 428 112 c 1
 436 106 l 1
 390 52 332 -10 224 -10 c 0
 102 -10 48 112 62 232 c 0
 66 258 74 284 84 308 c 0
 122 396 202 470 302 470 c 0
 412 469 480 364 466 254 c 0
 464 246 462 236 460 228 c 1
 68 228 l 1
487 685 m 1
 295 530 l 1
 290 535 l 1
 480 693 l 1
 487 685 l 1
EndSplineSet
EndChar

StartChar: ecircumflex
Encoding: 234 234 224
Width: 487
VWidth: 0
Flags: HMW
LayerCount: 2
Fore
SplineSet
68 228 m 1
 70 238 l 1
 452 238 l 1
 474 344 416 458 302 459 c 0
 187 460 90 357 72 233 c 1
 72 232 l 1
 60 118 109 1 225 0 c 0
 325 -1 384 58 428 112 c 1
 436 106 l 1
 390 52 332 -10 224 -10 c 0
 102 -10 48 112 62 232 c 0
 66 258 74 284 84 308 c 0
 122 396 202 470 302 470 c 0
 412 469 480 364 466 254 c 0
 464 246 462 236 460 228 c 1
 68 228 l 1
330 664 m 1
 158 531 l 1
 152 538 l 1
 331 676 l 1
 463 537 l 1
 456 530 l 1
 330 664 l 1
EndSplineSet
EndChar

StartChar: edieresis
Encoding: 235 235 225
Width: 487
VWidth: 0
Flags: HMW
LayerCount: 2
Fore
SplineSet
68 228 m 1
 70 238 l 1
 452 238 l 1
 474 344 416 458 302 459 c 0
 187 460 90 357 72 233 c 1
 72 232 l 1
 60 118 109 1 225 0 c 0
 325 -1 384 58 428 112 c 1
 436 106 l 1
 390 52 332 -10 224 -10 c 0
 102 -10 48 112 62 232 c 0
 66 258 74 284 84 308 c 0
 122 396 202 470 302 470 c 0
 412 469 480 364 466 254 c 0
 464 246 462 236 460 228 c 1
 68 228 l 1
394 541 m 0
 394 547 400 552 406 552 c 0
 412 552 416 547 416 541 c 0
 416 535 409 530 403 530 c 0
 397 530 394 535 394 541 c 0
200 541 m 0
 200 547 206 552 212 552 c 0
 218 552 222 547 222 541 c 0
 222 535 215 530 209 530 c 0
 203 530 200 535 200 541 c 0
EndSplineSet
EndChar

StartChar: igrave
Encoding: 236 236 226
Width: 184
VWidth: 0
Flags: HMW
LayerCount: 2
Fore
SplineSet
140 460 m 1
 149 460 l 1
 70 0 l 1
 60 0 l 1
 140 460 l 1
32 687 m 1
 40 694 l 1
 179 535 l 1
 172 530 l 1
 32 687 l 1
EndSplineSet
EndChar

StartChar: dotlessi
Encoding: 305 305 227
Width: 184
VWidth: 0
Flags: HMW
LayerCount: 2
Fore
SplineSet
140 460 m 1
 149 460 l 1
 70 0 l 1
 60 0 l 1
 140 460 l 1
EndSplineSet
EndChar

StartChar: kgreenlandic
Encoding: 312 312 228
Width: 361
VWidth: 0
Flags: HMW
LayerCount: 2
Fore
SplineSet
130 460 m 1
 140 460 l 1
 60 0 l 1
 50 0 l 1
 130 460 l 1
370 459 m 1
 386 459 l 1
 118 270 l 1
 324 0 l 1
 311 0 l 1
 104 270 l 1
 370 459 l 1
EndSplineSet
EndChar

StartChar: iacute
Encoding: 237 237 229
Width: 184
VWidth: 0
Flags: HMW
LayerCount: 2
Fore
SplineSet
140 460 m 1
 149 460 l 1
 70 0 l 1
 60 0 l 1
 140 460 l 1
334 686 m 1
 139 531 l 1
 134 536 l 1
 326 694 l 1
 334 686 l 1
EndSplineSet
EndChar

StartChar: icircumflex
Encoding: 238 238 230
Width: 184
VWidth: 0
Flags: HMW
LayerCount: 2
Fore
SplineSet
140 460 m 1
 149 460 l 1
 70 0 l 1
 60 0 l 1
 140 460 l 1
179 664 m 1
 7 531 l 1
 1 538 l 1
 180 676 l 1
 312 537 l 1
 304 530 l 1
 179 664 l 1
EndSplineSet
EndChar

StartChar: idieresis
Encoding: 239 239 231
Width: 184
VWidth: 0
Flags: HMW
LayerCount: 2
Fore
SplineSet
140 460 m 1
 149 460 l 1
 70 0 l 1
 60 0 l 1
 140 460 l 1
224 541 m 0
 224 547 230 552 236 552 c 0
 242 552 246 547 246 541 c 0
 246 535 240 530 234 530 c 0
 228 530 224 535 224 541 c 0
69 541 m 0
 69 547 76 552 82 552 c 0
 88 552 90 547 90 541 c 0
 90 535 84 530 78 530 c 0
 72 530 69 535 69 541 c 0
EndSplineSet
EndChar

StartChar: ntilde
Encoding: 241 241 232
Width: 460
VWidth: 0
Flags: HMW
LayerCount: 2
Fore
SplineSet
144 460 m 1
 64 0 l 1
 54 0 l 1
 134 460 l 1
 144 460 l 1
396 320 m 2
 406 392 388 459 302 460 c 0
 206 461 132 369 112 281 c 1
 107 281 l 1
 127 379 200 470 302 470 c 0
 394 470 416 399 406 320 c 2
 350 0 l 1
 341 0 l 1
 396 320 l 2
175 552 m 1
 185 580 204 608 245 608 c 0
 293 608 311 561 358 562 c 0
 387 562 403 584 420 610 c 1
 430 606 l 1
 412 576 388 554 356 554 c 0
 309 554 288 600 246 600 c 0
 209 600 192 574 184 550 c 1
 175 552 l 1
EndSplineSet
EndChar

StartChar: ograve
Encoding: 242 242 233
Width: 539
VWidth: 0
Flags: HMW
LayerCount: 2
Fore
SplineSet
56 230 m 0
 76 361 188 470 322 470 c 0
 454 470 526 355 508 230 c 0
 488 99 376 -10 242 -10 c 0
 110 -10 38 105 56 230 c 0
66 230 m 0
 48 110 116 0 242 0 c 0
 370 0 478 104 498 230 c 0
 516 350 448 460 322 460 c 0
 194 460 86 356 66 230 c 0
228 687 m 1
 236 694 l 1
 375 535 l 1
 370 530 l 1
 228 687 l 1
EndSplineSet
EndChar

StartChar: oacute
Encoding: 243 243 234
Width: 539
VWidth: 0
Flags: HMW
LayerCount: 2
Fore
SplineSet
56 230 m 0
 76 361 188 470 322 470 c 0
 454 470 526 355 508 230 c 0
 488 99 376 -10 242 -10 c 0
 110 -10 38 105 56 230 c 0
66 230 m 0
 48 110 116 0 242 0 c 0
 370 0 478 104 498 230 c 0
 516 350 448 460 322 460 c 0
 194 460 86 356 66 230 c 0
492 686 m 1
 296 531 l 1
 292 536 l 1
 486 694 l 1
 492 686 l 1
EndSplineSet
EndChar

StartChar: ocircumflex
Encoding: 244 244 235
Width: 539
VWidth: 0
Flags: HMW
LayerCount: 2
Fore
SplineSet
56 230 m 0
 76 361 188 470 322 470 c 0
 454 470 526 355 508 230 c 0
 488 99 376 -10 242 -10 c 0
 110 -10 38 105 56 230 c 0
66 230 m 0
 48 110 116 0 242 0 c 0
 370 0 478 104 498 230 c 0
 516 350 448 460 322 460 c 0
 194 460 86 356 66 230 c 0
360 684 m 1
 188 551 l 1
 182 558 l 1
 362 696 l 1
 494 557 l 1
 486 550 l 1
 360 684 l 1
EndSplineSet
EndChar

StartChar: otilde
Encoding: 245 245 236
Width: 539
VWidth: 0
Flags: HMW
LayerCount: 2
Fore
SplineSet
56 230 m 0
 76 361 188 470 322 470 c 0
 454 470 526 355 508 230 c 0
 488 99 376 -10 242 -10 c 0
 110 -10 38 105 56 230 c 0
66 230 m 0
 48 110 116 0 242 0 c 0
 370 0 478 104 498 230 c 0
 516 350 448 460 322 460 c 0
 194 460 86 356 66 230 c 0
214 552 m 1
 207 578 254 608 284 608 c 0
 332 608 349 561 396 562 c 0
 425 562 443 584 460 610 c 1
 469 606 l 1
 451 576 428 554 396 554 c 0
 349 554 328 600 286 600 c 0
 250 600 233 574 224 550 c 1
 214 552 l 1
EndSplineSet
EndChar

StartChar: odieresis
Encoding: 246 246 237
Width: 539
VWidth: 0
Flags: HMW
LayerCount: 2
Fore
SplineSet
56 230 m 0
 76 361 188 470 322 470 c 0
 454 470 526 355 508 230 c 0
 488 99 376 -10 242 -10 c 0
 110 -10 38 105 56 230 c 0
66 230 m 0
 48 110 116 0 242 0 c 0
 370 0 478 104 498 230 c 0
 516 350 448 460 322 460 c 0
 194 460 86 356 66 230 c 0
424 561 m 0
 424 567 431 572 437 572 c 0
 443 572 446 567 446 561 c 0
 446 555 440 550 434 550 c 0
 428 550 424 555 424 561 c 0
230 561 m 0
 230 567 237 572 243 572 c 0
 249 572 252 567 252 561 c 0
 252 555 246 550 240 550 c 0
 234 550 230 555 230 561 c 0
EndSplineSet
EndChar

StartChar: ugrave
Encoding: 249 249 238
Width: 460
VWidth: 0
Flags: HMW
LayerCount: 2
Fore
SplineSet
341 0 m 1
 420 460 l 1
 430 460 l 1
 351 0 l 1
 341 0 l 1
90 150 m 2
 80 72 95 0 184 0 c 0
 280 -1 353 91 373 179 c 1
 378 179 l 1
 358 81 285 -11 183 -10 c 0
 88 -10 69 66 80 150 c 2
 134 460 l 1
 144 460 l 1
 90 150 l 2
171 697 m 1
 180 704 l 1
 318 545 l 1
 313 540 l 1
 171 697 l 1
EndSplineSet
EndChar

StartChar: uacute
Encoding: 250 250 239
Width: 460
VWidth: 0
Flags: HMW
LayerCount: 2
Fore
SplineSet
341 0 m 1
 420 460 l 1
 430 460 l 1
 351 0 l 1
 341 0 l 1
90 150 m 2
 80 72 95 0 184 0 c 0
 280 -1 353 91 373 179 c 1
 378 179 l 1
 358 81 285 -11 183 -10 c 0
 88 -10 69 66 80 150 c 2
 134 460 l 1
 144 460 l 1
 90 150 l 2
474 696 m 1
 278 541 l 1
 274 546 l 1
 467 704 l 1
 474 696 l 1
EndSplineSet
EndChar

StartChar: ucircumflex
Encoding: 251 251 240
Width: 460
VWidth: 0
Flags: HMW
LayerCount: 2
Fore
SplineSet
341 0 m 1
 420 460 l 1
 430 460 l 1
 351 0 l 1
 341 0 l 1
90 150 m 2
 80 72 95 0 184 0 c 0
 280 -1 353 91 373 179 c 1
 378 179 l 1
 358 81 285 -11 183 -10 c 0
 88 -10 69 66 80 150 c 2
 134 460 l 1
 144 460 l 1
 90 150 l 2
320 674 m 1
 146 541 l 1
 142 548 l 1
 321 686 l 1
 453 547 l 1
 444 540 l 1
 320 674 l 1
EndSplineSet
EndChar

StartChar: udieresis
Encoding: 252 252 241
Width: 460
VWidth: 0
Flags: HMW
LayerCount: 2
Fore
SplineSet
341 0 m 1
 420 460 l 1
 430 460 l 1
 351 0 l 1
 341 0 l 1
90 150 m 2
 80 72 95 0 184 0 c 0
 280 -1 353 91 373 179 c 1
 378 179 l 1
 358 81 285 -11 183 -10 c 0
 88 -10 69 66 80 150 c 2
 134 460 l 1
 144 460 l 1
 90 150 l 2
366 562 m 0
 366 568 373 572 379 572 c 0
 385 572 387 567 387 561 c 0
 387 555 382 550 376 550 c 0
 370 550 366 556 366 562 c 0
210 562 m 0
 210 568 218 572 224 572 c 0
 230 572 232 567 232 561 c 0
 232 555 226 550 220 550 c 0
 214 550 210 556 210 562 c 0
EndSplineSet
EndChar

StartChar: yacute
Encoding: 253 253 242
Width: 412
VWidth: 0
Flags: HMW
LayerCount: 2
Fore
SplineSet
455 460 m 1
 46 -220 l 1
 36 -219 l 1
 180 20 l 1
 61 460 l 1
 73 460 l 1
 190 20 l 1
 180 20 l 1
 444 460 l 1
 455 460 l 1
448 686 m 1
 252 531 l 1
 248 536 l 1
 441 694 l 1
 448 686 l 1
EndSplineSet
EndChar

StartChar: thorn
Encoding: 254 254 243
Width: 525
VWidth: 0
Flags: HMW
LayerCount: 2
Fore
SplineSet
22 -220 m 1
 12 -220 l 1
 184 780 l 1
 194 780 l 1
 22 -220 l 1
494 230 m 0
 474 98 372 -12 246 -10 c 0
 122 -8 78 124 94 230 c 0
 112 344 202 470 327 470 c 0
 453 470 511 354 494 230 c 0
484 230 m 0
 500 349 446 461 324 460 c 0
 210 459 118 340 100 230 c 0
 85 128 130 2 244 0 c 0
 366 -2 465 104 484 230 c 0
EndSplineSet
EndChar

StartChar: ydieresis
Encoding: 255 255 244
Width: 412
VWidth: 0
Flags: HMW
LayerCount: 2
Fore
SplineSet
455 460 m 1
 46 -220 l 1
 36 -219 l 1
 180 20 l 1
 61 460 l 1
 73 460 l 1
 190 20 l 1
 180 20 l 1
 444 460 l 1
 455 460 l 1
342 561 m 0
 342 567 348 572 354 572 c 0
 360 572 364 566 364 560 c 0
 364 554 356 550 350 550 c 0
 344 550 342 555 342 561 c 0
187 561 m 0
 187 567 192 572 198 572 c 0
 204 572 208 566 208 560 c 0
 208 554 201 550 195 550 c 0
 189 550 187 555 187 561 c 0
EndSplineSet
EndChar

StartChar: Amacron
Encoding: 256 256 245
Width: 582
VWidth: 0
Flags: HMW
LayerCount: 2
Fore
SplineSet
142 272 m 1
 144 282 l 1
 479 282 l 1
 478 272 l 1
 142 272 l 1
382 688 m 1
 152 277 l 1
 151 273 l 1
 -2 0 l 1
 -14 0 l 1
 386 715 l 1
 540 0 l 1
 528 0 l 1
 472 273 l 1
 472 276 l 1
 382 688 l 1
230 795 m 1
 232 805 l 1
 572 805 l 1
 570 795 l 1
 230 795 l 1
EndSplineSet
EndChar

StartChar: amacron
Encoding: 257 257 246
Width: 525
VWidth: 0
Flags: HMW
LayerCount: 2
Fore
SplineSet
490 460 m 1
 500 460 l 1
 420 0 l 1
 410 0 l 1
 490 460 l 1
56 230 m 0
 76 362 177 472 303 470 c 0
 427 468 471 336 455 230 c 0
 437 116 347 -10 222 -10 c 0
 96 -10 39 106 56 230 c 0
66 230 m 0
 50 111 104 -1 226 0 c 0
 340 1 432 120 450 230 c 0
 465 332 419 458 305 460 c 0
 183 462 85 356 66 230 c 0
147 550 m 1
 149 560 l 1
 488 560 l 1
 487 550 l 1
 147 550 l 1
EndSplineSet
Substitution2: "alt a" amacron.alt
EndChar

StartChar: breve
Encoding: 728 728 247
Width: 529
VWidth: 0
Flags: HMW
LayerCount: 2
Fore
SplineSet
226 850 m 1
 235 850 l 1
 231 782 272 720 358 720 c 0
 446 720 505 782 523 850 c 1
 533 849 l 1
 514 777 456 710 358 710 c 0
 262 710 220 777 226 850 c 1
EndSplineSet
EndChar

StartChar: Abreve
Encoding: 258 258 248
Width: 582
VWidth: 0
Flags: HMW
LayerCount: 2
Fore
SplineSet
142 272 m 1
 144 282 l 1
 479 282 l 1
 478 272 l 1
 142 272 l 1
382 688 m 1
 152 277 l 1
 151 273 l 1
 -2 0 l 1
 -14 0 l 1
 386 715 l 1
 540 0 l 1
 528 0 l 1
 472 273 l 1
 472 276 l 1
 382 688 l 1
268 925 m 1
 278 925 l 1
 272 857 313 796 399 796 c 0
 487 796 546 857 566 924 c 1
 576 924 l 1
 556 852 496 786 398 786 c 0
 302 786 261 852 268 925 c 1
EndSplineSet
EndChar

StartChar: abreve
Encoding: 259 259 249
Width: 525
VWidth: 0
Flags: HMW
LayerCount: 2
Fore
SplineSet
490 460 m 1
 500 460 l 1
 420 0 l 1
 410 0 l 1
 490 460 l 1
56 230 m 0
 76 362 177 472 303 470 c 0
 427 468 471 336 455 230 c 0
 437 116 347 -10 222 -10 c 0
 96 -10 39 106 56 230 c 0
66 230 m 0
 50 111 104 -1 226 0 c 0
 340 1 432 120 450 230 c 0
 465 332 419 458 305 460 c 0
 183 462 85 356 66 230 c 0
188 690 m 1
 198 690 l 1
 192 622 232 560 318 560 c 0
 406 560 466 622 486 689 c 1
 496 689 l 1
 476 617 416 550 318 550 c 0
 222 550 181 617 188 690 c 1
EndSplineSet
Substitution2: "alt a" abreve.alt
EndChar

StartChar: Aogonek
Encoding: 260 260 250
Width: 582
VWidth: 0
Flags: HMW
LayerCount: 2
Fore
SplineSet
144 272 m 1
 146 282 l 1
 479 282 l 1
 478 272 l 1
 144 272 l 1
382 688 m 1
 152 277 l 1
 151 273 l 1
 -2 0 l 1
 -14 0 l 1
 386 715 l 1
 540 0 l 1
 528 0 l 1
 472 273 l 1
 472 276 l 1
 382 688 l 1
544 -174 m 1
 550 -181 l 1
 526 -201 489 -220 448 -220 c 0
 392 -220 354 -190 361 -140 c 0
 372 -66 468 -22 536 10 c 1
 541 0 l 1
 476 -31 381 -74 371 -140 c 0
 365 -185 404 -210 449 -210 c 0
 487 -210 522 -192 544 -174 c 1
EndSplineSet
EndChar

StartChar: aogonek
Encoding: 261 261 251
Width: 525
VWidth: 0
Flags: HMW
LayerCount: 2
Fore
SplineSet
490 460 m 1
 500 460 l 1
 420 0 l 1
 410 0 l 1
 490 460 l 1
56 230 m 0
 76 362 177 472 303 470 c 0
 427 468 471 336 455 230 c 0
 437 116 347 -10 222 -10 c 0
 96 -10 39 106 56 230 c 0
66 230 m 0
 50 111 104 -1 226 0 c 0
 340 1 432 120 450 230 c 0
 465 332 419 458 305 460 c 0
 183 462 85 356 66 230 c 0
424 -174 m 1
 430 -181 l 1
 406 -201 369 -220 328 -220 c 0
 272 -220 233 -190 240 -140 c 0
 251 -66 348 -23 416 10 c 1
 421 0 l 1
 356 -31 260 -74 250 -140 c 0
 244 -185 283 -210 328 -210 c 0
 366 -210 402 -192 424 -174 c 1
EndSplineSet
Substitution2: "alt a" aogonek.alt
EndChar

StartChar: Cacute
Encoding: 262 262 252
Width: 664
VWidth: 0
Flags: HMW
LayerCount: 2
Fore
SplineSet
93 350 m 0
 67 174 153 6 342 4 c 0
 436 4 510 35 576 87 c 1
 572 72 l 1
 506 24 435 -8 341 -8 c 0
 145 -7 54 166 81 350 c 0
 111 546 264 707 462 708 c 0
 550 708 613 681 668 628 c 1
 665 614 l 1
 613 671 545 696 461 696 c 0
 270 695 123 539 93 350 c 0
632 924 m 1
 436 769 l 1
 432 774 l 1
 626 932 l 1
 632 924 l 1
EndSplineSet
EndChar

StartChar: cacute
Encoding: 263 263 253
Width: 473
VWidth: 0
Flags: HMW
LayerCount: 2
Fore
SplineSet
60 230 m 0
 42 110 112 0 238 0 c 0
 306 0 363 32 399 60 c 1
 397 48 l 1
 361 20 302 -10 236 -10 c 0
 104 -10 32 105 50 230 c 0
 70 362 184 470 318 470 c 0
 380 470 431 443 459 412 c 1
 457 400 l 1
 431 432 379 460 317 460 c 0
 189 460 80 356 60 230 c 0
498 696 m 1
 304 541 l 1
 298 546 l 1
 492 704 l 1
 498 696 l 1
EndSplineSet
EndChar

StartChar: Ccircumflex
Encoding: 264 264 254
Width: 664
VWidth: 0
Flags: HMW
LayerCount: 2
Fore
SplineSet
93 350 m 0
 67 174 153 6 342 4 c 0
 436 4 510 35 576 87 c 1
 572 72 l 1
 506 24 435 -8 341 -8 c 0
 145 -6 54 166 81 350 c 0
 111 546 264 707 462 708 c 0
 550 708 613 681 668 628 c 1
 665 614 l 1
 613 671 545 696 461 696 c 0
 270 695 123 539 93 350 c 0
496 902 m 1
 324 769 l 1
 318 776 l 1
 498 914 l 1
 630 775 l 1
 622 768 l 1
 496 902 l 1
EndSplineSet
EndChar

StartChar: ccircumflex
Encoding: 265 265 255
Width: 473
VWidth: 0
Flags: HMW
LayerCount: 2
Fore
SplineSet
60 230 m 0
 42 110 112 0 238 0 c 0
 306 0 363 32 399 60 c 1
 397 48 l 1
 361 20 302 -10 236 -10 c 0
 104 -10 32 105 50 230 c 0
 70 362 184 470 318 470 c 0
 380 470 431 443 459 412 c 1
 457 400 l 1
 431 432 379 460 317 460 c 0
 189 460 80 356 60 230 c 0
352 664 m 1
 180 531 l 1
 174 538 l 1
 353 676 l 1
 485 537 l 1
 478 530 l 1
 352 664 l 1
EndSplineSet
EndChar

StartChar: Cdotaccent
Encoding: 266 266 256
Width: 664
VWidth: 0
Flags: HMW
LayerCount: 2
Fore
SplineSet
93 350 m 0
 67 174 153 6 342 4 c 0
 436 4 510 35 576 87 c 1
 572 72 l 1
 506 24 435 -8 341 -8 c 0
 145 -7 54 166 81 350 c 0
 111 546 264 707 462 708 c 0
 550 708 613 681 668 628 c 1
 665 614 l 1
 613 671 545 696 461 696 c 0
 270 695 123 539 93 350 c 0
466 789 m 0
 466 795 472 800 478 800 c 0
 484 800 487 795 487 789 c 0
 487 783 480 778 474 778 c 0
 468 778 466 783 466 789 c 0
EndSplineSet
EndChar

StartChar: cdotaccent
Encoding: 267 267 257
Width: 473
VWidth: 0
Flags: HMW
LayerCount: 2
Fore
SplineSet
60 230 m 0
 42 110 112 0 238 0 c 0
 306 0 363 32 399 60 c 1
 397 48 l 1
 361 20 302 -10 236 -10 c 0
 104 -10 32 105 50 230 c 0
 70 362 184 470 318 470 c 0
 380 470 431 443 459 412 c 1
 457 400 l 1
 431 432 379 460 317 460 c 0
 189 460 80 356 60 230 c 0
321 551 m 0
 321 557 328 562 334 562 c 0
 340 562 342 557 342 551 c 0
 342 545 336 540 330 540 c 0
 324 540 321 545 321 551 c 0
EndSplineSet
EndChar

StartChar: Ccaron
Encoding: 268 268 258
Width: 664
VWidth: 0
Flags: HMW
LayerCount: 2
Fore
SplineSet
93 350 m 0
 67 174 153 6 342 4 c 0
 436 4 510 35 576 87 c 1
 572 72 l 1
 506 24 435 -8 341 -8 c 0
 145 -6 54 166 81 350 c 0
 111 546 264 707 462 708 c 0
 550 708 613 681 668 628 c 1
 665 614 l 1
 613 671 545 696 461 696 c 0
 270 695 123 539 93 350 c 0
476 790 m 1
 648 925 l 1
 654 917 l 1
 474 778 l 1
 342 918 l 1
 352 926 l 1
 476 790 l 1
EndSplineSet
EndChar

StartChar: ccaron
Encoding: 269 269 259
Width: 473
VWidth: 0
Flags: HMW
LayerCount: 2
Fore
SplineSet
60 230 m 0
 42 110 112 0 238 0 c 0
 306 0 363 32 399 60 c 1
 397 48 l 1
 361 20 302 -10 236 -10 c 0
 104 -10 32 105 50 230 c 0
 70 362 184 470 318 470 c 0
 380 470 431 443 459 412 c 1
 457 400 l 1
 431 432 379 460 317 460 c 0
 189 460 80 356 60 230 c 0
333 562 m 1
 504 697 l 1
 512 689 l 1
 332 550 l 1
 200 690 l 1
 208 698 l 1
 333 562 l 1
EndSplineSet
EndChar

StartChar: Dcaron
Encoding: 270 270 260
Width: 616
VWidth: 0
Flags: HMW
LayerCount: 2
Fore
SplineSet
180 700 m 1
 191 700 l 1
 70 0 l 1
 60 0 l 1
 180 700 l 1
216 0 m 1
 65 0 l 1
 67 11 l 1
 217 11 l 1
 416 14 559 157 590 350 c 0
 618 533 530 685 334 689 c 1
 182 689 l 1
 184 700 l 1
 334 700 l 1
 535 696 628 538 600 350 c 0
 568 152 420 3 216 0 c 1
419 810 m 1
 590 945 l 1
 598 937 l 1
 418 798 l 1
 286 938 l 1
 294 946 l 1
 419 810 l 1
EndSplineSet
EndChar

StartChar: dcaron
Encoding: 271 271 261
Width: 553
VWidth: 0
Flags: HMW
LayerCount: 2
Fore
SplineSet
544 780 m 1
 554 780 l 1
 420 0 l 1
 410 0 l 1
 544 780 l 1
56 230 m 0
 76 362 177 472 303 470 c 0
 427 468 471 336 455 230 c 0
 437 116 347 -10 222 -10 c 0
 96 -10 39 106 56 230 c 0
66 230 m 0
 50 111 104 -1 226 0 c 0
 340 1 432 120 450 230 c 0
 465 332 419 458 305 460 c 0
 183 462 85 356 66 230 c 0
740 763 m 1
 750 758 l 1
 598 510 l 1
 592 512 l 1
 740 763 l 1
EndSplineSet
EndChar

StartChar: Dcroat
Encoding: 272 272 262
Width: 659
VWidth: 0
Flags: HMW
LayerCount: 2
Fore
SplineSet
36 345 m 1
 38 355 l 1
 330 355 l 1
 328 345 l 1
 36 345 l 1
180 700 m 1
 191 700 l 1
 70 0 l 1
 60 0 l 1
 180 700 l 1
216 0 m 1
 65 0 l 1
 67 11 l 1
 217 11 l 1
 415 15 559 158 590 350 c 0
 618 532 529 685 334 689 c 1
 182 689 l 1
 184 700 l 1
 334 700 l 1
 535 696 628 538 600 350 c 0
 568 152 420 3 216 0 c 1
EndSplineSet
EndChar

StartChar: dcroat
Encoding: 273 273 263
Width: 525
VWidth: 0
Flags: HMW
LayerCount: 2
Fore
SplineSet
371 655 m 1
 372 665 l 1
 664 665 l 1
 662 655 l 1
 371 655 l 1
544 780 m 1
 554 780 l 1
 420 0 l 1
 410 0 l 1
 544 780 l 1
56 230 m 0
 76 363 177 472 303 470 c 0
 423 468 471 342 455 230 c 0
 437 110 343 -10 222 -10 c 0
 96 -10 38 104 56 230 c 0
66 230 m 0
 50 111 105 -1 226 0 c 0
 343 1 432 124 450 230 c 0
 465 326 421 458 305 460 c 0
 184 462 85 356 66 230 c 0
EndSplineSet
EndChar

StartChar: Emacron
Encoding: 274 274 264
Width: 494
VWidth: 0
Flags: HMW
LayerCount: 2
Fore
SplineSet
62 0 m 1
 64 10 l 1
 392 10 l 1
 390 0 l 1
 62 0 l 1
180 690 m 1
 182 700 l 1
 510 700 l 1
 508 690 l 1
 180 690 l 1
128 384 m 1
 130 394 l 1
 438 394 l 1
 436 384 l 1
 128 384 l 1
180 700 m 1
 191 700 l 1
 70 0 l 1
 60 0 l 1
 180 700 l 1
217 835 m 1
 219 845 l 1
 558 845 l 1
 557 835 l 1
 217 835 l 1
EndSplineSet
EndChar

StartChar: emacron
Encoding: 275 275 265
Width: 487
VWidth: 0
Flags: HMW
LayerCount: 2
Fore
SplineSet
68 228 m 1
 70 238 l 1
 452 238 l 1
 474 344 416 458 302 459 c 0
 187 460 90 357 72 233 c 1
 72 232 l 1
 60 118 109 1 225 0 c 0
 325 0 384 58 428 112 c 1
 436 106 l 1
 390 52 332 -10 224 -10 c 0
 102 -10 48 112 62 232 c 0
 66 258 74 284 84 308 c 0
 122 396 202 470 302 470 c 0
 412 469 480 364 466 254 c 0
 464 246 462 236 460 228 c 1
 68 228 l 1
137 530 m 1
 138 540 l 1
 478 540 l 1
 476 530 l 1
 137 530 l 1
EndSplineSet
EndChar

StartChar: Ebreve
Encoding: 276 276 266
Width: 494
VWidth: 0
Flags: HMW
LayerCount: 2
Fore
SplineSet
62 0 m 1
 64 10 l 1
 392 10 l 1
 390 0 l 1
 62 0 l 1
180 690 m 1
 182 700 l 1
 510 700 l 1
 508 690 l 1
 180 690 l 1
128 384 m 1
 130 394 l 1
 438 394 l 1
 436 384 l 1
 128 384 l 1
180 700 m 1
 191 700 l 1
 70 0 l 1
 60 0 l 1
 180 700 l 1
236 908 m 1
 246 908 l 1
 240 840 281 778 367 778 c 0
 455 778 514 840 534 907 c 1
 544 907 l 1
 524 835 464 768 366 768 c 0
 270 768 229 835 236 908 c 1
EndSplineSet
EndChar

StartChar: ebreve
Encoding: 277 277 267
Width: 487
VWidth: 0
Flags: HMW
LayerCount: 2
Fore
SplineSet
68 228 m 1
 70 238 l 1
 452 238 l 1
 474 344 416 458 302 459 c 0
 187 460 90 357 72 233 c 1
 72 232 l 1
 60 118 109 1 225 0 c 0
 325 -1 384 58 428 112 c 1
 436 106 l 1
 390 52 332 -10 224 -10 c 0
 102 -10 48 112 62 232 c 0
 66 258 74 284 84 308 c 0
 122 396 202 470 302 470 c 0
 412 469 480 364 466 254 c 0
 464 246 462 236 460 228 c 1
 68 228 l 1
165 669 m 1
 175 669 l 1
 171 601 212 540 298 540 c 0
 386 540 445 601 463 669 c 1
 473 668 l 1
 454 596 395 530 297 530 c 0
 201 530 159 596 165 669 c 1
EndSplineSet
EndChar

StartChar: Edotaccent
Encoding: 278 278 268
Width: 494
VWidth: 0
Flags: HMW
LayerCount: 2
Fore
SplineSet
62 0 m 1
 64 10 l 1
 392 10 l 1
 390 0 l 1
 62 0 l 1
180 690 m 1
 182 700 l 1
 510 700 l 1
 508 690 l 1
 180 690 l 1
128 384 m 1
 130 394 l 1
 438 394 l 1
 436 384 l 1
 128 384 l 1
180 700 m 1
 191 700 l 1
 70 0 l 1
 60 0 l 1
 180 700 l 1
348 779 m 0
 348 785 354 790 360 790 c 0
 366 790 369 785 369 779 c 0
 369 773 362 768 356 768 c 0
 350 768 348 773 348 779 c 0
EndSplineSet
EndChar

StartChar: edotaccent
Encoding: 279 279 269
Width: 487
VWidth: 0
Flags: HMW
LayerCount: 2
Fore
SplineSet
68 228 m 1
 70 238 l 1
 452 238 l 1
 474 344 416 458 302 459 c 0
 187 460 90 357 72 233 c 1
 72 232 l 1
 60 118 109 1 225 0 c 0
 325 -1 384 58 428 112 c 1
 436 106 l 1
 390 52 332 -10 224 -10 c 0
 102 -10 48 112 62 232 c 0
 66 258 74 284 84 308 c 0
 122 396 202 470 302 470 c 0
 412 469 480 364 466 254 c 0
 464 246 462 236 460 228 c 1
 68 228 l 1
297 541 m 0
 297 547 304 552 310 552 c 0
 316 552 319 547 319 541 c 0
 319 535 313 530 307 530 c 0
 301 530 297 535 297 541 c 0
EndSplineSet
EndChar

StartChar: Eogonek
Encoding: 280 280 270
Width: 494
VWidth: 0
Flags: HMW
LayerCount: 2
Fore
SplineSet
62 0 m 1
 64 10 l 1
 392 10 l 1
 390 0 l 1
 62 0 l 1
180 690 m 1
 182 700 l 1
 510 700 l 1
 508 690 l 1
 180 690 l 1
128 384 m 1
 130 394 l 1
 438 394 l 1
 436 384 l 1
 128 384 l 1
180 700 m 1
 191 700 l 1
 70 0 l 1
 60 0 l 1
 180 700 l 1
394 -174 m 1
 400 -181 l 1
 376 -201 339 -220 298 -220 c 0
 242 -220 203 -190 210 -140 c 0
 221 -66 317 -23 385 10 c 1
 390 0 l 1
 325 -31 230 -74 220 -140 c 0
 214 -185 253 -210 298 -210 c 0
 336 -210 372 -192 394 -174 c 1
EndSplineSet
EndChar

StartChar: eogonek
Encoding: 281 281 271
Width: 487
VWidth: 0
Flags: HMW
LayerCount: 2
Fore
SplineSet
68 228 m 1
 70 238 l 1
 452 238 l 1
 474 344 416 458 302 459 c 0
 187 460 90 357 72 233 c 1
 72 232 l 1
 60 118 109 1 225 0 c 0
 325 -1 384 58 428 112 c 1
 436 106 l 1
 390 52 332 -10 224 -10 c 0
 102 -10 48 112 62 232 c 0
 66 258 74 284 84 308 c 0
 122 396 202 470 302 470 c 0
 412 469 480 364 466 254 c 0
 464 246 462 236 460 228 c 1
 68 228 l 1
238 -177 m 1
 243 -184 l 1
 219 -204 183 -223 142 -223 c 0
 86 -223 48 -193 54 -143 c 0
 64 -69 156 -32 224 0 c 1
 231 -9 l 1
 167 -40 73 -76 64 -144 c 0
 59 -189 97 -213 142 -213 c 0
 180 -213 216 -195 238 -177 c 1
EndSplineSet
EndChar

StartChar: Ecaron
Encoding: 282 282 272
Width: 494
VWidth: 0
Flags: HMW
LayerCount: 2
Fore
SplineSet
62 0 m 1
 64 10 l 1
 392 10 l 1
 390 0 l 1
 62 0 l 1
180 690 m 1
 182 700 l 1
 510 700 l 1
 508 690 l 1
 180 690 l 1
128 384 m 1
 130 394 l 1
 438 394 l 1
 436 384 l 1
 128 384 l 1
180 700 m 1
 191 700 l 1
 70 0 l 1
 60 0 l 1
 180 700 l 1
358 780 m 1
 529 915 l 1
 536 907 l 1
 356 768 l 1
 224 908 l 1
 234 916 l 1
 358 780 l 1
EndSplineSet
EndChar

StartChar: ecaron
Encoding: 283 283 273
Width: 487
VWidth: 0
Flags: HMW
LayerCount: 2
Fore
SplineSet
68 228 m 1
 70 238 l 1
 452 238 l 1
 474 344 416 458 302 459 c 0
 187 460 90 357 72 233 c 1
 72 232 l 1
 60 118 109 1 225 0 c 0
 325 -1 384 58 428 112 c 1
 436 106 l 1
 390 52 332 -10 224 -10 c 0
 102 -10 48 112 62 232 c 0
 66 258 74 284 84 308 c 0
 122 396 202 470 302 470 c 0
 412 469 480 364 466 254 c 0
 464 246 462 236 460 228 c 1
 68 228 l 1
297 542 m 1
 468 676 l 1
 475 668 l 1
 296 530 l 1
 163 669 l 1
 172 677 l 1
 297 542 l 1
EndSplineSet
EndChar

StartChar: Gcircumflex
Encoding: 284 284 274
Width: 742
VWidth: 0
Flags: HMW
LayerCount: 2
Fore
SplineSet
437 330 m 1
 438 340 l 1
 720 340 l 1
 685 163 547 -8 350 -8 c 0
 154 -8 54 164 81 350 c 0
 111 546 274 708 472 708 c 0
 588 708 667 646 716 556 c 1
 706 550 l 1
 666 638 581 697 471 697 c 0
 277 697 122 540 92 350 c 0
 66 172 160 4 352 4 c 0
 540 4 670 162 708 330 c 1
 437 330 l 1
506 902 m 1
 334 769 l 1
 328 776 l 1
 507 914 l 1
 640 775 l 1
 632 768 l 1
 506 902 l 1
EndSplineSet
EndChar

StartChar: gcircumflex
Encoding: 285 285 275
Width: 525
VWidth: 0
Flags: HMW
LayerCount: 2
Fore
SplineSet
26 -30 m 1
 36 -30 l 1
 24 -133 70 -219 180 -220 c 0
 298 -221 392 -123 412 10 c 2
 490 460 l 1
 500 460 l 1
 422 10 l 2
 400 -128 305 -230 179 -230 c 0
 63 -230 14 -137 26 -30 c 1
56 230 m 0
 76 362 177 472 303 470 c 0
 427 468 471 336 455 230 c 0
 437 116 347 -10 222 -10 c 0
 96 -10 39 106 56 230 c 0
66 230 m 0
 49 110 104 0 226 0 c 0
 342 0 432 121 450 235 c 0
 464 331 417 458 305 460 c 0
 183 462 85 356 66 230 c 0
338 664 m 1
 165 531 l 1
 159 538 l 1
 338 676 l 1
 470 537 l 1
 463 530 l 1
 338 664 l 1
EndSplineSet
EndChar

StartChar: Gbreve
Encoding: 286 286 276
Width: 742
VWidth: 0
Flags: HMW
LayerCount: 2
Fore
SplineSet
437 330 m 1
 438 340 l 1
 720 340 l 1
 685 163 547 -8 350 -8 c 0
 154 -8 54 164 81 350 c 0
 111 546 274 708 472 708 c 0
 588 708 667 646 716 556 c 1
 706 550 l 1
 666 638 581 697 471 697 c 0
 277 697 122 540 92 350 c 0
 66 172 160 4 352 4 c 0
 540 4 670 162 708 330 c 1
 437 330 l 1
353 908 m 1
 363 908 l 1
 357 840 398 778 484 778 c 0
 572 778 630 840 650 907 c 1
 660 907 l 1
 640 835 581 768 483 768 c 0
 387 768 346 835 353 908 c 1
EndSplineSet
EndChar

StartChar: gbreve
Encoding: 287 287 277
Width: 525
VWidth: 0
Flags: HMW
LayerCount: 2
Fore
SplineSet
26 -30 m 1
 36 -30 l 1
 24 -133 70 -219 180 -220 c 0
 298 -221 392 -123 412 10 c 2
 490 460 l 1
 500 460 l 1
 422 10 l 2
 400 -128 305 -230 179 -230 c 0
 63 -230 14 -137 26 -30 c 1
56 230 m 0
 76 362 177 472 303 470 c 0
 427 468 471 336 455 230 c 0
 437 116 347 -10 222 -10 c 0
 96 -10 39 106 56 230 c 0
66 230 m 0
 49 110 104 0 226 0 c 0
 342 0 432 121 450 235 c 0
 464 331 417 458 305 460 c 0
 183 462 85 356 66 230 c 0
184 670 m 1
 194 670 l 1
 188 602 228 540 314 540 c 0
 402 540 462 602 482 669 c 1
 492 669 l 1
 472 597 412 530 314 530 c 0
 218 530 177 597 184 670 c 1
EndSplineSet
EndChar

StartChar: Gdotaccent
Encoding: 288 288 278
Width: 742
VWidth: 0
Flags: HMW
LayerCount: 2
Fore
SplineSet
437 330 m 1
 438 340 l 1
 720 340 l 1
 685 163 547 -8 350 -8 c 0
 154 -8 54 164 81 350 c 0
 111 546 274 708 472 708 c 0
 588 708 667 646 716 556 c 1
 706 550 l 1
 666 638 581 697 471 697 c 0
 277 697 122 540 92 350 c 0
 66 172 160 4 352 4 c 0
 540 4 670 162 708 330 c 1
 437 330 l 1
474 779 m 0
 474 785 480 790 486 790 c 0
 492 790 495 785 495 779 c 0
 495 773 488 768 482 768 c 0
 476 768 474 773 474 779 c 0
EndSplineSet
EndChar

StartChar: gdotaccent
Encoding: 289 289 279
Width: 525
VWidth: 0
Flags: HMW
LayerCount: 2
Fore
SplineSet
26 -30 m 1
 36 -30 l 1
 24 -133 70 -219 180 -220 c 0
 298 -221 392 -123 412 10 c 2
 490 460 l 1
 500 460 l 1
 422 10 l 2
 400 -128 305 -230 179 -230 c 0
 63 -230 14 -137 26 -30 c 1
56 230 m 0
 76 362 177 472 303 470 c 0
 427 468 471 336 455 230 c 0
 437 116 347 -10 222 -10 c 0
 96 -10 39 106 56 230 c 0
66 230 m 0
 49 110 104 0 226 0 c 0
 342 0 432 121 450 235 c 0
 464 331 417 458 305 460 c 0
 183 462 85 356 66 230 c 0
305 541 m 0
 305 547 312 552 318 552 c 0
 324 552 326 547 326 541 c 0
 326 535 320 530 314 530 c 0
 308 530 305 535 305 541 c 0
EndSplineSet
EndChar

StartChar: uni0122
Encoding: 290 290 280
Width: 742
VWidth: 0
Flags: HMW
LayerCount: 2
Fore
SplineSet
437 330 m 1
 438 340 l 1
 720 340 l 1
 685 163 547 -8 350 -8 c 0
 154 -8 54 164 81 350 c 0
 111 546 274 708 472 708 c 0
 588 708 667 646 716 556 c 1
 706 550 l 1
 666 638 581 697 471 697 c 0
 277 697 122 540 92 350 c 0
 66 172 160 4 352 4 c 0
 540 4 670 162 708 330 c 1
 437 330 l 1
386 -69 m 1
 396 -74 l 1
 245 -322 l 1
 239 -320 l 1
 386 -69 l 1
EndSplineSet
EndChar

StartChar: Hcircumflex
Encoding: 292 292 281
Width: 627
VWidth: 0
Flags: HMW
LayerCount: 2
Fore
SplineSet
128 377 m 1
 129 387 l 1
 576 387 l 1
 574 377 l 1
 128 377 l 1
622 700 m 1
 634 700 l 1
 513 0 l 1
 502 0 l 1
 622 700 l 1
180 700 m 1
 191 700 l 1
 70 0 l 1
 60 0 l 1
 180 700 l 1
442 902 m 1
 268 769 l 1
 264 776 l 1
 443 914 l 1
 576 775 l 1
 566 768 l 1
 442 902 l 1
EndSplineSet
EndChar

StartChar: hcircumflex
Encoding: 293 293 282
Width: 460
VWidth: 0
Flags: HMW
LayerCount: 2
Fore
SplineSet
199 780 m 1
 64 0 l 1
 54 0 l 1
 189 780 l 1
 199 780 l 1
396 320 m 2
 406 392 388 459 302 460 c 0
 206 461 132 369 112 281 c 1
 107 281 l 1
 127 379 200 470 302 470 c 0
 394 470 416 399 406 320 c 2
 350 0 l 1
 341 0 l 1
 396 320 l 2
235 974 m 1
 62 841 l 1
 56 848 l 1
 236 986 l 1
 368 847 l 1
 360 840 l 1
 235 974 l 1
EndSplineSet
EndChar

StartChar: Itilde
Encoding: 296 296 283
Width: 174
VWidth: 0
Flags: HMW
LayerCount: 2
Fore
SplineSet
176 700 m 1
 186 700 l 1
 64 0 l 1
 54 0 l 1
 176 700 l 1
90 832 m 1
 100 860 119 888 160 888 c 0
 208 888 225 841 272 842 c 0
 301 842 319 864 336 890 c 1
 344 886 l 1
 326 856 303 834 271 834 c 0
 224 834 204 880 162 880 c 0
 125 880 106 854 98 830 c 1
 90 832 l 1
EndSplineSet
EndChar

StartChar: itilde
Encoding: 297 297 284
Width: 184
VWidth: 0
Flags: HMW
LayerCount: 2
Fore
SplineSet
140 460 m 1
 149 460 l 1
 70 0 l 1
 60 0 l 1
 140 460 l 1
56 592 m 1
 66 620 85 648 126 648 c 0
 174 648 191 601 238 602 c 0
 267 602 285 624 302 650 c 1
 310 646 l 1
 292 616 269 594 237 594 c 0
 190 594 170 640 128 640 c 0
 91 640 72 614 64 590 c 1
 56 592 l 1
EndSplineSet
EndChar

StartChar: Imacron
Encoding: 298 298 285
Width: 174
VWidth: 0
Flags: HMW
LayerCount: 2
Fore
SplineSet
176 700 m 1
 186 700 l 1
 64 0 l 1
 54 0 l 1
 176 700 l 1
65 835 m 1
 66 845 l 1
 406 845 l 1
 404 835 l 1
 65 835 l 1
EndSplineSet
EndChar

StartChar: imacron
Encoding: 299 299 286
Width: 184
VWidth: 0
Flags: HMW
LayerCount: 2
Fore
SplineSet
140 460 m 1
 149 460 l 1
 70 0 l 1
 60 0 l 1
 140 460 l 1
30 595 m 1
 32 605 l 1
 372 605 l 1
 370 595 l 1
 30 595 l 1
EndSplineSet
EndChar

StartChar: Ibreve
Encoding: 300 300 287
Width: 174
VWidth: 0
Flags: HMW
LayerCount: 2
Fore
SplineSet
176 700 m 1
 186 700 l 1
 64 0 l 1
 54 0 l 1
 176 700 l 1
60 910 m 1
 70 910 l 1
 64 842 104 780 190 780 c 0
 278 780 338 842 358 909 c 1
 368 909 l 1
 348 837 288 770 190 770 c 0
 94 770 53 837 60 910 c 1
EndSplineSet
EndChar

StartChar: ibreve
Encoding: 301 301 288
Width: 184
VWidth: 0
Flags: HMW
LayerCount: 2
Fore
SplineSet
140 460 m 1
 149 460 l 1
 70 0 l 1
 60 0 l 1
 140 460 l 1
26 670 m 1
 36 670 l 1
 30 602 70 540 156 540 c 0
 244 540 304 602 324 669 c 1
 334 669 l 1
 314 597 254 530 156 530 c 0
 60 530 19 597 26 670 c 1
EndSplineSet
EndChar

StartChar: Iogonek
Encoding: 302 302 289
Width: 174
VWidth: 0
Flags: HMW
LayerCount: 2
Fore
SplineSet
176 700 m 1
 186 700 l 1
 64 0 l 1
 54 0 l 1
 176 700 l 1
68 -174 m 1
 74 -181 l 1
 50 -201 13 -220 -28 -220 c 0
 -84 -220 -121 -190 -114 -140 c 0
 -103 -66 -8 -23 60 10 c 1
 66 0 l 1
 1 -31 -95 -74 -105 -140 c 0
 -111 -185 -71 -210 -26 -210 c 0
 12 -210 46 -192 68 -174 c 1
EndSplineSet
EndChar

StartChar: iogonek
Encoding: 303 303 290
Width: 184
VWidth: 0
Flags: HMW
LayerCount: 2
Fore
SplineSet
174 695 m 0
 174 700 179 705 185 705 c 0
 191 705 194 701 194 695 c 0
 194 690 188 685 182 685 c 0
 176 685 174 689 174 695 c 0
140 460 m 1
 149 460 l 1
 70 0 l 1
 60 0 l 1
 140 460 l 1
74 -174 m 1
 80 -181 l 1
 56 -201 19 -220 -22 -220 c 0
 -78 -220 -117 -190 -110 -140 c 0
 -99 -66 -3 -22 65 10 c 1
 70 0 l 1
 5 -31 -90 -74 -100 -140 c 0
 -106 -185 -67 -210 -22 -210 c 0
 16 -210 52 -192 74 -174 c 1
EndSplineSet
EndChar

StartChar: Idotaccent
Encoding: 304 304 291
Width: 174
VWidth: 0
Flags: HMW
LayerCount: 2
Fore
SplineSet
176 700 m 1
 186 700 l 1
 64 0 l 1
 54 0 l 1
 176 700 l 1
184 786 m 0
 184 792 190 797 196 797 c 0
 202 797 205 792 205 786 c 0
 205 780 198 775 192 775 c 0
 186 775 184 780 184 786 c 0
EndSplineSet
EndChar

StartChar: uni0136
Encoding: 310 310 292
Width: 440
VWidth: 0
Flags: HMW
LayerCount: 2
Fore
SplineSet
176 700 m 1
 186 700 l 1
 66 0 l 1
 54 0 l 1
 176 700 l 1
488 699 m 1
 504 699 l 1
 142 372 l 1
 399 0 l 1
 383 0 l 1
 128 372 l 1
 488 699 l 1
263 -61 m 1
 274 -66 l 1
 122 -314 l 1
 116 -312 l 1
 263 -61 l 1
EndSplineSet
EndChar

StartChar: uni0137
Encoding: 311 311 293
Width: 361
VWidth: 0
Flags: HMW
LayerCount: 2
Fore
SplineSet
184 780 m 1
 194 780 l 1
 60 0 l 1
 50 0 l 1
 184 780 l 1
370 459 m 1
 386 459 l 1
 118 270 l 1
 324 0 l 1
 311 0 l 1
 104 270 l 1
 370 459 l 1
224 -61 m 1
 234 -66 l 1
 82 -314 l 1
 76 -312 l 1
 224 -61 l 1
EndSplineSet
EndChar

StartChar: Lacute
Encoding: 313 313 294
Width: 417
VWidth: 0
Flags: HMW
LayerCount: 2
Fore
SplineSet
180 700 m 1
 190 700 l 1
 72 10 l 1
 372 10 l 1
 371 0 l 1
 60 0 l 1
 180 700 l 1
545 924 m 1
 348 769 l 1
 345 774 l 1
 538 932 l 1
 545 924 l 1
EndSplineSet
EndChar

StartChar: lacute
Encoding: 314 314 295
Width: 174
VWidth: 0
Flags: HMW
LayerCount: 2
Fore
SplineSet
189 780 m 1
 199 780 l 1
 64 0 l 1
 54 0 l 1
 189 780 l 1
402 996 m 1
 205 841 l 1
 202 846 l 1
 395 1004 l 1
 402 996 l 1
EndSplineSet
EndChar

StartChar: uni013B
Encoding: 315 315 296
Width: 417
VWidth: 0
Flags: HMW
LayerCount: 2
Fore
SplineSet
180 700 m 1
 190 700 l 1
 72 10 l 1
 372 10 l 1
 371 0 l 1
 60 0 l 1
 180 700 l 1
212 -61 m 1
 223 -66 l 1
 72 -314 l 1
 66 -312 l 1
 212 -61 l 1
EndSplineSet
EndChar

StartChar: uni013C
Encoding: 316 316 297
Width: 174
VWidth: 0
Flags: HMW
LayerCount: 2
Fore
SplineSet
189 780 m 1
 199 780 l 1
 64 0 l 1
 54 0 l 1
 189 780 l 1
77 -61 m 1
 87 -66 l 1
 -64 -314 l 1
 -70 -312 l 1
 77 -61 l 1
EndSplineSet
EndChar

StartChar: Lcaron
Encoding: 317 317 298
Width: 417
VWidth: 0
Flags: HMW
LayerCount: 2
Fore
SplineSet
180 700 m 1
 190 700 l 1
 72 10 l 1
 372 10 l 1
 371 0 l 1
 60 0 l 1
 180 700 l 1
429 707 m 1
 440 702 l 1
 288 454 l 1
 282 456 l 1
 429 707 l 1
EndSplineSet
EndChar

StartChar: lcaron
Encoding: 318 318 299
Width: 223
VWidth: 0
Flags: HMW
LayerCount: 2
Fore
SplineSet
189 780 m 1
 199 780 l 1
 64 0 l 1
 54 0 l 1
 189 780 l 1
414 763 m 1
 425 758 l 1
 274 510 l 1
 268 512 l 1
 414 763 l 1
EndSplineSet
EndChar

StartChar: Ldot
Encoding: 319 319 300
Width: 417
VWidth: 0
Flags: HMW
LayerCount: 2
Fore
SplineSet
180 700 m 1
 190 700 l 1
 72 10 l 1
 372 10 l 1
 371 0 l 1
 60 0 l 1
 180 700 l 1
304 414 m 0
 304 420 311 425 317 425 c 0
 323 425 326 420 326 414 c 0
 326 408 320 403 314 403 c 0
 308 403 304 408 304 414 c 0
EndSplineSet
EndChar

StartChar: ldot
Encoding: 320 320 301
Width: 359
VWidth: 0
Flags: HMW
LayerCount: 2
Fore
SplineSet
189 780 m 1
 199 780 l 1
 64 0 l 1
 54 0 l 1
 189 780 l 1
264 396 m 0
 264 402 270 407 276 407 c 0
 282 407 285 402 285 396 c 0
 285 390 278 385 272 385 c 0
 266 385 264 390 264 396 c 0
EndSplineSet
EndChar

StartChar: eth
Encoding: 240 240 302
Width: 536
VWidth: 0
Flags: HMW
LayerCount: 2
Fore
SplineSet
236 -10 m 0
 120 -10 52 62 52 180 c 0
 52 313 176 437 300 437 c 0
 374 437 432 409 466 355 c 1
 465 354 l 1
 412 468 390 510 285 694 c 1
 293 700 l 1
 477 370 499 330 499 256 c 0
 501 114 367 -10 236 -10 c 0
238 0 m 0
 360 0 488 123 488 255 c 0
 488 344 424 427 298 427 c 0
 181 427 62 305 62 180 c 0
 62 71 131 0 238 0 c 0
235 520 m 1
 232 530 l 1
 499 640 l 1
 502 630 l 1
 235 520 l 1
EndSplineSet
EndChar

StartChar: racute
Encoding: 341 341 303
Width: 281
VWidth: 0
Flags: HMW
LayerCount: 2
Fore
SplineSet
144 460 m 1
 64 0 l 1
 54 0 l 1
 134 460 l 1
 144 460 l 1
310 440 m 1
 294 450 277 460 258 460 c 0
 172 462 127 362 112 280 c 1
 107 280 l 1
 123 371 167 474 258 470 c 0
 280 470 299 459 316 448 c 1
 310 440 l 1
398 686 m 1
 201 531 l 1
 198 536 l 1
 390 694 l 1
 398 686 l 1
EndSplineSet
EndChar

StartChar: rcaron
Encoding: 345 345 304
Width: 281
VWidth: 0
Flags: HMW
LayerCount: 2
Fore
SplineSet
144 460 m 1
 64 0 l 1
 54 0 l 1
 134 460 l 1
 144 460 l 1
310 440 m 1
 294 450 277 460 258 460 c 0
 172 462 127 362 112 280 c 1
 107 280 l 1
 123 371 167 474 258 470 c 0
 280 470 299 459 316 448 c 1
 310 440 l 1
240 542 m 1
 411 677 l 1
 418 669 l 1
 238 530 l 1
 106 670 l 1
 115 678 l 1
 240 542 l 1
EndSplineSet
EndChar

StartChar: Rcaron
Encoding: 344 344 305
Width: 454
VWidth: 0
Flags: HMW
LayerCount: 2
Fore
SplineSet
220 317 m 1
 232 317 l 1
 393 0 l 1
 380 0 l 1
 220 317 l 1
180 700 m 1
 191 700 l 1
 70 0 l 1
 60 0 l 1
 180 700 l 1
180 689 m 1
 182 700 l 1
 291 700 l 1
 415 698 508 631 488 507 c 0
 468 381 356 316 226 314 c 1
 116 314 l 1
 118 324 l 1
 226 324 l 1
 351 326 457 387 477 507 c 0
 497 625 410 687 290 689 c 1
 180 689 l 1
326 780 m 1
 498 915 l 1
 505 907 l 1
 326 768 l 1
 194 908 l 1
 202 916 l 1
 326 780 l 1
EndSplineSet
EndChar

StartChar: uni0213
Encoding: 531 531 306
Width: 281
VWidth: 0
Flags: HMW
LayerCount: 2
Fore
SplineSet
144 460 m 1
 64 0 l 1
 54 0 l 1
 134 460 l 1
 144 460 l 1
310 440 m 1
 294 450 277 460 258 460 c 0
 172 462 127 362 112 280 c 1
 107 280 l 1
 123 371 167 474 258 470 c 0
 280 470 299 459 316 448 c 1
 310 440 l 1
87 550 m 1
 96 550 l 1
 116 618 175 680 263 680 c 0
 349 680 390 618 384 550 c 1
 394 550 l 1
 402 622 362 690 266 690 c 0
 168 690 107 622 87 550 c 1
EndSplineSet
EndChar

StartChar: uni0212
Encoding: 530 530 307
Width: 454
VWidth: 0
Flags: HMW
LayerCount: 2
Fore
SplineSet
220 317 m 1
 232 317 l 1
 393 0 l 1
 380 0 l 1
 220 317 l 1
180 700 m 1
 191 700 l 1
 70 0 l 1
 60 0 l 1
 180 700 l 1
180 689 m 1
 182 700 l 1
 291 700 l 1
 415 698 508 631 488 507 c 0
 468 381 356 316 226 314 c 1
 116 314 l 1
 118 324 l 1
 226 324 l 1
 351 326 457 387 477 507 c 0
 497 625 410 687 290 689 c 1
 180 689 l 1
200 768 m 1
 210 768 l 1
 230 836 288 898 376 898 c 0
 462 898 504 836 498 768 c 1
 507 768 l 1
 515 840 475 908 379 908 c 0
 281 908 220 840 200 768 c 1
EndSplineSet
EndChar

StartChar: OE
Encoding: 338 338 308
Width: 922
VWidth: 0
Flags: HMW
LayerCount: 2
Fore
SplineSet
540 385 m 1
 542 395 l 1
 865 395 l 1
 864 385 l 1
 540 385 l 1
592 694 m 1
 602 694 l 1
 484 6 l 1
 473 6 l 1
 592 694 l 1
820 10 m 1
 818 0 l 1
 352 0 l 1
 152 4 42 159 71 350 c 0
 103 550 266 697 470 700 c 1
 936 700 l 1
 935 690 l 1
 599 690 l 1
 582 690 l 1
 470 690 l 1
 275 687 113 540 81 350 c 0
 53 168 162 14 352 10 c 1
 462 10 l 1
 486 10 l 1
 820 10 l 1
EndSplineSet
EndChar

StartChar: oe
Encoding: 339 339 309
Width: 898
VWidth: 0
Flags: HMW
LayerCount: 2
Fore
SplineSet
860 250 m 1
 876 350 816 459 700 459 c 0
 570 459 482 345 456 233 c 1
 458 232 l 1
 443 113 493 1 620 0 c 0
 712 0 782 50 832 112 c 1
 839 105 l 1
 783 41 715 -11 620 -10 c 0
 486 -8 433 113 450 230 c 0
 452 247 456 263 462 279 c 0
 496 383 588 470 700 470 c 0
 814 470 888 365 871 253 c 0
 869 245 866 236 864 228 c 1
 854 230 l 1
 860 250 l 1
454 228 m 1
 455 238 l 1
 866 238 l 1
 865 228 l 1
 454 228 l 1
56 230 m 0
 76 362 175 471 298 470 c 0
 414 469 473 353 457 230 c 0
 438 99 335 -10 218 -10 c 0
 94 -10 39 106 56 230 c 0
66 230 m 0
 50 112 100 0 220 0 c 0
 331 0 432 108 450 230 c 0
 466 344 410 458 300 460 c 0
 180 462 85 356 66 230 c 0
EndSplineSet
EndChar

StartChar: a.alt
Encoding: 65536 -1 310
Width: 422
VWidth: 0
Flags: HMW
LayerCount: 2
Fore
SplineSet
44 134 m 0
 32 51 85 0 159 0 c 0
 249 0 325 71 346 184 c 1
 351 174 l 1
 330 64 252 -10 157 -10 c 0
 80 -10 21 46 34 134 c 0
 50 224 132 276 226 276 c 0
 288 276 334 254 361 230 c 1
 359 219 l 1
 321 251 276 266 224 266 c 0
 144 266 59 224 44 134 c 0
116 402 m 1
 112 411 l 1
 154 439 204 471 272 470 c 0
 366 468 392 402 382 320 c 2
 326 0 l 1
 316 0 l 1
 372 320 l 2
 382 370 379 458 270 460 c 0
 206 462 156 430 116 402 c 1
EndSplineSet
EndChar

StartChar: Jcircumflex
Encoding: 308 308 312
Width: 191
VWidth: 0
Flags: HMW
LayerCount: 2
Fore
SplineSet
-178 -158 m 1
 -154 -184 -122 -208 -80 -208 c 0
 10 -210 44 -145 58 -50 c 2
 186 700 l 1
 197 700 l 1
 67 -60 l 2
 53 -153 14 -222 -80 -220 c 0
 -128 -220 -166 -191 -186 -165 c 1
 -178 -158 l 1
226 902 m 1
 53 769 l 1
 48 776 l 1
 228 914 l 1
 360 775 l 1
 351 768 l 1
 226 902 l 1
EndSplineSet
EndChar

StartChar: jcircumflex
Encoding: 309 309 313
Width: 174
VWidth: 0
Flags: HMW
LayerCount: 2
Fore
SplineSet
-149 -165 m 1
 -134 -186 -114 -209 -81 -210 c 0
 -6 -212 25 -138 36 -82 c 2
 130 460 l 1
 140 460 l 1
 46 -82 l 2
 34 -147 -2 -222 -82 -220 c 0
 -120 -219 -141 -194 -157 -172 c 1
 -149 -165 l 1
170 664 m 1
 -3 531 l 1
 -9 538 l 1
 170 676 l 1
 302 537 l 1
 295 530 l 1
 170 664 l 1
EndSplineSet
EndChar

StartChar: Nacute
Encoding: 323 323 314
Width: 645
VWidth: 0
Flags: HMW
LayerCount: 2
Fore
SplineSet
660 700 m 1
 670 700 l 1
 548 -15 l 1
 148 678 l 1
 32 0 l 1
 20 0 l 1
 144 715 l 1
 542 17 l 1
 660 700 l 1
591 911 m 1
 394 756 l 1
 391 761 l 1
 584 919 l 1
 591 911 l 1
EndSplineSet
EndChar

StartChar: nacute
Encoding: 324 324 315
Width: 460
VWidth: 0
Flags: HMW
LayerCount: 2
Fore
SplineSet
144 460 m 1
 64 0 l 1
 54 0 l 1
 134 460 l 1
 144 460 l 1
396 320 m 2
 406 392 388 459 302 460 c 0
 206 461 132 369 112 281 c 1
 107 281 l 1
 127 379 200 470 302 470 c 0
 394 470 416 399 406 320 c 2
 350 0 l 1
 341 0 l 1
 396 320 l 2
464 696 m 1
 268 541 l 1
 264 546 l 1
 458 704 l 1
 464 696 l 1
EndSplineSet
EndChar

StartChar: uni0145
Encoding: 325 325 316
Width: 645
VWidth: 0
Flags: HMW
LayerCount: 2
Fore
SplineSet
298 -46 m 1
 308 -51 l 1
 157 -299 l 1
 151 -297 l 1
 298 -46 l 1
660 700 m 1
 670 700 l 1
 548 -15 l 1
 148 678 l 1
 32 0 l 1
 20 0 l 1
 144 715 l 1
 542 17 l 1
 660 700 l 1
EndSplineSet
EndChar

StartChar: uni0146
Encoding: 326 326 317
Width: 460
VWidth: 0
Flags: HMW
LayerCount: 2
Fore
SplineSet
144 460 m 1
 64 0 l 1
 54 0 l 1
 134 460 l 1
 144 460 l 1
396 320 m 2
 406 392 388 459 302 460 c 0
 206 461 132 369 112 281 c 1
 107 281 l 1
 127 379 200 470 302 470 c 0
 394 470 416 399 406 320 c 2
 350 0 l 1
 341 0 l 1
 396 320 l 2
213 -41 m 1
 224 -46 l 1
 74 -294 l 1
 68 -292 l 1
 213 -41 l 1
EndSplineSet
EndChar

StartChar: Ncaron
Encoding: 327 327 318
Width: 645
VWidth: 0
Flags: HMW
LayerCount: 2
Fore
SplineSet
435 778 m 1
 606 912 l 1
 613 904 l 1
 434 766 l 1
 302 905 l 1
 310 913 l 1
 435 778 l 1
660 700 m 1
 670 700 l 1
 548 -15 l 1
 148 678 l 1
 32 0 l 1
 20 0 l 1
 144 715 l 1
 542 17 l 1
 660 700 l 1
EndSplineSet
EndChar

StartChar: ncaron
Encoding: 328 328 319
Width: 460
VWidth: 0
Flags: HMW
LayerCount: 2
Fore
SplineSet
144 460 m 1
 64 0 l 1
 54 0 l 1
 134 460 l 1
 144 460 l 1
396 320 m 2
 406 392 388 459 302 460 c 0
 206 461 132 369 112 281 c 1
 107 281 l 1
 127 379 200 470 302 470 c 0
 394 470 416 399 406 320 c 2
 350 0 l 1
 341 0 l 1
 396 320 l 2
296 542 m 1
 468 677 l 1
 474 669 l 1
 294 530 l 1
 162 670 l 1
 172 678 l 1
 296 542 l 1
EndSplineSet
EndChar

StartChar: Omacron
Encoding: 332 332 320
Width: 751
VWidth: 0
Flags: HMW
LayerCount: 2
Fore
SplineSet
92 350 m 0
 66 172 156 3 348 3 c 0
 542 3 694 162 724 350 c 0
 750 528 660 697 468 697 c 0
 274 697 122 538 92 350 c 0
81 350 m 0
 111 546 270 708 468 708 c 0
 664 708 763 536 736 350 c 0
 706 154 546 -8 348 -8 c 0
 152 -8 54 164 81 350 c 0
313 788 m 1
 314 798 l 1
 654 798 l 1
 653 788 l 1
 313 788 l 1
EndSplineSet
EndChar

StartChar: omacron
Encoding: 333 333 321
Width: 539
VWidth: 0
Flags: HMW
LayerCount: 2
Fore
SplineSet
56 230 m 0
 76 361 188 470 322 470 c 0
 454 470 526 355 508 230 c 0
 488 99 376 -10 242 -10 c 0
 110 -10 38 105 56 230 c 0
66 230 m 0
 48 110 116 0 242 0 c 0
 370 0 478 104 498 230 c 0
 516 350 448 460 322 460 c 0
 194 460 86 356 66 230 c 0
166 550 m 1
 168 560 l 1
 508 560 l 1
 506 550 l 1
 166 550 l 1
EndSplineSet
EndChar

StartChar: Obreve
Encoding: 334 334 322
Width: 751
VWidth: 0
Flags: HMW
LayerCount: 2
Fore
SplineSet
92 350 m 0
 66 172 156 3 348 3 c 0
 542 3 694 162 724 350 c 0
 750 528 660 697 468 697 c 0
 274 697 122 538 92 350 c 0
81 350 m 0
 111 546 270 708 468 708 c 0
 664 708 763 536 736 350 c 0
 706 154 546 -8 348 -8 c 0
 152 -8 54 164 81 350 c 0
350 908 m 1
 360 908 l 1
 354 840 394 778 480 778 c 0
 568 778 628 840 648 907 c 1
 658 907 l 1
 638 835 578 768 480 768 c 0
 384 768 343 835 350 908 c 1
EndSplineSet
EndChar

StartChar: obreve
Encoding: 335 335 323
Width: 539
VWidth: 0
Flags: HMW
LayerCount: 2
Fore
SplineSet
56 230 m 0
 76 361 188 470 322 470 c 0
 454 470 526 355 508 230 c 0
 488 99 376 -10 242 -10 c 0
 110 -10 38 105 56 230 c 0
66 230 m 0
 48 110 116 0 242 0 c 0
 370 0 478 104 498 230 c 0
 516 350 448 460 322 460 c 0
 194 460 86 356 66 230 c 0
204 670 m 1
 214 670 l 1
 208 602 248 540 334 540 c 0
 422 540 482 602 502 669 c 1
 512 669 l 1
 492 597 432 530 334 530 c 0
 238 530 197 597 204 670 c 1
EndSplineSet
EndChar

StartChar: Racute
Encoding: 340 340 324
Width: 454
VWidth: 0
Flags: HMW
LayerCount: 2
Fore
SplineSet
220 317 m 1
 232 317 l 1
 393 0 l 1
 380 0 l 1
 220 317 l 1
180 700 m 1
 191 700 l 1
 70 0 l 1
 60 0 l 1
 180 700 l 1
180 689 m 1
 182 700 l 1
 291 700 l 1
 415 698 508 631 488 507 c 0
 468 381 356 316 226 314 c 1
 116 314 l 1
 118 324 l 1
 226 324 l 1
 351 326 457 387 477 507 c 0
 497 625 410 687 290 689 c 1
 180 689 l 1
484 924 m 1
 288 769 l 1
 284 774 l 1
 477 932 l 1
 484 924 l 1
EndSplineSet
EndChar

StartChar: uni0156
Encoding: 342 342 325
Width: 454
VWidth: 0
Flags: HMW
LayerCount: 2
Fore
SplineSet
220 317 m 1
 232 317 l 1
 393 0 l 1
 380 0 l 1
 220 317 l 1
180 700 m 1
 191 700 l 1
 70 0 l 1
 60 0 l 1
 180 700 l 1
180 689 m 1
 182 700 l 1
 291 700 l 1
 415 698 508 631 488 507 c 0
 468 381 356 316 226 314 c 1
 116 314 l 1
 118 324 l 1
 226 324 l 1
 351 326 457 387 477 507 c 0
 497 625 410 687 290 689 c 1
 180 689 l 1
214 -61 m 1
 225 -66 l 1
 74 -314 l 1
 68 -312 l 1
 214 -61 l 1
EndSplineSet
EndChar

StartChar: uni0157
Encoding: 343 343 326
Width: 281
VWidth: 0
Flags: HMW
LayerCount: 2
Fore
SplineSet
144 460 m 1
 64 0 l 1
 54 0 l 1
 134 460 l 1
 144 460 l 1
310 440 m 1
 294 450 277 460 258 460 c 0
 172 462 127 362 112 280 c 1
 107 280 l 1
 123 371 167 474 258 470 c 0
 280 470 299 459 316 448 c 1
 310 440 l 1
58 -61 m 1
 68 -66 l 1
 -84 -314 l 1
 -90 -312 l 1
 58 -61 l 1
EndSplineSet
EndChar

StartChar: Scedilla
Encoding: 350 350 327
Width: 473
VWidth: 0
Flags: HMW
LayerCount: 2
Fore
SplineSet
55 197 m 1
 68 109 106 5 220 4 c 0
 337 3 406 77 422 175 c 0
 436 269 368 325 294 359 c 0
 216 393 128 448 144 550 c 0
 158 642 245 708 338 708 c 0
 441 708 483 626 492 550 c 1
 482 548 l 1
 472 619 434 696 338 696 c 0
 250 696 169 634 155 550 c 0
 139 454 222 402 300 368 c 0
 380 333 447 274 433 175 c 0
 417 75 344 -9 220 -8 c 0
 101 -7 59 98 45 193 c 1
 55 197 l 1
214 -2 m 1
 226 -2 l 1
 158 -76 l 1
 182 -63 201 -52 230 -54 c 0
 266 -56 295 -86 290 -128 c 0
 283 -185 224 -220 170 -220 c 0
 136 -220 112 -207 88 -183 c 1
 96 -177 l 1
 120 -198 140 -210 170 -210 c 0
 218 -210 273 -179 280 -127 c 0
 284 -90 261 -66 230 -64 c 0
 200 -62 170 -74 146 -88 c 1
 214 -2 l 1
EndSplineSet
EndChar

StartChar: scedilla
Encoding: 351 351 328
Width: 391
VWidth: 0
Flags: HMW
LayerCount: 2
Fore
SplineSet
46 147 m 1
 50 78 73 0 164 0 c 0
 234 0 296 49 306 117 c 0
 316 181 264 211 204 231 c 0
 138 254 87 280 99 359 c 0
 111 427 174 468 244 468 c 0
 316 468 345 422 357 368 c 1
 347 365 l 1
 335 415 308 458 243 458 c 0
 180 458 118 421 108 359 c 0
 96 285 148 262 210 240 c 0
 270 219 326 186 316 117 c 0
 306 43 240 -10 164 -10 c 0
 66 -10 40 70 36 144 c 1
 46 147 l 1
159 -4 m 1
 171 -4 l 1
 102 -78 l 1
 126 -65 145 -54 174 -56 c 0
 210 -58 239 -88 234 -130 c 0
 227 -187 168 -222 114 -222 c 0
 80 -222 57 -209 33 -185 c 1
 40 -179 l 1
 64 -200 84 -212 114 -212 c 0
 162 -212 217 -181 224 -129 c 0
 228 -92 205 -68 174 -66 c 0
 144 -64 114 -76 90 -90 c 1
 159 -4 l 1
EndSplineSet
EndChar

StartChar: Zcaron
Encoding: 381 381 329
Width: 519
VWidth: 0
Flags: HMW
LayerCount: 2
Fore
SplineSet
129 689 m 1
 131 700 l 1
 598 700 l 1
 16 12 l 1
 470 11 l 1
 468 0 l 1
 -8 0 l 1
 574 688 l 1
 129 689 l 1
377 780 m 1
 548 915 l 1
 556 907 l 1
 376 768 l 1
 244 908 l 1
 252 916 l 1
 377 780 l 1
EndSplineSet
EndChar

StartChar: zcaron
Encoding: 382 382 330
Width: 417
VWidth: 0
Flags: HMW
LayerCount: 2
Fore
SplineSet
278 542 m 1
 450 677 l 1
 456 669 l 1
 277 530 l 1
 145 670 l 1
 154 678 l 1
 278 542 l 1
418 450 m 1
 88 450 l 1
 90 460 l 1
 440 460 l 1
 14 10 l 1
 372 10 l 1
 371 0 l 1
 -8 0 l 1
 418 450 l 1
EndSplineSet
EndChar

StartChar: Ydieresis
Encoding: 376 376 331
Width: 492
VWidth: 0
Flags: HMW
LayerCount: 2
Fore
SplineSet
253 780 m 0
 253 786 260 790 266 790 c 0
 272 790 276 785 276 779 c 0
 276 773 270 768 264 768 c 0
 258 768 253 774 253 780 c 0
428 780 m 0
 428 786 436 790 442 790 c 0
 448 790 450 785 450 779 c 0
 450 773 444 768 438 768 c 0
 432 768 428 774 428 780 c 0
558 699 m 1
 570 699 l 1
 265 266 l 1
 219 0 l 1
 208 0 l 1
 254 266 l 1
 107 700 l 1
 120 700 l 1
 261 282 l 1
 558 699 l 1
EndSplineSet
EndChar

StartChar: Scaron
Encoding: 352 352 332
Width: 473
VWidth: 0
Flags: HMW
LayerCount: 2
Fore
SplineSet
55 197 m 1
 68 109 106 5 220 4 c 0
 337 3 406 77 422 175 c 0
 436 269 368 325 294 359 c 0
 216 393 128 448 144 550 c 0
 158 642 245 708 338 708 c 0
 441 708 483 626 492 550 c 1
 482 548 l 1
 472 619 434 696 338 696 c 0
 250 696 169 634 155 550 c 0
 139 454 222 402 300 368 c 0
 380 333 447 274 433 175 c 0
 417 75 344 -9 220 -8 c 0
 101 -7 59 98 45 193 c 1
 55 197 l 1
352 790 m 1
 524 925 l 1
 531 917 l 1
 352 778 l 1
 220 918 l 1
 228 926 l 1
 352 790 l 1
EndSplineSet
EndChar

StartChar: scaron
Encoding: 353 353 333
Width: 391
VWidth: 0
Flags: HMW
LayerCount: 2
Fore
SplineSet
46 147 m 1
 50 78 73 0 164 0 c 0
 234 0 296 49 306 117 c 0
 316 181 264 211 204 231 c 0
 138 254 87 280 99 359 c 0
 111 427 174 468 244 468 c 0
 316 468 345 422 357 368 c 1
 347 365 l 1
 335 415 308 458 243 458 c 0
 180 458 118 421 108 359 c 0
 96 285 148 262 210 240 c 0
 270 219 326 186 316 117 c 0
 306 43 240 -10 164 -10 c 0
 66 -10 40 70 36 144 c 1
 46 147 l 1
256 542 m 1
 428 677 l 1
 434 669 l 1
 255 530 l 1
 122 670 l 1
 132 678 l 1
 256 542 l 1
EndSplineSet
EndChar

StartChar: Lslash
Encoding: 321 321 334
Width: 363
VWidth: 0
Flags: HMW
LayerCount: 2
Fore
SplineSet
30 388 m 1
 26 396 l 1
 317 564 l 1
 322 556 l 1
 30 388 l 1
170 700 m 1
 182 700 l 1
 63 10 l 1
 329 10 l 1
 327 0 l 1
 50 0 l 1
 170 700 l 1
EndSplineSet
EndChar

StartChar: lslash
Encoding: 322 322 335
Width: 155
VWidth: 0
Flags: HMW
LayerCount: 2
Fore
SplineSet
31 388 m 1
 25 396 l 1
 226 544 l 1
 232 536 l 1
 31 388 l 1
180 780 m 1
 189 780 l 1
 55 0 l 1
 45 0 l 1
 180 780 l 1
EndSplineSet
EndChar

StartChar: uni0218
Encoding: 536 536 336
Width: 473
VWidth: 0
Flags: HMW
LayerCount: 2
Fore
SplineSet
55 197 m 1
 68 109 106 5 220 4 c 0
 337 3 406 77 422 175 c 0
 436 269 368 325 294 359 c 0
 216 393 128 448 144 550 c 0
 158 642 245 708 338 708 c 0
 441 708 483 626 492 550 c 1
 482 548 l 1
 472 619 434 696 338 696 c 0
 250 696 169 634 155 550 c 0
 139 454 222 402 300 368 c 0
 380 333 447 274 433 175 c 0
 417 75 344 -9 220 -8 c 0
 101 -7 59 98 45 193 c 1
 55 197 l 1
255 -69 m 1
 266 -74 l 1
 114 -322 l 1
 108 -320 l 1
 255 -69 l 1
EndSplineSet
EndChar

StartChar: uni0219
Encoding: 537 537 337
Width: 391
VWidth: 0
Flags: HMW
LayerCount: 2
Fore
SplineSet
46 147 m 1
 50 78 73 0 164 0 c 0
 234 0 296 49 306 117 c 0
 316 181 264 211 204 231 c 0
 138 254 87 280 99 359 c 0
 111 427 174 468 244 468 c 0
 316 468 345 422 357 368 c 1
 347 365 l 1
 335 415 308 458 243 458 c 0
 180 458 118 421 108 359 c 0
 96 285 148 262 210 240 c 0
 270 219 326 186 316 117 c 0
 306 43 240 -10 164 -10 c 0
 66 -10 40 70 36 144 c 1
 46 147 l 1
200 -71 m 1
 210 -76 l 1
 58 -324 l 1
 52 -322 l 1
 200 -71 l 1
EndSplineSet
EndChar

StartChar: pi
Encoding: 960 960 338
Width: 456
VWidth: 0
Flags: HMW
LayerCount: 2
Fore
SplineSet
138 450 m 1
 148 450 l 1
 70 0 l 1
 60 0 l 1
 138 450 l 1
80 460 m 1
 468 460 l 1
 467 450 l 1
 78 450 l 1
 80 460 l 1
380 450 m 1
 390 450 l 1
 333 121 l 2
 325 49 313 15 364 1 c 1
 362 -8 l 1
 304 4 315 41 324 121 c 2
 380 450 l 1
EndSplineSet
EndChar

StartChar: trademark
Encoding: 8482 8482 339
Width: 645
VWidth: 0
Flags: HMW
LayerCount: 2
Fore
SplineSet
128 694 m 1
 129 700 l 1
 320 700 l 1
 318 694 l 1
 226 694 l 1
 166 350 l 1
 161 350 l 1
 220 694 l 1
 128 694 l 1
666 688 m 1
 673 708 l 1
 646 350 l 1
 642 350 l 1
 666 688 l 1
402 708 m 1
 400 688 l 1
 308 350 l 1
 302 350 l 1
 402 708 l 1
673 707 m 1
 666 688 l 1
 484 402 l 1
 400 688 l 1
 400 708 l 1
 486 416 l 1
 673 707 l 1
EndSplineSet
EndChar

StartChar: uni2219
Encoding: 8729 8729 340
Width: 252
VWidth: 0
Flags: HMW
LayerCount: 2
Fore
SplineSet
165 449 m 0
 165 455 172 460 178 460 c 0
 184 460 186 455 186 449 c 0
 186 443 180 438 174 438 c 0
 168 438 165 443 165 449 c 0
EndSplineSet
EndChar

StartChar: agrave.alt
Encoding: 65537 -1 341
Width: 422
VWidth: 0
Flags: HMW
LayerCount: 2
Fore
SplineSet
44 135 m 0
 32 51 86 0 160 0 c 0
 254 0 325 77 346 159 c 1
 350 159 l 1
 330 73 261 -10 159 -10 c 0
 80 -10 21 46 34 136 c 0
 50 229 144 280 235 280 c 0
 297 280 334 259 361 235 c 1
 359 226 l 1
 331 252 290 270 234 270 c 0
 150 270 59 223 44 135 c 0
122 396 m 1
 116 404 l 1
 158 436 210 471 278 470 c 0
 366 468 392 399 382 320 c 2
 326 0 l 1
 316 0 l 1
 372 320 l 2
 382 395 360 458 278 460 c 0
 215 462 164 429 122 396 c 1
188 707 m 1
 197 714 l 1
 336 555 l 1
 330 550 l 1
 188 707 l 1
EndSplineSet
EndChar

StartChar: aacute.alt
Encoding: 65538 -1 342
Width: 422
VWidth: 0
Flags: HMW
LayerCount: 2
Fore
SplineSet
44 135 m 0
 32 51 86 0 160 0 c 0
 254 0 325 77 346 159 c 1
 350 159 l 1
 330 73 261 -10 159 -10 c 0
 80 -10 21 46 34 136 c 0
 50 229 144 280 235 280 c 0
 297 280 334 259 361 235 c 1
 359 226 l 1
 331 252 290 270 234 270 c 0
 150 270 59 223 44 135 c 0
122 396 m 1
 116 404 l 1
 158 436 210 471 278 470 c 0
 366 468 392 399 382 320 c 2
 326 0 l 1
 316 0 l 1
 372 320 l 2
 382 395 360 458 278 460 c 0
 215 462 164 429 122 396 c 1
432 706 m 1
 238 551 l 1
 232 556 l 1
 425 714 l 1
 432 706 l 1
EndSplineSet
EndChar

StartChar: acircumflex.alt
Encoding: 65539 -1 343
Width: 422
VWidth: 0
Flags: HMW
LayerCount: 2
Fore
SplineSet
44 135 m 0
 32 51 86 0 160 0 c 0
 254 0 325 77 346 159 c 1
 350 159 l 1
 330 73 261 -10 159 -10 c 0
 80 -10 21 46 34 136 c 0
 50 229 144 280 235 280 c 0
 297 280 334 259 361 235 c 1
 359 226 l 1
 331 252 290 270 234 270 c 0
 150 270 59 223 44 135 c 0
122 396 m 1
 116 404 l 1
 158 436 210 471 278 470 c 0
 366 468 392 399 382 320 c 2
 326 0 l 1
 316 0 l 1
 372 320 l 2
 382 395 360 458 278 460 c 0
 215 462 164 429 122 396 c 1
315 674 m 1
 142 541 l 1
 136 548 l 1
 316 686 l 1
 448 547 l 1
 440 540 l 1
 315 674 l 1
EndSplineSet
EndChar

StartChar: atilde.alt
Encoding: 65540 -1 344
Width: 422
VWidth: 0
Flags: HMW
LayerCount: 2
Fore
SplineSet
44 135 m 0
 32 51 86 0 160 0 c 0
 254 0 325 77 346 159 c 1
 350 159 l 1
 330 73 261 -10 159 -10 c 0
 80 -10 21 46 34 136 c 0
 50 229 144 280 235 280 c 0
 297 280 334 259 361 235 c 1
 359 226 l 1
 331 252 290 270 234 270 c 0
 150 270 59 223 44 135 c 0
122 396 m 1
 116 404 l 1
 158 436 210 471 278 470 c 0
 366 468 392 399 382 320 c 2
 326 0 l 1
 316 0 l 1
 372 320 l 2
 382 395 360 458 278 460 c 0
 215 462 164 429 122 396 c 1
166 582 m 1
 176 610 195 638 236 638 c 0
 284 638 302 591 349 592 c 0
 378 592 395 614 412 640 c 1
 420 636 l 1
 402 606 379 584 347 584 c 0
 300 584 280 630 238 630 c 0
 200 630 183 604 174 580 c 1
 166 582 l 1
EndSplineSet
EndChar

StartChar: adieresis.alt
Encoding: 65541 -1 345
Width: 422
VWidth: 0
Flags: HMW
LayerCount: 2
Fore
SplineSet
44 135 m 0
 32 51 86 0 160 0 c 0
 254 0 325 77 346 159 c 1
 350 159 l 1
 330 73 261 -10 159 -10 c 0
 80 -10 21 46 34 136 c 0
 50 229 144 280 235 280 c 0
 297 280 334 259 361 235 c 1
 359 226 l 1
 331 252 290 270 234 270 c 0
 150 270 59 223 44 135 c 0
122 396 m 1
 116 404 l 1
 158 436 210 471 278 470 c 0
 366 468 392 399 382 320 c 2
 326 0 l 1
 316 0 l 1
 372 320 l 2
 382 395 360 458 278 460 c 0
 215 462 164 429 122 396 c 1
352 561 m 0
 352 567 358 572 364 572 c 0
 370 572 374 567 374 561 c 0
 374 555 367 550 361 550 c 0
 355 550 352 555 352 561 c 0
196 561 m 0
 196 567 203 572 209 572 c 0
 215 572 218 567 218 561 c 0
 218 555 212 550 206 550 c 0
 200 550 196 555 196 561 c 0
EndSplineSet
EndChar

StartChar: aring.alt
Encoding: 65542 -1 346
Width: 422
VWidth: 0
Flags: HMW
LayerCount: 2
Fore
SplineSet
44 135 m 0
 32 51 86 0 160 0 c 0
 254 0 325 77 346 159 c 1
 350 159 l 1
 330 73 261 -10 159 -10 c 0
 80 -10 21 46 34 136 c 0
 50 229 144 280 235 280 c 0
 297 280 334 259 361 235 c 1
 359 226 l 1
 331 252 290 270 234 270 c 0
 150 270 59 223 44 135 c 0
122 396 m 1
 116 404 l 1
 158 436 210 471 278 470 c 0
 366 468 392 399 382 320 c 2
 326 0 l 1
 316 0 l 1
 372 320 l 2
 382 395 360 458 278 460 c 0
 215 462 164 429 122 396 c 1
207 630 m 0
 215 686 270 730 324 730 c 0
 377 730 414 684 406 630 c 0
 398 574 344 530 290 530 c 0
 237 530 199 576 207 630 c 0
217 630 m 0
 210 582 242 541 290 540 c 0
 338 539 388 581 396 630 c 0
 403 678 370 719 322 720 c 0
 274 721 225 679 217 630 c 0
EndSplineSet
EndChar

StartChar: amacron.alt
Encoding: 65543 -1 347
Width: 422
VWidth: 0
Flags: HMW
LayerCount: 2
Fore
SplineSet
44 135 m 0
 32 51 86 0 160 0 c 0
 254 0 325 77 346 159 c 1
 350 159 l 1
 330 73 261 -10 159 -10 c 0
 80 -10 21 46 34 136 c 0
 50 229 144 280 235 280 c 0
 297 280 334 259 361 235 c 1
 359 226 l 1
 331 252 290 270 234 270 c 0
 150 270 59 223 44 135 c 0
122 396 m 1
 116 404 l 1
 158 436 210 471 278 470 c 0
 366 468 392 399 382 320 c 2
 326 0 l 1
 316 0 l 1
 372 320 l 2
 382 395 360 458 278 460 c 0
 215 462 164 429 122 396 c 1
123 550 m 1
 124 560 l 1
 464 560 l 1
 463 550 l 1
 123 550 l 1
EndSplineSet
EndChar

StartChar: abreve.alt
Encoding: 65544 -1 348
Width: 422
VWidth: 0
Flags: HMW
LayerCount: 2
Fore
SplineSet
44 135 m 0
 32 51 86 0 160 0 c 0
 254 0 325 77 346 159 c 1
 350 159 l 1
 330 73 261 -10 159 -10 c 0
 80 -10 21 46 34 136 c 0
 50 229 144 280 235 280 c 0
 297 280 334 259 361 235 c 1
 359 226 l 1
 331 252 290 270 234 270 c 0
 150 270 59 223 44 135 c 0
122 396 m 1
 116 404 l 1
 158 436 210 471 278 470 c 0
 366 468 392 399 382 320 c 2
 326 0 l 1
 316 0 l 1
 372 320 l 2
 382 395 360 458 278 460 c 0
 215 462 164 429 122 396 c 1
152 680 m 1
 162 680 l 1
 156 612 196 550 282 550 c 0
 370 550 430 612 450 679 c 1
 460 679 l 1
 440 607 380 540 282 540 c 0
 186 540 145 607 152 680 c 1
EndSplineSet
EndChar

StartChar: aogonek.alt
Encoding: 65545 -1 349
Width: 422
VWidth: 0
Flags: HMW
LayerCount: 2
Fore
SplineSet
44 135 m 0
 32 51 86 0 160 0 c 0
 254 0 325 77 346 159 c 1
 350 159 l 1
 330 73 261 -10 159 -10 c 0
 80 -10 21 46 34 136 c 0
 50 229 144 280 235 280 c 0
 297 280 334 259 361 235 c 1
 359 226 l 1
 331 252 290 270 234 270 c 0
 150 270 59 223 44 135 c 0
122 396 m 1
 116 404 l 1
 158 436 210 471 278 470 c 0
 366 468 392 399 382 320 c 2
 326 0 l 1
 316 0 l 1
 372 320 l 2
 382 395 360 458 278 460 c 0
 215 462 164 429 122 396 c 1
330 -174 m 1
 336 -181 l 1
 312 -201 275 -220 234 -220 c 0
 178 -220 141 -190 148 -140 c 0
 159 -66 254 -23 322 10 c 1
 328 0 l 1
 263 -31 168 -74 158 -140 c 0
 152 -185 191 -210 236 -210 c 0
 274 -210 308 -192 330 -174 c 1
EndSplineSet
EndChar

StartChar: dagger
Encoding: 8224 8224 350
Width: 485
VWidth: 0
Flags: HMW
LayerCount: 2
Fore
SplineSet
153 540 m 1
 464 540 l 1
 462 530 l 1
 152 530 l 1
 153 540 l 1
329 700 m 1
 338 700 l 1
 207 -150 l 1
 197 -150 l 1
 329 700 l 1
EndSplineSet
EndChar

StartChar: daggerdbl
Encoding: 8225 8225 351
Width: 485
VWidth: 0
Flags: HMW
LayerCount: 2
Fore
SplineSet
88 120 m 1
 400 120 l 1
 398 110 l 1
 87 110 l 1
 88 120 l 1
153 540 m 1
 464 540 l 1
 462 530 l 1
 152 530 l 1
 153 540 l 1
329 700 m 1
 338 700 l 1
 207 -150 l 1
 197 -150 l 1
 329 700 l 1
EndSplineSet
EndChar

StartChar: ellipsis
Encoding: 8230 8230 352
Width: 788
VWidth: 0
Flags: HMW
LayerCount: 2
Fore
SplineSet
90 1 m 0
 90 7 96 12 102 12 c 0
 108 12 111 7 111 1 c 0
 111 -5 104 -10 98 -10 c 0
 92 -10 90 -5 90 1 c 0
356 1 m 0
 356 7 362 12 368 12 c 0
 374 12 378 7 378 1 c 0
 378 -5 372 -10 366 -10 c 0
 360 -10 356 -5 356 1 c 0
623 1 m 0
 623 7 630 12 636 12 c 0
 642 12 644 7 644 1 c 0
 644 -5 638 -10 632 -10 c 0
 626 -10 623 -5 623 1 c 0
EndSplineSet
EndChar

StartChar: uniFF10
Encoding: 65296 65296 353
Width: 533
VWidth: 0
Flags: HMW
LayerCount: 2
Fore
SplineSet
97 350 m 0
 81 208 89 1 239 0 c 0
 389 -1 480 190 502 350 c 0
 518 492 510 699 360 700 c 0
 210 701 119 510 97 350 c 0
86 350 m 0
 110 519 204 711 360 710 c 0
 518 709 531 502 513 350 c 0
 489 181 394 -11 238 -10 c 0
 80 -9 68 198 86 350 c 0
EndSplineSet
EndChar

StartChar: uniFF11
Encoding: 65297 65297 354
Width: 533
VWidth: 0
Flags: HMW
LayerCount: 2
Fore
SplineSet
244 654 m 1
 246 666 l 1
 428 705 l 1
 307 0 l 1
 297 0 l 1
 416 690 l 1
 244 654 l 1
EndSplineSet
EndChar

StartChar: uniFF12
Encoding: 65298 65298 355
Width: 533
VWidth: 0
Flags: HMW
LayerCount: 2
Fore
SplineSet
14 0 m 1
 382 334 l 2
 438 385 492 438 506 519 c 0
 521 601 481 699 365 700 c 0
 237 701 155 585 131 460 c 1
 121 460 l 1
 146 592 233 712 366 710 c 0
 486 709 533 607 517 519 c 0
 503 438 446 380 390 328 c 2
 41 10 l 1
 457 10 l 1
 456 0 l 1
 14 0 l 1
EndSplineSet
EndChar

StartChar: uniFF13
Encoding: 65299 65299 356
Width: 533
VWidth: 0
Flags: HMW
LayerCount: 2
Fore
SplineSet
275 362 m 1
 276 370 l 1
 372 376 488 429 506 533 c 0
 521 616 468 699 366 700 c 0
 258 701 185 622 163 527 c 1
 153 527 l 1
 176 629 253 711 367 710 c 0
 476 710 532 623 516 534 c 0
 496 424 381 367 275 362 c 1
242 -10 m 0
 115 -10 55 78 67 185 c 1
 77 185 l 1
 65 81 120 0 242 0 c 0
 354 0 449 74 465 175 c 0
 483 293 369 354 275 360 c 1
 276 368 l 1
 381 362 493 298 474 175 c 0
 456 67 360 -10 242 -10 c 0
EndSplineSet
EndChar

StartChar: uniFF14
Encoding: 65300 65300 357
Width: 533
VWidth: 0
Flags: HMW
LayerCount: 2
Fore
SplineSet
20 140 m 1
 31 150 l 1
 386 150 l 1
 390 150 l 1
 500 150 l 1
 498 140 l 1
 20 140 l 1
32 141 m 1
 20 140 l 1
 486 700 l 1
 489 700 l 1
 368 0 l 1
 358 0 l 1
 382 142 l 1
 383 147 l 1
 472 664 l 1
 32 141 l 1
EndSplineSet
EndChar

StartChar: uniFF15
Encoding: 65301 65301 358
Width: 533
VWidth: 0
Flags: HMW
LayerCount: 2
Fore
SplineSet
484 230 m 0
 464 88 355 -10 224 -10 c 0
 123 -10 70 49 46 137 c 1
 55 142 l 1
 79 57 126 0 224 0 c 0
 350 0 454 95 474 230 c 0
 490 336 434 434 326 436 c 0
 238 438 166 390 108 328 c 1
 130 360 l 1
 171 408 244 447 326 446 c 0
 440 444 500 343 484 230 c 0
266 690 m 1
 130 360 l 1
 108 328 l 1
 261 700 l 1
 582 700 l 1
 580 690 l 1
 266 690 l 1
EndSplineSet
EndChar

StartChar: uniFF16
Encoding: 65302 65302 359
Width: 533
VWidth: 0
Flags: HMW
LayerCount: 2
Fore
SplineSet
76 220 m 0
 58 107 115 1 239 0 c 0
 363 -1 462 101 480 220 c 0
 495 324 432 424 324 426 c 0
 194 428 96 328 76 220 c 0
420 699 m 1
 432 699 l 1
 136 356 l 1
 136 356 l 1
 186 404 250 438 324 437 c 0
 440 435 505 328 489 220 c 0
 470 94 371 -10 238 -10 c 0
 106 -10 48 100 66 220 c 0
 76 279 111 337 147 379 c 2
 420 699 l 1
EndSplineSet
EndChar

StartChar: uniFF17
Encoding: 65303 65303 360
Width: 533
VWidth: 0
Flags: HMW
LayerCount: 2
Fore
SplineSet
141 690 m 1
 142 700 l 1
 600 700 l 1
 120 0 l 1
 110 0 l 1
 582 690 l 1
 141 690 l 1
EndSplineSet
EndChar

StartChar: uniFF18
Encoding: 65304 65304 361
Width: 533
VWidth: 0
Flags: HMW
LayerCount: 2
Fore
SplineSet
164 541 m 0
 178 629 262 710 360 710 c 0
 456 710 514 625 500 540 c 0
 486 447 393 368 303 368 c 0
 215 368 151 451 164 541 c 0
174 541 m 0
 162 457 225 377 303 376 c 0
 383 375 476 453 490 541 c 0
 504 622 451 700 360 700 c 0
 268 700 188 625 174 541 c 0
84 185 m 0
 101 288 199 372 302 372 c 0
 403 372 473 285 459 185 c 0
 443 79 356 -10 238 -10 c 0
 120 -10 68 83 84 185 c 0
94 185 m 0
 78 87 129 0 239 0 c 0
 349 0 433 83 449 185 c 0
 463 280 396 364 302 364 c 0
 206 364 110 284 94 185 c 0
EndSplineSet
EndChar

StartChar: uniFF19
Encoding: 65305 65305 362
Width: 533
VWidth: 0
Flags: HMW
LayerCount: 2
Fore
SplineSet
524 480 m 0
 542 593 484 699 360 700 c 0
 236 701 138 599 120 480 c 0
 105 376 167 276 275 274 c 0
 405 272 504 372 524 480 c 0
179 0 m 1
 167 0 l 1
 462 344 l 1
 462 344 l 1
 412 296 348 262 274 263 c 0
 158 265 94 372 110 480 c 0
 129 606 227 710 360 710 c 0
 492 710 552 600 534 480 c 0
 524 421 488 363 452 321 c 2
 179 0 l 1
EndSplineSet
EndChar

StartChar: caron
Encoding: 711 711 363
Width: 465
VWidth: 0
Flags: HMW
LayerCount: 2
Fore
SplineSet
304 582 m 1
 476 717 l 1
 483 709 l 1
 304 570 l 1
 171 710 l 1
 180 718 l 1
 304 582 l 1
EndSplineSet
EndChar

StartChar: napostrophe
Encoding: 329 329 364
Width: 596
VWidth: 0
Flags: HMW
LayerCount: 2
Fore
SplineSet
232 460 m 1
 152 0 l 1
 142 0 l 1
 222 460 l 1
 232 460 l 1
484 320 m 2
 494 392 475 459 389 460 c 0
 293 461 220 369 200 281 c 1
 194 281 l 1
 214 379 288 470 390 470 c 0
 482 470 504 399 494 320 c 2
 438 0 l 1
 428 0 l 1
 484 320 l 2
261 699 m 1
 273 699 l 1
 140 471 l 1
 130 471 l 1
 261 699 l 1
EndSplineSet
EndChar

StartChar: IJ
Encoding: 306 306 365
Width: 475
VWidth: 0
Flags: HMW
LayerCount: 2
Fore
SplineSet
64 -158 m 1
 88 -184 121 -208 163 -208 c 0
 253 -210 286 -145 300 -50 c 2
 428 700 l 1
 440 700 l 1
 310 -60 l 2
 296 -153 257 -222 163 -220 c 0
 115 -220 77 -191 57 -165 c 1
 64 -158 l 1
176 700 m 1
 186 700 l 1
 64 0 l 1
 54 0 l 1
 176 700 l 1
EndSplineSet
EndChar

StartChar: ij
Encoding: 307 307 366
Width: 494
VWidth: 0
Flags: HMW
LayerCount: 2
Fore
SplineSet
416 695 m 0
 416 700 422 705 428 705 c 0
 434 705 436 701 436 695 c 0
 436 690 431 685 425 685 c 0
 419 685 416 689 416 695 c 0
103 -165 m 1
 121 -175 142 -208 172 -210 c 0
 246 -215 278 -136 288 -82 c 2
 382 460 l 1
 392 460 l 1
 299 -82 l 2
 287 -147 250 -222 170 -220 c 0
 132 -219 112 -194 96 -172 c 1
 103 -165 l 1
174 695 m 0
 174 700 179 705 185 705 c 0
 191 705 194 701 194 695 c 0
 194 690 188 685 182 685 c 0
 176 685 174 689 174 695 c 0
140 460 m 1
 149 460 l 1
 70 0 l 1
 60 0 l 1
 140 460 l 1
EndSplineSet
EndChar

StartChar: uni0237
Encoding: 567 567 367
Width: 174
VWidth: 0
Flags: HMW
LayerCount: 2
Fore
SplineSet
-149 -165 m 1
 -134 -186 -114 -209 -81 -210 c 0
 -6 -212 25 -138 36 -82 c 2
 130 460 l 1
 140 460 l 1
 46 -82 l 2
 34 -147 -2 -222 -82 -220 c 0
 -120 -219 -141 -194 -157 -172 c 1
 -149 -165 l 1
EndSplineSet
EndChar

StartChar: Sacute
Encoding: 346 346 368
Width: 473
VWidth: 0
Flags: HMW
LayerCount: 2
Fore
SplineSet
55 197 m 1
 68 109 106 5 220 4 c 0
 337 3 406 77 422 175 c 0
 436 269 368 325 294 359 c 0
 216 393 128 448 144 550 c 0
 158 642 245 708 338 708 c 0
 441 708 483 626 492 550 c 1
 482 548 l 1
 472 619 434 696 338 696 c 0
 250 696 169 634 155 550 c 0
 139 454 222 402 300 368 c 0
 380 333 447 274 433 175 c 0
 417 75 344 -9 220 -8 c 0
 101 -7 59 98 45 193 c 1
 55 197 l 1
528 924 m 1
 332 769 l 1
 328 774 l 1
 520 932 l 1
 528 924 l 1
EndSplineSet
EndChar

StartChar: sacute
Encoding: 347 347 369
Width: 391
VWidth: 0
Flags: HMW
LayerCount: 2
Fore
SplineSet
46 147 m 1
 50 78 73 0 164 0 c 0
 234 0 296 49 306 117 c 0
 316 181 264 211 204 231 c 0
 138 254 87 280 99 359 c 0
 111 427 174 468 244 468 c 0
 316 468 345 422 357 368 c 1
 347 365 l 1
 335 415 308 458 243 458 c 0
 180 458 118 421 108 359 c 0
 96 285 148 262 210 240 c 0
 270 219 326 186 316 117 c 0
 306 43 240 -10 164 -10 c 0
 66 -10 40 70 36 144 c 1
 46 147 l 1
432 686 m 1
 238 531 l 1
 232 536 l 1
 426 694 l 1
 432 686 l 1
EndSplineSet
EndChar

StartChar: Scircumflex
Encoding: 348 348 370
Width: 473
VWidth: 0
Flags: HMW
LayerCount: 2
Fore
SplineSet
55 197 m 1
 68 109 106 5 220 4 c 0
 337 3 406 77 422 175 c 0
 436 269 368 325 294 359 c 0
 216 393 128 448 144 550 c 0
 158 642 245 708 338 708 c 0
 441 708 483 626 492 550 c 1
 482 548 l 1
 472 619 434 696 338 696 c 0
 250 696 169 634 155 550 c 0
 139 454 222 402 300 368 c 0
 380 333 447 274 433 175 c 0
 417 75 344 -9 220 -8 c 0
 101 -7 59 98 45 193 c 1
 55 197 l 1
373 902 m 1
 201 769 l 1
 195 776 l 1
 374 914 l 1
 506 775 l 1
 498 768 l 1
 373 902 l 1
EndSplineSet
EndChar

StartChar: scircumflex
Encoding: 349 349 371
Width: 391
VWidth: 0
Flags: HMW
LayerCount: 2
Fore
SplineSet
46 147 m 1
 50 78 73 0 164 0 c 0
 234 0 296 49 306 117 c 0
 316 181 264 211 204 231 c 0
 138 254 87 280 99 359 c 0
 111 427 174 468 244 468 c 0
 316 468 345 422 357 368 c 1
 347 365 l 1
 335 415 308 458 243 458 c 0
 180 458 118 421 108 359 c 0
 96 285 148 262 210 240 c 0
 270 219 326 186 316 117 c 0
 306 43 240 -10 164 -10 c 0
 66 -10 40 70 36 144 c 1
 46 147 l 1
278 664 m 1
 106 531 l 1
 100 538 l 1
 280 676 l 1
 412 537 l 1
 404 530 l 1
 278 664 l 1
EndSplineSet
EndChar

StartChar: uni1E9E
Encoding: 7838 7838 372
Width: 666
VWidth: 0
Flags: HMW
LayerCount: 2
Fore
SplineSet
382 -10 m 0
 508 -10 604 62 604 181 c 0
 604 339 460 324 460 380 c 0
 460 441 618 426 618 563 c 0
 618 638 555 708 428 708 c 0
 285 708 153 623 126 454 c 2
 50 0 l 1
 62 0 l 1
 138 448 l 2
 164 609 283 698 428 698 c 0
 555 698 606 628 606 563 c 0
 606 432 448 451 448 380 c 0
 448 312 592 335 592 181 c 0
 592 73 508 0 382 0 c 0
 322 0 269 16 211 62 c 1
 203 55 l 1
 253 15 306 -10 382 -10 c 0
EndSplineSet
EndChar

StartChar: Zacute
Encoding: 377 377 373
Width: 519
VWidth: 0
Flags: HW
LayerCount: 2
Fore
SplineSet
129 689 m 1
 131 700 l 1
 598 700 l 1
 16 12 l 1
 470 11 l 1
 468 0 l 1
 -8 0 l 1
 574 688 l 1
 129 689 l 1
545 924 m 1
 348 769 l 1
 345 774 l 1
 538 932 l 1
 545 924 l 1
EndSplineSet
EndChar

StartChar: zacute
Encoding: 378 378 374
Width: 417
VWidth: 0
Flags: HW
LayerCount: 2
Fore
SplineSet
417 450 m 1
 88 450 l 1
 90 460 l 1
 440 460 l 1
 14 10 l 1
 372 10 l 1
 371 0 l 1
 -8 0 l 1
 417 450 l 1
446 686 m 1
 250 531 l 1
 246 536 l 1
 439 694 l 1
 446 686 l 1
EndSplineSet
EndChar

StartChar: Zdotaccent
Encoding: 379 379 375
Width: 519
VWidth: 0
Flags: HW
LayerCount: 2
Fore
SplineSet
129 689 m 1
 131 700 l 1
 598 700 l 1
 16 12 l 1
 470 11 l 1
 468 0 l 1
 -8 0 l 1
 574 688 l 1
 129 689 l 1
367 779 m 0
 367 785 373 790 379 790 c 0
 385 790 388 785 388 779 c 0
 388 773 382 768 376 768 c 0
 370 768 367 773 367 779 c 0
EndSplineSet
EndChar

StartChar: zdotaccent
Encoding: 380 380 376
Width: 417
VWidth: 0
Flags: HW
LayerCount: 2
Fore
SplineSet
417 450 m 1
 88 450 l 1
 90 460 l 1
 440 460 l 1
 14 10 l 1
 372 10 l 1
 371 0 l 1
 -8 0 l 1
 417 450 l 1
273 571 m 0
 273 577 280 582 286 582 c 0
 292 582 294 577 294 571 c 0
 294 565 288 560 282 560 c 0
 276 560 273 565 273 571 c 0
EndSplineSet
EndChar

StartChar: Tcaron
Encoding: 356 356 377
Width: 418
VWidth: 0
Flags: HW
LayerCount: 2
Fore
SplineSet
110 689 m 1
 112 700 l 1
 492 700 l 1
 490 689 l 1
 305 689 l 1
 187 0 l 1
 176 0 l 1
 294 689 l 1
 110 689 l 1
315 780 m 1
 486 915 l 1
 493 907 l 1
 313 768 l 1
 181 908 l 1
 190 916 l 1
 315 780 l 1
EndSplineSet
EndChar

StartChar: tcaron
Encoding: 357 357 378
Width: 271
VWidth: 0
Flags: HW
LayerCount: 2
Fore
SplineSet
66 460 m 1
 222 460 l 1
 220 450 l 1
 64 450 l 1
 66 460 l 1
166 620 m 1
 176 620 l 1
 70 0 l 1
 60 0 l 1
 166 620 l 1
372 774 m 1
 382 769 l 1
 231 521 l 1
 225 523 l 1
 372 774 l 1
EndSplineSet
EndChar

StartChar: Uring
Encoding: 366 366 379
Width: 558
VWidth: 0
Flags: HW
LayerCount: 2
Fore
SplineSet
176 700 m 1
 186 700 l 1
 104 220 l 2
 89 104 129 2 252 2 c 0
 375 2 456 98 476 220 c 2
 558 700 l 1
 570 700 l 1
 488 220 l 2
 467 92 386 -10 252 -10 c 0
 118 -10 77 98 93 220 c 2
 176 700 l 1
301 868 m 0
 309 924 364 968 418 968 c 0
 471 968 508 922 500 868 c 0
 492 812 438 768 384 768 c 0
 331 768 293 814 301 868 c 0
311 868 m 0
 304 820 336 779 384 778 c 0
 432 777 482 819 490 868 c 0
 497 916 464 957 416 958 c 0
 368 959 319 917 311 868 c 0
EndSplineSet
EndChar

StartChar: uring
Encoding: 367 367 380
Width: 460
VWidth: 0
Flags: HW
LayerCount: 2
Fore
SplineSet
341 0 m 1
 420 460 l 1
 430 460 l 1
 351 0 l 1
 341 0 l 1
90 150 m 2
 80 72 95 0 184 0 c 0
 280 -1 353 91 373 179 c 1
 378 179 l 1
 358 81 285 -11 183 -10 c 0
 88 -10 69 66 80 150 c 2
 134 460 l 1
 144 460 l 1
 90 150 l 2
211 630 m 0
 219 686 274 730 328 730 c 0
 381 730 418 684 410 630 c 0
 402 574 348 530 294 530 c 0
 241 530 203 576 211 630 c 0
221 630 m 0
 214 582 247 541 295 540 c 0
 343 539 392 581 400 630 c 0
 407 678 375 719 327 720 c 0
 279 721 229 679 221 630 c 0
EndSplineSet
EndChar

StartChar: uni0123
Encoding: 291 291 381
Width: 553
VWidth: 0
Flags: HW
LayerCount: 2
Fore
SplineSet
26 -30 m 1
 36 -30 l 1
 24 -133 70 -219 180 -220 c 0
 298 -221 392 -123 412 10 c 2
 490 460 l 1
 500 460 l 1
 422 10 l 2
 400 -128 305 -230 179 -230 c 0
 63 -230 14 -137 26 -30 c 1
56 230 m 0
 76 362 177 472 303 470 c 0
 427 468 471 336 455 230 c 0
 437 116 347 -10 222 -10 c 0
 96 -10 39 106 56 230 c 0
66 230 m 0
 49 110 104 0 226 0 c 0
 342 0 432 121 450 235 c 0
 464 331 417 458 305 460 c 0
 183 462 85 356 66 230 c 0
319 567 m 1
 310 574 l 1
 493 802 l 1
 499 798 l 1
 319 567 l 1
EndSplineSet
EndChar

StartChar: Hbar
Encoding: 294 294 382
Width: 627
VWidth: 0
Flags: HW
LayerCount: 2
Fore
SplineSet
128 377 m 1
 129 387 l 1
 576 387 l 1
 574 377 l 1
 128 377 l 1
622 700 m 1
 634 700 l 1
 513 0 l 1
 502 0 l 1
 622 700 l 1
180 700 m 1
 191 700 l 1
 70 0 l 1
 60 0 l 1
 180 700 l 1
81 605 m 1
 82 615 l 1
 701 615 l 1
 700 605 l 1
 81 605 l 1
EndSplineSet
EndChar

StartChar: hbar
Encoding: 295 295 383
Width: 509
VWidth: 0
Flags: HW
LayerCount: 2
Fore
SplineSet
199 780 m 1
 64 0 l 1
 54 0 l 1
 189 780 l 1
 199 780 l 1
396 320 m 2
 406 392 388 459 302 460 c 0
 206 461 132 369 112 281 c 1
 107 281 l 1
 127 379 200 470 302 470 c 0
 394 470 416 399 406 320 c 2
 350 0 l 1
 341 0 l 1
 396 320 l 2
96 690 m 1
 97 700 l 1
 400 700 l 1
 398 690 l 1
 96 690 l 1
EndSplineSet
EndChar

StartChar: Utilde
Encoding: 360 360 384
Width: 558
VWidth: 0
Flags: HW
LayerCount: 2
Fore
SplineSet
176 700 m 1
 186 700 l 1
 104 220 l 2
 89 104 129 2 252 2 c 0
 375 2 456 98 476 220 c 2
 558 700 l 1
 570 700 l 1
 488 220 l 2
 467 92 386 -10 252 -10 c 0
 118 -10 77 98 93 220 c 2
 176 700 l 1
263 769 m 1
 272 797 291 826 332 826 c 0
 380 826 397 779 445 780 c 0
 474 780 491 801 507 827 c 1
 516 824 l 1
 498 794 476 772 444 772 c 0
 397 772 376 818 334 818 c 0
 297 818 280 792 272 768 c 1
 263 769 l 1
EndSplineSet
EndChar

StartChar: utilde
Encoding: 361 361 385
Width: 460
VWidth: 0
Flags: HW
LayerCount: 2
Fore
SplineSet
341 0 m 1
 420 460 l 1
 430 460 l 1
 351 0 l 1
 341 0 l 1
90 150 m 2
 80 72 95 0 184 0 c 0
 280 -1 353 91 373 179 c 1
 378 179 l 1
 358 81 285 -11 183 -10 c 0
 88 -10 69 66 80 150 c 2
 134 460 l 1
 144 460 l 1
 90 150 l 2
172 532 m 1
 182 560 201 588 242 588 c 0
 290 588 307 541 354 542 c 0
 383 542 401 564 418 590 c 1
 426 586 l 1
 408 556 385 534 353 534 c 0
 306 534 286 580 244 580 c 0
 207 580 188 554 180 530 c 1
 172 532 l 1
EndSplineSet
EndChar

StartChar: Umacron
Encoding: 362 362 386
Width: 558
VWidth: 0
Flags: HW
LayerCount: 2
Fore
SplineSet
176 700 m 1
 186 700 l 1
 104 220 l 2
 89 104 129 2 252 2 c 0
 375 2 456 98 476 220 c 2
 558 700 l 1
 570 700 l 1
 488 220 l 2
 467 92 386 -10 252 -10 c 0
 118 -10 77 98 93 220 c 2
 176 700 l 1
214 768 m 1
 215 778 l 1
 555 778 l 1
 554 768 l 1
 214 768 l 1
EndSplineSet
EndChar

StartChar: umacron
Encoding: 363 363 387
Width: 460
VWidth: 0
Flags: HW
LayerCount: 2
Fore
SplineSet
341 0 m 1
 420 460 l 1
 430 460 l 1
 351 0 l 1
 341 0 l 1
90 150 m 2
 80 72 95 0 184 0 c 0
 280 -1 353 91 373 179 c 1
 378 179 l 1
 358 81 285 -11 183 -10 c 0
 88 -10 69 66 80 150 c 2
 134 460 l 1
 144 460 l 1
 90 150 l 2
124 530 m 1
 126 540 l 1
 465 540 l 1
 464 530 l 1
 124 530 l 1
EndSplineSet
EndChar

StartChar: Ubreve
Encoding: 364 364 388
Width: 558
VWidth: 0
Flags: HW
LayerCount: 2
Fore
SplineSet
176 700 m 1
 186 700 l 1
 104 220 l 2
 89 104 129 2 252 2 c 0
 375 2 456 98 476 220 c 2
 558 700 l 1
 570 700 l 1
 488 220 l 2
 467 92 386 -10 252 -10 c 0
 118 -10 77 98 93 220 c 2
 176 700 l 1
254 908 m 1
 264 908 l 1
 258 840 298 778 384 778 c 0
 472 778 532 840 552 907 c 1
 562 907 l 1
 542 835 482 768 384 768 c 0
 288 768 247 835 254 908 c 1
EndSplineSet
EndChar

StartChar: ubreve
Encoding: 365 365 389
Width: 460
VWidth: 0
Flags: HW
LayerCount: 2
Fore
SplineSet
341 0 m 1
 420 460 l 1
 430 460 l 1
 351 0 l 1
 341 0 l 1
90 150 m 2
 80 72 95 0 184 0 c 0
 280 -1 353 91 373 179 c 1
 378 179 l 1
 358 81 285 -11 183 -10 c 0
 88 -10 69 66 80 150 c 2
 134 460 l 1
 144 460 l 1
 90 150 l 2
165 670 m 1
 174 670 l 1
 168 602 209 540 295 540 c 0
 383 540 442 602 462 669 c 1
 472 669 l 1
 452 597 392 530 294 530 c 0
 198 530 158 597 165 670 c 1
EndSplineSet
EndChar

StartChar: uni0400
Encoding: 1024 1024 390
Width: 533
VWidth: 0
Flags: HW
LayerCount: 2
Fore
SplineSet
62 0 m 1
 64 10 l 1
 392 10 l 1
 390 0 l 1
 62 0 l 1
180 690 m 1
 182 700 l 1
 510 700 l 1
 508 690 l 1
 180 690 l 1
128 384 m 1
 130 394 l 1
 438 394 l 1
 436 384 l 1
 128 384 l 1
180 700 m 1
 191 700 l 1
 70 0 l 1
 60 0 l 1
 180 700 l 1
256 952 m 1
 265 960 l 1
 404 800 l 1
 398 796 l 1
 256 952 l 1
EndSplineSet
EndChar

StartChar: uni0401
Encoding: 1025 1025 391
Width: 533
VWidth: 0
Flags: HW
LayerCount: 2
Fore
SplineSet
62 0 m 1
 64 10 l 1
 392 10 l 1
 390 0 l 1
 62 0 l 1
180 690 m 1
 182 700 l 1
 510 700 l 1
 508 690 l 1
 180 690 l 1
128 384 m 1
 130 394 l 1
 438 394 l 1
 436 384 l 1
 128 384 l 1
180 700 m 1
 191 700 l 1
 70 0 l 1
 60 0 l 1
 180 700 l 1
454 854 m 0
 454 860 460 865 466 865 c 0
 472 865 475 860 475 854 c 0
 475 848 468 843 462 843 c 0
 456 843 454 848 454 854 c 0
259 854 m 0
 259 860 266 865 272 865 c 0
 278 865 281 860 281 854 c 0
 281 848 274 843 268 843 c 0
 262 843 259 848 259 854 c 0
EndSplineSet
EndChar

StartChar: uni0403
Encoding: 1027 1027 392
Width: 422
VWidth: 0
Flags: HW
LayerCount: 2
Fore
SplineSet
170 700 m 1
 505 700 l 1
 503 690 l 1
 178 690 l 1
 60 0 l 1
 50 0 l 1
 170 700 l 1
510 951 m 1
 314 796 l 1
 310 801 l 1
 503 959 l 1
 510 951 l 1
EndSplineSet
EndChar

StartChar: uni040C
Encoding: 1036 1036 393
Width: 548
VWidth: 0
Flags: HW
LayerCount: 2
Fore
SplineSet
176 700 m 1
 186 700 l 1
 66 0 l 1
 54 0 l 1
 176 700 l 1
488 699 m 1
 504 699 l 1
 142 372 l 1
 399 0 l 1
 383 0 l 1
 128 372 l 1
 488 699 l 1
568 951 m 1
 373 796 l 1
 368 801 l 1
 562 959 l 1
 568 951 l 1
EndSplineSet
EndChar

StartChar: uni040D
Encoding: 1037 1037 394
Width: 703
VWidth: 0
Flags: HW
LayerCount: 2
Fore
SplineSet
707 710 m 1
 54 -34 l 1
 62 -10 l 1
 716 734 l 1
 707 710 l 1
190 700 m 1
 67 -13 l 1
 54 -34 l 1
 180 700 l 1
 190 700 l 1
716 734 m 1
 588 0 l 1
 578 0 l 1
 702 715 l 1
 716 734 l 1
315 927 m 1
 324 934 l 1
 462 775 l 1
 457 770 l 1
 315 927 l 1
EndSplineSet
EndChar

StartChar: uni040E
Encoding: 1038 1038 395
Width: 465
VWidth: 0
Flags: HW
LayerCount: 2
Fore
SplineSet
559 700 m 1
 119 0 l 1
 109 0 l 1
 250 226 l 1
 92 700 l 1
 102 700 l 1
 258 230 l 1
 254 230 l 1
 548 700 l 1
 559 700 l 1
208 908 m 1
 218 908 l 1
 212 840 252 778 338 778 c 0
 426 778 485 840 505 907 c 1
 515 907 l 1
 495 835 436 768 338 768 c 0
 242 768 201 835 208 908 c 1
EndSplineSet
EndChar

StartChar: uni0410
Encoding: 1040 1040 396
Width: 640
VWidth: 0
Flags: HW
LayerCount: 2
Fore
SplineSet
144 272 m 1
 146 282 l 1
 479 282 l 1
 478 272 l 1
 144 272 l 1
382 688 m 1
 152 277 l 1
 151 273 l 1
 -2 0 l 1
 -14 0 l 1
 386 715 l 1
 540 0 l 1
 528 0 l 1
 472 273 l 1
 472 276 l 1
 382 688 l 1
EndSplineSet
EndChar

StartChar: uni0411
Encoding: 1041 1041 397
Width: 492
VWidth: 0
Flags: HW
LayerCount: 2
Fore
SplineSet
127 410 m 1
 129 420 l 1
 266 420 l 2
 393 420 484 334 464 210 c 0
 443 84 330 0 198 0 c 2
 57 0 l 1
 59 10 l 1
 197 10 l 2
 323 10 434 90 454 210 c 0
 473 326 388 410 266 410 c 2
 127 410 l 1
170 700 m 1
 495 700 l 1
 494 690 l 1
 178 690 l 1
 60 0 l 1
 50 0 l 1
 170 700 l 1
EndSplineSet
EndChar

StartChar: uni0412
Encoding: 1042 1042 398
Width: 541
VWidth: 0
Flags: HW
LayerCount: 2
Fore
SplineSet
133 386 m 1
 134 394 l 1
 234 394 l 2
 332 396 424 439 440 540 c 0
 456 634 389 689 285 689 c 2
 188 689 l 1
 72 11 l 1
 178 11 l 2
 302 11 399 76 418 200 c 0
 434 309 342 384 242 384 c 2
 132 384 l 1
 134 392 l 1
 252 392 l 2
 346 392 446 316 430 200 c 0
 411 69 309 0 177 0 c 2
 60 0 l 1
 180 700 l 1
 286 700 l 2
 396 700 469 640 452 540 c 0
 436 436 345 388 243 386 c 2
 133 386 l 1
EndSplineSet
EndChar

StartChar: uni0413
Encoding: 1043 1043 399
Width: 422
VWidth: 0
Flags: HW
LayerCount: 2
Fore
SplineSet
170 700 m 1
 505 700 l 1
 503 690 l 1
 178 690 l 1
 60 0 l 1
 50 0 l 1
 170 700 l 1
EndSplineSet
EndChar

StartChar: uni0414
Encoding: 1044 1044 400
Width: 771
VWidth: 0
Flags: HW
LayerCount: 2
Fore
SplineSet
478 705 m 1
 92 9 l 1
 80 9 l 1
 482 735 l 1
 634 8 l 1
 622 8 l 1
 478 705 l 1
691 0 m 1
 22 0 l 1
 2 -110 l 1
 -8 -110 l 1
 14 10 l 1
 703 10 l 1
 682 -110 l 1
 671 -110 l 1
 691 0 l 1
EndSplineSet
EndChar

StartChar: uni0415
Encoding: 1045 1045 401
Width: 533
VWidth: 0
Flags: HW
LayerCount: 2
Fore
SplineSet
62 0 m 1
 64 10 l 1
 392 10 l 1
 390 0 l 1
 62 0 l 1
180 690 m 1
 182 700 l 1
 510 700 l 1
 508 690 l 1
 180 690 l 1
128 384 m 1
 130 394 l 1
 438 394 l 1
 436 384 l 1
 128 384 l 1
180 700 m 1
 191 700 l 1
 70 0 l 1
 60 0 l 1
 180 700 l 1
EndSplineSet
EndChar

StartChar: uni0416
Encoding: 1046 1046 402
Width: 621
VWidth: 0
Flags: HW
LayerCount: 2
Fore
SplineSet
126 700 m 1
 349 370 l 1
 -8 0 l 1
 -24 0 l 1
 338 370 l 1
 112 700 l 1
 126 700 l 1
404 700 m 1
 414 700 l 1
 292 0 l 1
 282 0 l 1
 404 700 l 1
680 699 m 1
 696 699 l 1
 366 370 l 1
 588 0 l 1
 575 0 l 1
 354 370 l 1
 680 699 l 1
EndSplineSet
EndChar

StartChar: uni0417
Encoding: 1047 1047 403
Width: 588
VWidth: 0
Flags: HW
LayerCount: 2
Fore
SplineSet
309 360 m 1
 310 367 l 1
 436 371 558 418 578 524 c 0
 596 623 514 700 400 700 c 0
 275 701 185 628 159 527 c 1
 149 527 l 1
 176 635 271 710 401 710 c 0
 523 710 606 627 588 524 c 0
 566 413 444 364 309 360 c 1
276 -10 m 0
 132 -10 49 69 63 185 c 1
 73 185 l 1
 60 73 140 0 276 0 c 0
 410 0 520 71 540 185 c 0
 563 321 432 355 308 357 c 1
 310 364 l 1
 443 362 573 325 549 185 c 0
 529 63 416 -10 276 -10 c 0
EndSplineSet
EndChar

StartChar: uni0418
Encoding: 1048 1048 404
Width: 703
VWidth: 0
Flags: HW
LayerCount: 2
Fore
SplineSet
707 710 m 1
 54 -34 l 1
 62 -10 l 1
 716 734 l 1
 707 710 l 1
190 700 m 1
 67 -13 l 1
 54 -34 l 1
 180 700 l 1
 190 700 l 1
716 734 m 1
 588 0 l 1
 578 0 l 1
 702 715 l 1
 716 734 l 1
EndSplineSet
EndChar

StartChar: uni0419
Encoding: 1049 1049 405
Width: 703
VWidth: 0
Flags: HW
LayerCount: 2
Fore
SplineSet
707 710 m 1
 54 -34 l 1
 62 -10 l 1
 716 734 l 1
 707 710 l 1
190 700 m 1
 67 -13 l 1
 54 -34 l 1
 180 700 l 1
 190 700 l 1
716 734 m 1
 588 0 l 1
 578 0 l 1
 702 715 l 1
 716 734 l 1
310 906 m 1
 320 906 l 1
 316 838 357 777 443 777 c 0
 531 777 590 838 608 906 c 1
 618 906 l 1
 599 834 540 767 442 767 c 0
 346 767 304 833 310 906 c 1
EndSplineSet
EndChar

StartChar: uni041A
Encoding: 1050 1050 406
Width: 548
VWidth: 0
Flags: HW
LayerCount: 2
Fore
SplineSet
176 700 m 1
 186 700 l 1
 66 0 l 1
 54 0 l 1
 176 700 l 1
488 699 m 1
 504 699 l 1
 142 371 l 1
 398 0 l 1
 383 0 l 1
 128 372 l 1
 488 699 l 1
EndSplineSet
EndChar

StartChar: uni041B
Encoding: 1051 1051 407
Width: 594
VWidth: 0
Flags: HW
LayerCount: 2
Fore
SplineSet
610 700 m 1
 490 0 l 1
 480 0 l 1
 598 690 l 1
 200 690 l 1
 124 240 l 2
 108 128 66 15 -18 0 c 1
 -16 10 l 1
 62 27 98 142 114 240 c 2
 192 700 l 1
 610 700 l 1
EndSplineSet
EndChar

StartChar: uni041C
Encoding: 1052 1052 408
Width: 786
VWidth: 0
Flags: HW
LayerCount: 2
Fore
SplineSet
226 674 m 1
 41 0 l 1
 30 0 l 1
 226 715 l 1
 398 132 l 1
 770 716 l 1
 720 0 l 1
 709 0 l 1
 756 674 l 1
 394 105 l 1
 226 674 l 1
EndSplineSet
EndChar

StartChar: uni041D
Encoding: 1053 1053 409
Width: 693
VWidth: 0
Flags: HW
LayerCount: 2
Fore
SplineSet
128 377 m 1
 129 387 l 1
 576 387 l 1
 574 377 l 1
 128 377 l 1
622 700 m 1
 634 700 l 1
 513 0 l 1
 502 0 l 1
 622 700 l 1
180 700 m 1
 191 700 l 1
 70 0 l 1
 60 0 l 1
 180 700 l 1
EndSplineSet
EndChar

StartChar: uni041E
Encoding: 1054 1054 410
Width: 766
VWidth: 0
Flags: HW
LayerCount: 2
Fore
SplineSet
92 350 m 0
 66 172 156 3 348 3 c 0
 542 3 694 162 724 350 c 0
 750 528 660 697 468 697 c 0
 274 697 122 538 92 350 c 0
81 350 m 0
 111 546 270 708 468 708 c 0
 664 708 763 536 736 350 c 0
 706 154 546 -8 348 -8 c 0
 152 -8 54 164 81 350 c 0
EndSplineSet
EndChar

StartChar: uni041F
Encoding: 1055 1055 411
Width: 621
VWidth: 0
Flags: HW
LayerCount: 2
Fore
SplineSet
625 690 m 1
 178 690 l 1
 60 0 l 1
 50 0 l 1
 170 700 l 1
 636 700 l 1
 516 0 l 1
 506 0 l 1
 625 690 l 1
EndSplineSet
EndChar

StartChar: uni0420
Encoding: 1056 1056 412
Width: 531
VWidth: 0
Flags: HW
LayerCount: 2
Fore
SplineSet
180 700 m 1
 191 700 l 1
 70 0 l 1
 60 0 l 1
 180 700 l 1
184 690 m 1
 186 700 l 1
 300 700 l 2
 420 700 494 616 476 497 c 0
 456 374 358 294 234 294 c 2
 117 294 l 1
 118 304 l 1
 233 304 l 2
 351 304 445 380 464 497 c 0
 482 611 416 690 300 690 c 2
 184 690 l 1
EndSplineSet
EndChar

StartChar: uni0421
Encoding: 1057 1057 413
Width: 664
VWidth: 0
Flags: HW
LayerCount: 2
Fore
SplineSet
93 350 m 0
 67 174 153 6 342 4 c 0
 436 4 510 35 576 87 c 1
 572 72 l 1
 506 24 435 -8 341 -8 c 0
 145 -7 54 166 81 350 c 0
 111 546 264 707 462 708 c 0
 550 708 613 681 668 628 c 1
 665 614 l 1
 613 671 545 696 461 696 c 0
 270 695 123 539 93 350 c 0
EndSplineSet
EndChar

StartChar: uni0422
Encoding: 1058 1058 414
Width: 451
VWidth: 0
Flags: HW
LayerCount: 2
Fore
SplineSet
110 689 m 1
 112 700 l 1
 492 700 l 1
 490 689 l 1
 305 689 l 1
 187 0 l 1
 176 0 l 1
 294 689 l 1
 110 689 l 1
EndSplineSet
EndChar

StartChar: uni0423
Encoding: 1059 1059 415
Width: 465
VWidth: 0
Flags: HW
LayerCount: 2
Fore
SplineSet
559 700 m 1
 119 0 l 1
 109 0 l 1
 250 224 l 1
 92 700 l 1
 102 700 l 1
 258 230 l 1
 253 230 l 1
 549 700 l 1
 559 700 l 1
EndSplineSet
EndChar

StartChar: uni0424
Encoding: 1060 1060 416
Width: 708
VWidth: 0
Flags: HW
LayerCount: 2
Fore
SplineSet
442 700 m 1
 452 700 l 1
 332 0 l 1
 322 0 l 1
 442 700 l 1
692 350 m 0
 718 508 600 607 436 609 c 2
 427 609 l 2
 257 607 109 511 81 350 c 0
 55 192 173 91 337 89 c 2
 346 89 l 2
 517 91 664 189 692 350 c 0
702 350 m 0
 674 183 522 82 346 80 c 2
 336 80 l 2
 166 82 44 186 71 350 c 0
 99 517 252 618 428 620 c 2
 437 620 l 2
 607 618 729 514 702 350 c 0
EndSplineSet
EndChar

StartChar: uni0425
Encoding: 1061 1061 417
Width: 538
VWidth: 0
Flags: HW
LayerCount: 2
Fore
SplineSet
530 699 m 1
 544 699 l 1
 286 366 l 1
 439 0 l 1
 425 0 l 1
 279 356 l 1
 6 0 l 1
 -8 0 l 1
 274 368 l 1
 136 700 l 1
 150 700 l 1
 282 378 l 1
 530 699 l 1
EndSplineSet
EndChar

StartChar: uni0426
Encoding: 1062 1062 418
Width: 664
VWidth: 0
Flags: HW
LayerCount: 2
Fore
SplineSet
62 10 m 1
 508 10 l 1
 626 700 l 1
 636 700 l 1
 518 10 l 1
 601 10 l 1
 580 -110 l 1
 570 -110 l 1
 590 0 l 1
 50 0 l 1
 170 700 l 1
 180 700 l 1
 62 10 l 1
EndSplineSet
EndChar

StartChar: uni0427
Encoding: 1063 1063 419
Width: 524
VWidth: 0
Flags: HW
LayerCount: 2
Fore
SplineSet
302 280 m 1
 304 290 l 1
 466 290 l 1
 464 280 l 1
 302 280 l 1
530 700 m 1
 540 700 l 1
 419 0 l 1
 409 0 l 1
 530 700 l 1
180 700 m 1
 148 518 l 2
 128 397 181 290 304 290 c 1
 302 280 l 1
 172 280 118 394 138 518 c 2
 170 700 l 1
 180 700 l 1
EndSplineSet
EndChar

StartChar: uni0428
Encoding: 1064 1064 420
Width: 882
VWidth: 0
Flags: HW
LayerCount: 2
Fore
SplineSet
770 10 m 1
 888 700 l 1
 898 700 l 1
 778 0 l 1
 50 0 l 1
 170 700 l 1
 180 700 l 1
 62 10 l 1
 411 10 l 1
 530 700 l 1
 540 700 l 1
 421 10 l 1
 770 10 l 1
EndSplineSet
EndChar

StartChar: uni0429
Encoding: 1065 1065 421
Width: 926
VWidth: 0
Flags: HW
LayerCount: 2
Fore
SplineSet
770 10 m 1
 888 700 l 1
 898 700 l 1
 780 10 l 1
 863 10 l 1
 842 -110 l 1
 832 -110 l 1
 852 0 l 1
 50 0 l 1
 170 700 l 1
 180 700 l 1
 62 10 l 1
 411 10 l 1
 530 700 l 1
 540 700 l 1
 421 10 l 1
 770 10 l 1
EndSplineSet
EndChar

StartChar: uni042A
Encoding: 1066 1066 422
Width: 597
VWidth: 0
Flags: HW
LayerCount: 2
Fore
SplineSet
232 410 m 1
 234 420 l 1
 372 420 l 2
 499 420 588 333 568 209 c 0
 547 83 434 0 302 0 c 2
 162 0 l 1
 164 10 l 1
 302 10 l 2
 428 10 538 90 558 210 c 0
 577 326 494 410 372 410 c 2
 232 410 l 1
276 690 m 1
 100 690 l 1
 102 700 l 1
 287 700 l 1
 166 0 l 1
 156 0 l 1
 276 690 l 1
EndSplineSet
EndChar

StartChar: uni042B
Encoding: 1067 1067 423
Width: 664
VWidth: 0
Flags: HW
LayerCount: 2
Fore
SplineSet
666 700 m 1
 676 700 l 1
 554 0 l 1
 544 0 l 1
 666 700 l 1
166 700 m 1
 176 700 l 1
 55 0 l 1
 45 0 l 1
 166 700 l 1
120 410 m 1
 122 420 l 1
 260 420 l 2
 387 420 476 333 456 209 c 0
 435 83 322 0 190 0 c 2
 50 0 l 1
 52 10 l 1
 190 10 l 2
 316 10 426 90 446 210 c 0
 465 326 382 410 260 410 c 2
 120 410 l 1
EndSplineSet
EndChar

StartChar: uni042C
Encoding: 1068 1068 424
Width: 486
VWidth: 0
Flags: HW
LayerCount: 2
Fore
SplineSet
166 700 m 1
 176 700 l 1
 55 0 l 1
 45 0 l 1
 166 700 l 1
120 410 m 1
 122 420 l 1
 260 420 l 2
 387 420 476 333 456 209 c 0
 435 83 322 0 190 0 c 2
 50 0 l 1
 52 10 l 1
 190 10 l 2
 316 10 426 90 446 210 c 0
 465 326 382 410 260 410 c 2
 120 410 l 1
EndSplineSet
EndChar

StartChar: uni042D
Encoding: 1069 1069 425
Width: 664
VWidth: 0
Flags: HW
LayerCount: 2
Fore
SplineSet
189 345 m 1
 190 355 l 1
 638 355 l 1
 636 345 l 1
 189 345 l 1
637 350 m 0
 663 528 577 694 388 696 c 0
 297 696 219 665 155 614 c 1
 158 628 l 1
 224 676 295 708 389 708 c 0
 585 706 676 534 649 350 c 0
 619 154 466 -7 268 -8 c 0
 180 -8 117 19 62 72 c 1
 65 88 l 1
 117 30 182 4 269 4 c 0
 460 5 607 162 637 350 c 0
EndSplineSet
EndChar

StartChar: uni042E
Encoding: 1070 1070 426
Width: 993
VWidth: 0
Flags: HW
LayerCount: 2
Fore
SplineSet
121 375 m 1
 123 385 l 1
 336 385 l 1
 335 375 l 1
 121 375 l 1
170 700 m 1
 180 700 l 1
 60 0 l 1
 50 0 l 1
 170 700 l 1
335 352 m 0
 309 174 399 3 591 3 c 0
 785 3 938 163 968 352 c 0
 994 530 903 699 711 699 c 0
 517 699 365 540 335 352 c 0
324 352 m 0
 354 548 514 710 712 710 c 0
 908 710 1005 538 978 352 c 0
 948 156 788 -9 590 -9 c 0
 394 -9 297 167 324 352 c 0
EndSplineSet
EndChar

StartChar: uni042F
Encoding: 1071 1071 427
Width: 454
VWidth: 0
Flags: HW
LayerCount: 2
Fore
SplineSet
289 316 m 1
 20 0 l 1
 6 0 l 1
 276 316 l 1
 289 316 l 1
460 700 m 1
 339 0 l 1
 328 0 l 1
 449 700 l 1
 460 700 l 1
456 689 m 1
 346 689 l 2
 222 687 116 627 96 507 c 0
 76 388 163 324 283 324 c 2
 393 324 l 1
 392 314 l 1
 282 314 l 2
 158 314 66 383 86 507 c 0
 106 633 217 698 347 700 c 2
 458 700 l 1
 456 689 l 1
EndSplineSet
EndChar

StartChar: uni0430
Encoding: 1072 1072 428
Width: 470
VWidth: 0
Flags: HW
LayerCount: 2
Fore
SplineSet
44 135 m 0
 32 51 86 0 160 0 c 0
 254 0 325 77 346 159 c 1
 350 159 l 1
 330 73 261 -10 159 -10 c 0
 80 -10 21 46 34 136 c 0
 50 229 144 280 235 280 c 0
 297 280 334 259 361 235 c 1
 359 226 l 1
 331 252 290 270 234 270 c 0
 150 270 59 223 44 135 c 0
122 396 m 1
 116 404 l 1
 158 436 210 471 278 470 c 0
 366 468 392 399 382 320 c 2
 326 0 l 1
 316 0 l 1
 372 320 l 2
 382 395 360 458 278 460 c 0
 215 462 164 429 122 396 c 1
EndSplineSet
EndChar

StartChar: uni0431
Encoding: 1073 1073 429
Width: 529
VWidth: 0
Flags: HW
LayerCount: 2
Fore
SplineSet
318 460 m 1
 320 470 l 1
 452 470 533 362 514 230 c 0
 495 98 383 -10 247 -10 c 0
 105 -10 53 107 53 235 c 1
 68 205 l 1
 68 109 118 0 248 0 c 0
 372 0 486 102 504 230 c 0
 523 358 444 460 318 460 c 1
57 205 m 1
 57 343 195 470 320 470 c 1
 318 460 l 1
 200 460 68 339 68 205 c 1
 57 205 l 1
53 235 m 1
 53 411 162 597 320 656 c 0
 400 686 448 725 476 780 c 1
 486 780 l 1
 458 720 406 678 322 646 c 0
 164 586 63 403 63 240 c 2
 63 205 l 1
 53 235 l 1
EndSplineSet
EndChar

StartChar: uni0432
Encoding: 1074 1074 430
Width: 398
VWidth: 0
Flags: HW
LayerCount: 2
Fore
SplineSet
90 231 m 1
 218 231 l 2
 300 230 378 212 364 124 c 0
 352 50 291 0 200 0 c 2
 50 0 l 1
 52 10 l 1
 200 10 l 2
 286 10 343 57 354 125 c 0
 366 213 280 224 218 225 c 2
 89 225 l 1
 90 231 l 1
90 229 m 1
 90 235 l 1
 210 235 l 2
 268 237 358 257 371 335 c 0
 385 411 321 450 247 450 c 2
 127 450 l 1
 129 460 l 1
 248 460 l 2
 327 460 394 418 380 334 c 0
 366 256 290 231 210 229 c 2
 90 229 l 1
124 460 m 1
 134 460 l 1
 55 0 l 1
 45 0 l 1
 124 460 l 1
EndSplineSet
EndChar

StartChar: uni0433
Encoding: 1075 1075 431
Width: 291
VWidth: 0
Flags: HW
LayerCount: 2
Fore
SplineSet
129 460 m 1
 338 460 l 1
 336 450 l 1
 138 450 l 1
 60 0 l 1
 50 0 l 1
 129 460 l 1
EndSplineSet
EndChar

StartChar: uni0434
Encoding: 1076 1076 432
Width: 635
VWidth: 0
Flags: HW
LayerCount: 2
Fore
SplineSet
370 470 m 1
 82 8 l 1
 71 8 l 1
 373 495 l 1
 508 8 l 1
 498 8 l 1
 370 470 l 1
556 0 m 1
 22 0 l 1
 6 -90 l 1
 -4 -90 l 1
 14 10 l 1
 567 10 l 1
 549 -90 l 1
 539 -90 l 1
 556 0 l 1
EndSplineSet
EndChar

StartChar: uni0435
Encoding: 1077 1077 433
Width: 493
VWidth: 0
Flags: HW
LayerCount: 2
Fore
SplineSet
68 228 m 1
 70 238 l 1
 452 238 l 1
 474 344 416 458 302 459 c 0
 187 460 90 357 72 233 c 1
 72 232 l 1
 60 118 109 1 225 0 c 0
 325 -1 384 58 428 112 c 1
 436 106 l 1
 390 52 332 -10 224 -10 c 0
 102 -10 48 112 62 232 c 0
 66 258 74 284 84 308 c 0
 122 396 202 470 302 470 c 0
 412 469 480 364 466 254 c 0
 464 246 462 236 460 228 c 1
 68 228 l 1
EndSplineSet
EndChar

StartChar: uni0436
Encoding: 1078 1078 434
Width: 440
VWidth: 0
Flags: HW
LayerCount: 2
Fore
SplineSet
450 459 m 1
 464 459 l 1
 254 269 l 1
 404 0 l 1
 392 0 l 1
 242 271 l 1
 450 459 l 1
278 460 m 1
 198 0 l 1
 188 0 l 1
 268 460 l 1
 278 460 l 1
92 460 m 1
 237 270 l 1
 -5 0 l 1
 -18 0 l 1
 224 270 l 1
 80 460 l 1
 92 460 l 1
EndSplineSet
EndChar

StartChar: uni0437
Encoding: 1079 1079 435
Width: 461
VWidth: 0
Flags: HW
LayerCount: 2
Fore
SplineSet
255 244 m 1
 256 250 l 1
 334 252 405 276 419 344 c 0
 433 412 372 460 298 460 c 0
 210 460 145 398 125 332 c 1
 115 332 l 1
 135 406 208 470 299 470 c 0
 379 470 443 417 429 343 c 0
 415 271 343 246 255 244 c 1
216 -10 m 0
 114 -10 59 57 58 145 c 1
 68 145 l 1
 70 63 120 0 217 0 c 0
 297 0 393 45 405 130 c 0
 418 215 329 240 254 242 c 1
 256 248 l 1
 348 246 428 214 414 130 c 0
 401 40 304 -10 216 -10 c 0
EndSplineSet
EndChar

StartChar: uni0438
Encoding: 1080 1080 436
Width: 460
VWidth: 0
Flags: HW
LayerCount: 2
Fore
SplineSet
432 466 m 1
 44 -34 l 1
 54 -6 l 1
 442 494 l 1
 432 466 l 1
140 460 m 1
 57 -15 l 1
 44 -34 l 1
 130 460 l 1
 140 460 l 1
442 494 m 1
 356 0 l 1
 346 0 l 1
 428 475 l 1
 442 494 l 1
EndSplineSet
EndChar

StartChar: uni0439
Encoding: 1081 1081 437
Width: 460
VWidth: 0
Flags: HW
LayerCount: 2
Fore
SplineSet
432 466 m 1
 44 -34 l 1
 54 -6 l 1
 442 494 l 1
 432 466 l 1
140 460 m 1
 57 -15 l 1
 44 -34 l 1
 130 460 l 1
 140 460 l 1
442 494 m 1
 356 0 l 1
 346 0 l 1
 428 475 l 1
 442 494 l 1
157 694 m 1
 167 694 l 1
 163 626 204 564 290 564 c 0
 378 564 437 626 455 694 c 1
 465 693 l 1
 446 621 387 554 289 554 c 0
 193 554 151 621 157 694 c 1
EndSplineSet
EndChar

StartChar: uni043A
Encoding: 1082 1082 438
Width: 426
VWidth: 0
Flags: HW
LayerCount: 2
Fore
SplineSet
130 460 m 1
 140 460 l 1
 60 0 l 1
 50 0 l 1
 130 460 l 1
370 459 m 1
 386 459 l 1
 118 270 l 1
 324 0 l 1
 311 0 l 1
 104 270 l 1
 370 459 l 1
EndSplineSet
EndChar

StartChar: uni043B
Encoding: 1083 1083 439
Width: 473
VWidth: 0
Flags: HW
LayerCount: 2
Fore
SplineSet
448 460 m 1
 368 0 l 1
 358 0 l 1
 436 450 l 1
 140 450 l 1
 91 160 l 2
 78 70 42 12 -18 0 c 1
 -16 10 l 1
 38 22 68 80 80 160 c 2
 132 460 l 1
 448 460 l 1
EndSplineSet
EndChar

StartChar: uni043C
Encoding: 1084 1084 440
Width: 589
VWidth: 0
Flags: HW
LayerCount: 2
Fore
SplineSet
545 0 m 1
 517 454 l 1
 526 495 l 1
 556 0 l 1
 545 0 l 1
266 8 m 1
 526 494 l 1
 518 454 l 1
 260 -30 l 1
 266 8 l 1
260 -31 m 1
 174 455 l 1
 179 495 l 1
 266 8 l 1
 260 -31 l 1
-23 0 m 1
 180 494 l 1
 175 454 l 1
 -10 0 l 1
 -23 0 l 1
EndSplineSet
EndChar

StartChar: uni043D
Encoding: 1085 1085 441
Width: 480
VWidth: 0
Flags: HW
LayerCount: 2
Fore
SplineSet
94 240 m 1
 95 250 l 1
 416 250 l 1
 414 240 l 1
 94 240 l 1
450 460 m 1
 460 460 l 1
 380 0 l 1
 370 0 l 1
 450 460 l 1
124 460 m 1
 134 460 l 1
 55 0 l 1
 45 0 l 1
 124 460 l 1
EndSplineSet
EndChar

StartChar: uni043E
Encoding: 1086 1086 442
Width: 529
VWidth: 0
Flags: HW
LayerCount: 2
Fore
SplineSet
56 230 m 0
 76 361 188 470 322 470 c 0
 454 470 526 355 508 230 c 0
 488 99 376 -10 242 -10 c 0
 110 -10 38 105 56 230 c 0
66 230 m 0
 48 110 116 0 242 0 c 0
 370 0 478 104 498 230 c 0
 516 350 448 460 322 460 c 0
 194 460 86 356 66 230 c 0
EndSplineSet
EndChar

StartChar: uni043F
Encoding: 1087 1087 443
Width: 441
VWidth: 0
Flags: HW
LayerCount: 2
Fore
SplineSet
420 460 m 1
 341 0 l 1
 331 0 l 1
 409 450 l 1
 132 450 l 1
 55 0 l 1
 45 0 l 1
 124 460 l 1
 420 460 l 1
EndSplineSet
EndChar

StartChar: uni0440
Encoding: 1088 1088 444
Width: 553
VWidth: 0
Flags: HW
LayerCount: 2
Fore
SplineSet
22 -220 m 1
 12 -220 l 1
 130 460 l 1
 140 460 l 1
 22 -220 l 1
494 230 m 0
 474 98 372 -12 246 -10 c 0
 122 -8 78 124 94 230 c 0
 112 344 202 470 327 470 c 0
 453 470 511 354 494 230 c 0
484 230 m 0
 500 349 446 461 324 460 c 0
 210 459 118 340 100 230 c 0
 85 128 130 2 244 0 c 0
 366 -2 465 104 484 230 c 0
EndSplineSet
EndChar

StartChar: uni0441
Encoding: 1089 1089 445
Width: 463
VWidth: 0
Flags: HW
LayerCount: 2
Fore
SplineSet
60 230 m 0
 42 110 112 0 238 0 c 0
 306 0 363 32 399 60 c 1
 397 48 l 1
 361 20 302 -10 236 -10 c 0
 104 -10 32 105 50 230 c 0
 70 362 184 470 318 470 c 0
 380 470 431 443 459 412 c 1
 457 400 l 1
 431 432 379 460 317 460 c 0
 189 460 80 356 60 230 c 0
EndSplineSet
EndChar

StartChar: uni0442
Encoding: 1090 1090 446
Width: 271
VWidth: 0
Flags: HW
LayerCount: 2
Fore
SplineSet
56 460 m 1
 318 460 l 1
 316 450 l 1
 54 450 l 1
 56 460 l 1
182 454 m 1
 192 454 l 1
 113 0 l 1
 103 0 l 1
 182 454 l 1
EndSplineSet
EndChar

StartChar: uni0443
Encoding: 1091 1091 447
Width: 426
VWidth: 0
Flags: HW
LayerCount: 2
Fore
SplineSet
455 460 m 1
 46 -220 l 1
 34 -219 l 1
 180 20 l 1
 61 460 l 1
 72 460 l 1
 190 20 l 1
 180 20 l 1
 444 460 l 1
 455 460 l 1
EndSplineSet
EndChar

StartChar: uni0444
Encoding: 1092 1092 448
Width: 568
VWidth: 0
Flags: HW
LayerCount: 2
Fore
SplineSet
348 560 m 1
 358 560 l 1
 244 -100 l 1
 234 -100 l 1
 348 560 l 1
46 230 m 0
 68 366 188 470 337 470 c 0
 483 470 568 362 547 230 c 0
 525 94 405 -10 256 -10 c 0
 110 -10 25 98 46 230 c 0
56 230 m 0
 36 108 113 0 256 0 c 0
 402 0 515 103 537 230 c 0
 557 352 479 460 336 460 c 0
 190 460 78 357 56 230 c 0
EndSplineSet
EndChar

StartChar: uni0445
Encoding: 1093 1093 449
Width: 407
VWidth: 0
Flags: HW
LayerCount: 2
Fore
SplineSet
386 459 m 1
 400 459 l 1
 204 237 l 1
 332 0 l 1
 318 0 l 1
 197 228 l 1
 -3 0 l 1
 -18 0 l 1
 192 237 l 1
 70 460 l 1
 85 460 l 1
 198 246 l 1
 386 459 l 1
EndSplineSet
EndChar

StartChar: uni0446
Encoding: 1094 1094 450
Width: 480
VWidth: 0
Flags: HW
LayerCount: 2
Fore
SplineSet
343 10 m 1
 422 10 l 1
 404 -90 l 1
 394 -90 l 1
 410 0 l 1
 45 0 l 1
 124 460 l 1
 134 460 l 1
 57 10 l 1
 333 10 l 1
 411 460 l 1
 421 460 l 1
 343 10 l 1
EndSplineSet
EndChar

StartChar: uni0447
Encoding: 1095 1095 451
Width: 402
VWidth: 0
Flags: HW
LayerCount: 2
Fore
SplineSet
220 140 m 1
 220 150 l 1
 326 150 l 1
 324 140 l 1
 220 140 l 1
372 460 m 1
 382 460 l 1
 302 0 l 1
 292 0 l 1
 372 460 l 1
110 460 m 1
 87 328 l 2
 68 209 100 150 220 150 c 1
 220 140 l 1
 90 140 59 207 78 328 c 2
 100 460 l 1
 110 460 l 1
EndSplineSet
EndChar

StartChar: uni0448
Encoding: 1096 1096 452
Width: 689
VWidth: 0
Flags: HW
LayerCount: 2
Fore
SplineSet
324 10 m 1
 580 10 l 1
 658 460 l 1
 668 460 l 1
 589 0 l 1
 45 0 l 1
 124 460 l 1
 134 460 l 1
 57 10 l 1
 314 10 l 1
 392 460 l 1
 402 460 l 1
 324 10 l 1
EndSplineSet
EndChar

StartChar: uni0449
Encoding: 1097 1097 453
Width: 727
VWidth: 0
Flags: HW
LayerCount: 2
Fore
SplineSet
324 10 m 1
 580 10 l 1
 658 460 l 1
 668 460 l 1
 591 10 l 1
 669 10 l 1
 651 -90 l 1
 641 -90 l 1
 658 0 l 1
 45 0 l 1
 124 460 l 1
 134 460 l 1
 57 10 l 1
 314 10 l 1
 392 460 l 1
 402 460 l 1
 324 10 l 1
EndSplineSet
EndChar

StartChar: uni044A
Encoding: 1098 1098 454
Width: 497
VWidth: 0
Flags: HW
LayerCount: 2
Fore
SplineSet
192 276 m 1
 194 286 l 1
 308 286 l 2
 398 286 461 235 447 142 c 0
 433 48 352 0 260 0 c 2
 144 0 l 1
 146 10 l 1
 260 10 l 2
 348 10 425 54 437 144 c 0
 450 232 388 276 306 276 c 2
 192 276 l 1
215 450 m 1
 54 450 l 1
 56 460 l 1
 226 460 l 1
 147 0 l 1
 137 0 l 1
 215 450 l 1
EndSplineSet
EndChar

StartChar: uni044B
Encoding: 1099 1099 455
Width: 533
VWidth: 0
Flags: HW
LayerCount: 2
Fore
SplineSet
503 460 m 1
 513 460 l 1
 434 0 l 1
 424 0 l 1
 503 460 l 1
124 460 m 1
 134 460 l 1
 55 0 l 1
 45 0 l 1
 124 460 l 1
94 276 m 1
 96 286 l 1
 210 286 l 2
 300 286 364 235 350 142 c 0
 336 48 252 0 160 0 c 2
 48 0 l 1
 49 10 l 1
 163 10 l 2
 245 10 326 53 340 143 c 0
 354 229 292 276 210 276 c 2
 94 276 l 1
EndSplineSet
EndChar

StartChar: uni044C
Encoding: 1100 1100 456
Width: 400
VWidth: 0
Flags: HW
LayerCount: 2
Fore
SplineSet
124 460 m 1
 134 460 l 1
 55 0 l 1
 45 0 l 1
 124 460 l 1
94 276 m 1
 96 286 l 1
 210 286 l 2
 300 286 364 235 350 142 c 0
 336 48 250 0 162 0 c 2
 48 0 l 1
 49 10 l 1
 163 10 l 2
 249 12 326 53 340 143 c 0
 354 229 292 276 210 276 c 2
 94 276 l 1
EndSplineSet
EndChar

StartChar: uni044D
Encoding: 1101 1101 457
Width: 473
VWidth: 0
Flags: HW
LayerCount: 2
Fore
SplineSet
146 235 m 1
 441 235 l 1
 440 225 l 1
 144 225 l 1
 146 235 l 1
438 230 m 0
 456 350 386 460 260 460 c 0
 192 460 135 428 99 400 c 1
 101 412 l 1
 137 440 195 470 261 470 c 0
 393 470 465 355 447 230 c 0
 426 98 314 -10 180 -10 c 0
 118 -10 67 16 39 48 c 1
 41 60 l 1
 67 28 119 0 181 0 c 0
 309 0 418 104 438 230 c 0
EndSplineSet
EndChar

StartChar: uni044E
Encoding: 1102 1102 458
Width: 733
VWidth: 0
Flags: HW
LayerCount: 2
Fore
SplineSet
92 235 m 1
 94 245 l 1
 260 245 l 1
 258 235 l 1
 92 235 l 1
124 460 m 1
 134 460 l 1
 55 0 l 1
 45 0 l 1
 124 460 l 1
250 230 m 0
 270 361 382 470 516 470 c 0
 648 470 720 355 702 230 c 0
 682 99 570 -10 436 -10 c 0
 304 -10 232 105 250 230 c 0
260 230 m 0
 242 110 310 0 436 0 c 0
 564 0 672 104 692 230 c 0
 710 350 642 460 516 460 c 0
 388 460 280 356 260 230 c 0
EndSplineSet
EndChar

StartChar: uni044F
Encoding: 1103 1103 459
Width: 400
VWidth: 0
Flags: HW
LayerCount: 2
Fore
SplineSet
36 0 m 1
 24 0 l 1
 200 192 l 1
 212 192 l 1
 36 0 l 1
324 0 m 1
 314 0 l 1
 394 460 l 1
 404 460 l 1
 324 0 l 1
352 194 m 1
 350 184 l 1
 240 184 l 1
 151 186 86 228 100 322 c 0
 114 416 195 458 287 460 c 2
 397 460 l 1
 396 450 l 1
 286 450 l 2
 200 448 124 410 110 322 c 0
 96 234 160 196 242 194 c 2
 352 194 l 1
EndSplineSet
EndChar

StartChar: uni0450
Encoding: 1104 1104 460
Width: 493
VWidth: 0
Flags: HW
LayerCount: 2
Fore
SplineSet
68 228 m 1
 70 238 l 1
 452 238 l 1
 474 344 416 458 302 459 c 0
 187 460 90 357 72 233 c 1
 72 232 l 1
 60 118 109 1 225 0 c 0
 325 -1 384 58 428 112 c 1
 436 106 l 1
 390 52 332 -10 224 -10 c 0
 102 -10 48 112 62 232 c 0
 66 258 74 284 84 308 c 0
 122 396 202 470 302 470 c 0
 412 469 480 364 466 254 c 0
 464 246 462 236 460 228 c 1
 68 228 l 1
194 699 m 1
 203 706 l 1
 344 547 l 1
 339 542 l 1
 194 699 l 1
EndSplineSet
EndChar

StartChar: uni0451
Encoding: 1105 1105 461
Width: 493
VWidth: 0
Flags: HW
LayerCount: 2
Fore
SplineSet
68 228 m 1
 70 238 l 1
 452 238 l 1
 474 344 416 458 302 459 c 0
 187 460 90 357 72 233 c 1
 72 232 l 1
 60 118 109 1 225 0 c 0
 325 -1 384 58 428 112 c 1
 436 106 l 1
 390 52 332 -10 224 -10 c 0
 102 -10 48 112 62 232 c 0
 66 258 74 284 84 308 c 0
 122 396 202 470 302 470 c 0
 412 469 480 364 466 254 c 0
 464 246 462 236 460 228 c 1
 68 228 l 1
392 577 m 0
 392 583 398 588 404 588 c 0
 410 588 414 583 414 577 c 0
 414 571 407 566 401 566 c 0
 395 566 392 571 392 577 c 0
198 577 m 0
 198 583 204 588 210 588 c 0
 216 588 220 583 220 577 c 0
 220 571 213 566 207 566 c 0
 201 566 198 571 198 577 c 0
EndSplineSet
EndChar

StartChar: uni0453
Encoding: 1107 1107 462
Width: 291
VWidth: 0
Flags: HW
LayerCount: 2
Fore
SplineSet
129 460 m 1
 338 460 l 1
 336 450 l 1
 138 450 l 1
 60 0 l 1
 50 0 l 1
 129 460 l 1
385 686 m 1
 189 531 l 1
 185 536 l 1
 378 694 l 1
 385 686 l 1
EndSplineSet
EndChar

StartChar: uni045C
Encoding: 1116 1116 463
Width: 426
VWidth: 0
Flags: HW
LayerCount: 2
Fore
SplineSet
130 460 m 1
 140 460 l 1
 60 0 l 1
 50 0 l 1
 130 460 l 1
370 459 m 1
 386 459 l 1
 118 270 l 1
 324 0 l 1
 311 0 l 1
 104 270 l 1
 370 459 l 1
462 711 m 1
 266 556 l 1
 262 561 l 1
 455 719 l 1
 462 711 l 1
EndSplineSet
EndChar

StartChar: uni045D
Encoding: 1117 1117 464
Width: 460
VWidth: 0
Flags: HW
LayerCount: 2
Fore
SplineSet
432 466 m 1
 44 -34 l 1
 54 -6 l 1
 442 494 l 1
 432 466 l 1
140 460 m 1
 57 -15 l 1
 44 -34 l 1
 130 460 l 1
 140 460 l 1
442 494 m 1
 356 0 l 1
 346 0 l 1
 428 475 l 1
 442 494 l 1
171 712 m 1
 180 720 l 1
 319 560 l 1
 313 556 l 1
 171 712 l 1
EndSplineSet
EndChar

StartChar: uni045E
Encoding: 1118 1118 465
Width: 426
VWidth: 0
Flags: HW
LayerCount: 2
Fore
SplineSet
455 460 m 1
 46 -220 l 1
 36 -219 l 1
 180 20 l 1
 61 460 l 1
 73 460 l 1
 190 20 l 1
 180 20 l 1
 444 460 l 1
 455 460 l 1
148 670 m 1
 158 670 l 1
 152 602 192 540 278 540 c 0
 366 540 425 602 445 669 c 1
 455 669 l 1
 435 597 376 530 278 530 c 0
 182 530 141 597 148 670 c 1
EndSplineSet
EndChar

StartChar: Wcircumflex
Encoding: 372 372 466
Width: 921
VWidth: 0
Flags: HW
LayerCount: 2
Fore
SplineSet
660 26 m 1
 983 700 l 1
 994 700 l 1
 654 -16 l 1
 548 676 l 1
 228 -16 l 1
 110 700 l 1
 121 700 l 1
 234 26 l 1
 554 716 l 1
 660 26 l 1
589 910 m 1
 417 776 l 1
 411 784 l 1
 590 922 l 1
 722 782 l 1
 715 776 l 1
 589 910 l 1
EndSplineSet
EndChar

StartChar: wcircumflex
Encoding: 373 373 467
Width: 601
VWidth: 0
Flags: HW
LayerCount: 2
Fore
SplineSet
66 460 m 1
 76 460 l 1
 132 19 l 1
 350 476 l 1
 420 18 l 1
 630 460 l 1
 640 460 l 1
 414 -16 l 1
 345 440 l 1
 126 -16 l 1
 66 460 l 1
385 670 m 1
 213 536 l 1
 207 544 l 1
 386 682 l 1
 518 542 l 1
 511 536 l 1
 385 670 l 1
EndSplineSet
EndChar

StartChar: Ycircumflex
Encoding: 374 374 468
Width: 492
VWidth: 0
Flags: HW
LayerCount: 2
Fore
SplineSet
558 699 m 1
 570 699 l 1
 265 266 l 1
 219 0 l 1
 208 0 l 1
 254 266 l 1
 107 700 l 1
 120 700 l 1
 261 282 l 1
 558 699 l 1
365 902 m 1
 193 769 l 1
 187 776 l 1
 366 914 l 1
 498 775 l 1
 491 768 l 1
 365 902 l 1
EndSplineSet
EndChar

